<svg width="119" height="32" viewBox="0 0 119 32" fill="none" xmlns="http://www.w3.org/2000/svg">
<g clip-path="url(#clip0)">
<path d="M118.442 2.65893C118.442 2.53117 118.442 2.40342 118.442 2.26147H117.113C116.822 2.24032 116.53 2.282 116.257 2.38367C115.983 2.48533 115.735 2.6446 115.529 2.85066C115.322 3.05671 115.163 3.30471 115.061 3.5778C114.959 3.85089 114.918 4.14267 114.939 4.43331V12.8368C114.939 12.9645 114.939 13.0923 114.939 13.3052L114.598 12.7729C112.504 9.36134 110.408 5.94744 108.31 2.53117C108.268 2.43894 108.198 2.36237 108.11 2.31259C108.022 2.26281 107.92 2.24242 107.82 2.25437C107.415 2.25437 107.01 2.25437 106.605 2.25437C106.311 2.22607 106.014 2.26287 105.736 2.36216C105.458 2.46145 105.205 2.62078 104.995 2.82882C104.785 3.03686 104.624 3.28849 104.523 3.56581C104.422 3.84313 104.383 4.13932 104.409 4.43331V18.9122H105.83C106.115 18.9287 106.399 18.8849 106.665 18.7838C106.931 18.6826 107.173 18.5263 107.374 18.3252C107.576 18.1241 107.732 17.8827 107.833 17.6169C107.935 17.3511 107.978 17.0669 107.962 16.783V7.81881C108.061 7.96076 108.097 7.99625 108.118 8.03884L114.662 18.6354C114.702 18.7277 114.77 18.8049 114.857 18.8559C114.944 18.9069 115.045 18.9291 115.145 18.9193C115.564 18.9193 115.983 18.9193 116.395 18.9193C116.677 18.9399 116.961 18.9002 117.226 18.8028C117.492 18.7054 117.734 18.5525 117.935 18.3543C118.137 18.1561 118.294 17.9173 118.396 17.6537C118.498 17.39 118.543 17.1077 118.527 16.8255V2.65893" fill="white" fill-opacity="0.4"/>
<path d="M99.2585 3.97223C98.9031 4.22581 98.6509 4.59866 98.548 5.02266C98.0896 6.44403 97.9181 7.94216 98.0435 9.43021C98.1004 9.94915 98.1004 10.4727 98.0435 10.9917C97.8469 12.0982 97.293 13.11 96.4665 13.8724C95.6401 14.6349 94.5865 15.1061 93.4667 15.2141C92.3469 15.322 91.2225 15.0608 90.2653 14.4703C89.3082 13.8798 88.5708 12.9925 88.166 11.944C87.7611 10.8954 87.711 9.74331 88.0233 8.66366C88.3356 7.58401 88.9932 6.63617 89.8955 5.96498C90.7978 5.29379 91.8953 4.93615 93.0202 4.9467C94.1451 4.95725 95.2357 5.33541 96.1252 6.02341C96.516 6.3286 96.8357 6.73316 97.2265 7.05965C97.261 6.9656 97.2848 6.86799 97.2975 6.76865C97.3508 6.04094 97.3508 5.31032 97.2975 4.58262C97.2364 3.85079 96.944 3.15733 96.4625 2.60237C95.981 2.04742 95.3355 1.65969 94.619 1.4952C93.4847 1.2184 92.3004 1.2184 91.1661 1.4952C89.3881 1.86333 87.7672 2.77039 86.5243 4.09265C85.2813 5.41492 84.477 7.08802 84.221 8.88373C83.9649 10.6795 84.2696 12.5104 85.0935 14.1267C85.9174 15.7431 87.2203 17.0662 88.8247 17.9156C90.429 18.765 92.2565 19.0994 94.0581 18.8731C95.8596 18.6467 97.5474 17.8707 98.8912 16.6509C100.235 15.4311 101.169 13.8269 101.567 12.0571C101.965 10.2873 101.806 8.43801 101.113 6.76155C100.696 5.72234 100.072 4.77832 99.2798 3.98643" fill="white" fill-opacity="0.4"/>
<path d="M12.7642 15.1718C13.8214 13.3029 14.1933 11.1244 13.8157 9.01114C13.5574 7.27012 12.7427 5.65915 11.4931 4.41846C10.2434 3.17778 8.62577 2.37385 6.88139 2.12656C5.33449 1.98337 3.77935 1.95017 2.22773 2.0272C1.9151 2.02606 1.60566 2.08996 1.31911 2.21481C1.03255 2.33967 0.775156 2.52276 0.563301 2.75242C0.351447 2.98208 0.189774 3.25329 0.0885746 3.54878C-0.0126252 3.84427 -0.0511358 4.15757 -0.0245062 4.46874V19.1677C0.771235 19.1677 1.53145 19.1677 2.29167 19.1677C3.805 19.1677 5.33254 19.2103 6.83166 19.0399C8.05973 18.9218 9.24087 18.5082 10.274 17.8345C11.3072 17.1609 12.1616 16.2472 12.7642 15.1718ZM9.26862 13.8162C8.85573 14.3438 8.32719 14.7698 7.72365 15.0614C7.12011 15.353 6.45766 15.5025 5.78725 15.4983C5.21176 15.4983 4.63627 15.4983 4.03236 15.4983V5.09332C5.04449 5.09379 6.05552 5.16018 7.05902 5.29205C7.79372 5.42587 8.47614 5.76284 9.02874 6.26468C9.58134 6.76653 9.98198 7.41314 10.1851 8.13105C10.5378 9.07572 10.6387 10.0957 10.478 11.0911C10.3174 12.0864 9.90062 13.023 9.26862 13.8091" fill="white" fill-opacity="0.4"/>
<path d="M30.2705 12.2335C30.3131 9.92679 30.2705 7.613 30.2705 5.29921C30.2705 5.09338 30.2705 4.93724 30.5405 4.89465C30.9392 4.8439 31.3028 4.64097 31.5551 4.32839C31.8074 4.01581 31.9288 3.61782 31.8939 3.21781C31.859 2.8178 31.6705 2.4468 31.3679 2.18253C31.0652 1.91826 30.672 1.78123 30.2705 1.80014H28.5938C28.2935 1.78894 27.9942 1.84025 27.7148 1.9508C27.4354 2.06136 27.1822 2.22874 26.971 2.44233C26.7599 2.65591 26.5955 2.91103 26.4884 3.19147C26.3812 3.47191 26.3336 3.77154 26.3486 4.07134C26.3486 6.60515 26.3486 9.13896 26.3486 11.6657C26.3405 12.2902 26.293 12.9137 26.2065 13.5323C26.1706 14.057 25.9568 14.5538 25.6003 14.9409C25.2439 15.3279 24.766 15.5821 24.2456 15.6616C23.5031 15.8085 22.7379 15.7964 22.0005 15.6261C21.5375 15.549 21.1096 15.3311 20.7752 15.0021C20.4408 14.6731 20.2162 14.2491 20.1319 13.7878C20.0007 13.2027 19.9293 12.6059 19.9188 12.0064C19.9188 8.76989 19.9188 5.52633 19.9188 2.28277V1.81434C19.2083 1.81434 18.5404 1.77175 17.8868 1.81434C17.549 1.85992 17.226 1.98124 16.9418 2.16921C16.6069 2.39172 16.3367 2.69849 16.1583 3.05861C15.9799 3.41872 15.8998 3.81945 15.9258 4.22039C15.9258 6.72581 15.9258 9.23123 15.9258 11.7437C15.9256 12.5717 15.9969 13.398 16.139 14.2137C16.2721 15.3161 16.7439 16.3502 17.4895 17.1738C18.2351 17.9974 19.2178 18.57 20.3024 18.8129C22.0764 19.2634 23.9322 19.2852 25.7163 18.8767C26.7246 18.7048 27.6597 18.2392 28.4041 17.5385C29.1486 16.8377 29.6694 15.9329 29.901 14.9376C30.1225 14.0479 30.2416 13.1359 30.2563 12.2193" fill="white" fill-opacity="0.4"/>
<path d="M82.7823 12.8154C82.7004 12.1349 82.4332 11.4899 82.0097 10.9505C81.5863 10.4112 81.023 9.99815 80.3809 9.7564C79.1873 9.24538 77.9226 8.8976 76.6864 8.49305C75.8978 8.23754 75.0949 8.02461 74.3205 7.7833C74.0946 7.71889 73.8891 7.5976 73.7237 7.43107C73.5582 7.26453 73.4383 7.05833 73.3755 6.83223C73.2782 6.46477 73.3105 6.07502 73.4671 5.72858C73.6237 5.38214 73.8949 5.10016 74.2352 4.9301C74.872 4.65164 75.5697 4.5413 76.2614 4.60966C76.9532 4.67801 77.6157 4.92277 78.1855 5.32046C78.6936 5.80644 79.3533 6.10335 80.0543 6.16149C80.7553 6.21963 81.455 6.03548 82.0363 5.63985C81.7949 4.53517 81.1422 3.56346 80.2104 2.92151C79.2599 2.2849 78.1557 1.91479 77.0132 1.84978C75.4474 1.65395 73.8585 1.92302 72.4448 2.62341C71.6625 3.01338 71.013 3.62574 70.5781 4.38346C70.1433 5.14118 69.9424 6.01044 70.0007 6.88191C69.9736 7.72173 70.2231 8.54724 70.7107 9.23185C71.1984 9.91645 71.8974 10.4224 72.7006 10.672C73.8302 11.0978 74.9954 11.3817 76.1464 11.7934C76.9635 12.0631 77.7947 12.3257 78.5834 12.6735C78.889 12.7834 79.1416 13.0048 79.2905 13.2931C79.4394 13.5814 79.4736 13.9154 79.3862 14.2278C79.3467 14.5847 79.208 14.9235 78.9858 15.2057C78.7635 15.4879 78.4666 15.7024 78.1287 15.8248C77.4218 16.1094 76.6535 16.2072 75.8978 16.1087C75.4274 16.0874 74.9659 15.9729 74.5403 15.7718C74.1146 15.5708 73.7332 15.2872 73.4182 14.9376C72.9545 14.3812 72.3098 14.0053 71.5968 13.8756C70.8838 13.7458 70.1479 13.8705 69.5176 14.2278C69.6546 15.1925 70.0633 16.0983 70.6961 16.8397C71.3288 17.5812 72.1595 18.1276 73.0913 18.4154C75.0346 19.0948 77.1459 19.1272 79.1091 18.5076C80.3373 18.219 81.4059 17.4664 82.0907 16.4078C82.7755 15.3492 83.0234 14.0668 82.7823 12.8296" fill="white" fill-opacity="0.4"/>
<path d="M65.7521 15.8818C65.3816 15.3677 64.844 14.9982 64.231 14.8364C63.618 14.6746 62.9678 14.7305 62.3915 14.9946C61.4993 15.3463 60.5435 15.5082 59.5851 15.4701C58.7962 15.4715 58.0244 15.2407 57.366 14.8065C56.7077 14.3723 56.192 13.7539 55.8834 13.0286C55.3123 11.772 55.1748 10.3615 55.4927 9.0185C55.6831 7.93047 56.1953 6.92434 56.9634 6.12981C57.4635 5.59249 58.1095 5.21236 58.8224 5.03589C59.5353 4.85943 60.2842 4.89427 60.9776 5.13616C61.4131 5.28989 61.863 5.39928 62.3204 5.46265C63.5567 5.5833 64.2814 5.06519 64.935 3.68827L64.6295 3.42566C63.8656 2.79153 62.9798 2.32022 62.0268 2.04071C61.0738 1.7612 60.0736 1.6794 59.0877 1.80033C57.7231 1.89737 56.4055 2.33902 55.2585 3.08387C54.1115 3.82872 53.1726 4.85237 52.53 6.05884C51.5677 7.89115 51.2499 9.99338 51.6276 12.0278C51.8901 14.0084 52.8658 15.8256 54.3722 17.1397C55.8786 18.4539 57.8125 19.1749 59.8124 19.1679C62.2119 19.1497 64.516 18.227 66.2636 16.5844C66.086 16.3289 65.9297 16.0947 65.7521 15.8747" fill="white" fill-opacity="0.4"/>
<path d="M38.4056 14.6254C37.7618 14.2643 37.2026 13.7701 36.7654 13.1757C36.3282 12.5814 36.023 11.9007 35.8704 11.1791C35.7177 10.4575 35.721 9.71159 35.8801 8.99136C36.0391 8.27113 36.3503 7.59313 36.7928 7.00268C37.1998 6.44165 37.7198 5.97187 38.3193 5.62351C38.9189 5.27515 39.5847 5.05592 40.2741 4.9799C41.2078 4.85596 42.1577 4.98872 43.0215 5.3639C43.8853 5.73908 44.6304 6.34247 45.1765 7.10915C45.3567 6.23528 45.3783 5.33619 45.2404 4.45468C45.1398 3.7103 44.808 3.01618 44.2919 2.46998C43.7757 1.92379 43.1011 1.55302 42.3629 1.40985C41.1715 1.17028 39.9406 1.2116 38.7679 1.53051C37.2793 1.89997 35.9129 2.65099 34.8038 3.70936C33.6946 4.76774 32.881 6.09686 32.4433 7.56544C32.0057 9.03402 31.9591 10.5912 32.3082 12.0833C32.6573 13.5754 33.39 14.9507 34.4339 16.0733C35.2699 16.9917 36.2952 17.7181 37.4393 18.2025C37.0841 16.783 37.624 15.7042 38.4056 14.6538" fill="white" fill-opacity="0.4"/>
<path d="M46.5761 4.93024C46.1667 6.01846 45.9689 7.17476 45.9935 8.33705C45.9935 9.0468 46.1356 9.75655 46.093 10.4166C46.0515 11.4588 45.6641 12.4576 44.9917 13.2556C44.5441 13.7737 44.0042 14.2138 43.4926 14.6751C43.9029 15.1427 44.2002 15.6982 44.3616 16.2987C44.5229 16.8992 44.5441 17.5287 44.4233 18.1387C45.7327 17.5686 46.8834 16.6885 47.776 15.5745C48.6685 14.4605 49.2761 13.1461 49.5461 11.7449C49.8161 10.3438 49.7405 8.89802 49.3258 7.53261C48.9111 6.16719 48.1697 4.92322 47.1658 3.9082C46.9424 4.23272 46.7452 4.57448 46.5761 4.93024Z" fill="white" fill-opacity="0.4"/>
<path d="M42.37 15.3564C41.711 14.5812 41.2264 13.6735 40.9491 12.6948C40.7066 13.5418 40.3038 14.3344 39.7626 15.0299C39.5636 15.2854 39.3505 15.5409 39.1658 15.8106C38.9126 16.1183 38.7331 16.4796 38.6407 16.867C38.5484 17.2544 38.5457 17.6577 38.6329 18.0463C38.813 18.6434 39.2181 19.1473 39.7628 19.4518C40.3076 19.7564 40.9494 19.8377 41.553 19.6788C42.1038 19.556 42.5893 19.2331 42.9149 18.7726C43.2406 18.3122 43.3832 17.7472 43.315 17.1875C43.1757 16.5016 42.8485 15.8677 42.37 15.3564Z" fill="white" fill-opacity="0.4"/>
<path d="M68.3098 25.7472C67.9475 25.6833 67.777 25.8536 67.5993 26.1801C67.0807 27.3654 66.5336 28.5365 65.9936 29.7289C65.9368 29.8566 65.8657 29.9773 65.7876 30.1476C65.7094 29.9986 65.6526 29.9063 65.61 29.814C65.0203 28.5649 64.4377 27.3157 63.8409 26.0736C63.7815 25.9402 63.6716 25.8356 63.5354 25.7826C63.2753 25.7607 63.0139 25.7607 62.7538 25.7826C62.6117 27.8338 62.4767 29.8282 62.3418 31.8439H63.0522C63.1091 30.3747 63.1588 28.9268 63.2156 27.4648C63.3009 27.5145 63.3662 27.5923 63.4004 27.6848C63.9545 28.8417 64.5087 29.9915 65.0416 31.1555C65.0731 31.2444 65.1337 31.3202 65.2136 31.3704C65.2936 31.4206 65.3882 31.4424 65.4821 31.4323C65.5766 31.446 65.6728 31.4247 65.7527 31.3724C65.8325 31.3201 65.8904 31.2404 65.9155 31.1484C66.4412 29.9915 66.9812 28.8417 67.5141 27.6919C67.5638 27.5996 67.6206 27.5073 67.7059 27.3441C67.7983 28.9126 67.8835 30.3818 67.9617 31.851H69.0132C68.9635 29.7714 68.8924 27.7841 68.7432 25.7472C68.5989 25.7579 68.4541 25.7579 68.3098 25.7472Z" fill="white" fill-opacity="0.4"/>
<path d="M5.49594 26.1373C5.01779 25.8107 4.45962 25.6202 3.88134 25.5865C3.30307 25.5527 2.7265 25.6769 2.21351 25.9457C1.70523 26.1839 1.27476 26.5609 0.971787 27.0331C0.668813 27.5053 0.505689 28.0535 0.501243 28.6143C0.421263 29.1326 0.481907 29.6628 0.676852 30.1496C0.871796 30.6365 1.1939 31.0622 1.6096 31.3824C2.0929 31.7437 2.67003 31.9586 3.27217 32.0013C3.87432 32.0441 4.47607 31.913 5.00571 31.6237C5.54178 31.3585 5.98716 30.9405 6.28559 30.4226C6.58402 29.9046 6.72212 29.31 6.68245 28.7137C6.72813 28.218 6.64255 27.7191 6.4343 27.2669C6.22605 26.8147 5.90245 26.4252 5.49594 26.1373ZM4.82098 30.8359C4.64543 31.0373 4.42402 31.1937 4.17538 31.2918C3.92674 31.39 3.65814 31.427 3.39217 31.3999C3.1262 31.3728 2.87064 31.2823 2.64699 31.1359C2.42333 30.9896 2.23812 30.7918 2.10694 30.5591C1.77598 29.9845 1.6204 29.3258 1.65933 28.664C1.65618 28.2841 1.72939 27.9075 1.87462 27.5563C2.01985 27.2052 2.23414 26.8868 2.50481 26.6199C2.66773 26.4673 2.85989 26.3492 3.06971 26.2727C3.27953 26.1962 3.50268 26.163 3.72571 26.1749C3.94874 26.1868 4.16705 26.2437 4.36749 26.3422C4.56793 26.4406 4.74636 26.5786 4.89203 26.7477C5.31597 27.3485 5.53758 28.0684 5.52481 28.8034C5.51204 29.5383 5.26554 30.2501 4.82098 30.8359Z" fill="white" fill-opacity="0.4"/>
<path d="M82.555 25.8042C81.6807 25.7331 80.803 25.7117 79.9262 25.7403C79.6704 25.7403 79.5852 25.8326 79.5923 26.0881C79.5923 26.9894 79.5923 27.8908 79.5923 28.7993C79.5923 29.7078 79.5923 30.5595 79.5923 31.4396C79.5923 31.6951 79.5923 31.8512 79.9333 31.8512C80.5941 31.8512 81.2548 31.9293 81.9156 31.8938C82.6888 31.9004 83.4348 31.6091 83.9985 31.0803C84.5622 30.5516 84.9002 29.8261 84.9422 29.0548C85.0843 27.3727 84.2957 26.0526 82.555 25.8184V25.8042ZM83.3507 30.4814C83.0482 30.8795 82.6293 31.1738 82.152 31.3238C81.6748 31.4739 81.1627 31.4721 80.6864 31.3189V26.3507C81.1347 26.2103 81.613 26.1957 82.069 26.3083C82.5251 26.421 82.9414 26.6566 83.2726 26.9894C83.6169 27.5037 83.8072 28.1055 83.8211 28.7241C83.8349 29.3426 83.6717 29.9523 83.3507 30.4814Z" fill="white" fill-opacity="0.4"/>
<path d="M12.9489 29.1183C13.3289 28.9815 13.6494 28.7168 13.8555 28.3698C14.0616 28.0228 14.1405 27.615 14.0786 27.2162C14.0479 26.8415 13.8818 26.4907 13.6111 26.2295C13.3404 25.9683 12.9838 25.8144 12.6079 25.7967C11.8996 25.727 11.1881 25.6962 10.4764 25.7044C10.0644 25.7044 10.0004 25.8606 10.0075 26.2226C10.0075 27.9402 10.0075 29.6648 10.0075 31.3895C10.0075 31.5173 10.0075 31.6521 10.0075 31.787H11.0661V29.388C11.2353 29.3204 11.424 29.3202 11.5932 29.3876C11.7625 29.455 11.8993 29.5847 11.9756 29.75C12.3095 30.3888 12.686 30.9992 13.0768 31.6096C13.1336 31.7018 13.2402 31.8154 13.3255 31.8225C13.6878 31.8225 14.036 31.8225 14.4694 31.8225L12.7997 29.1822L12.9347 29.1112L12.9489 29.1183ZM11.0875 28.806V26.2226C11.7411 26.2226 12.3805 26.1303 12.7642 26.7549C12.9096 26.9828 12.9869 27.2475 12.9869 27.5179C12.9869 27.7882 12.9096 28.0529 12.7642 28.2808C12.3805 28.8841 11.7695 28.9054 11.1088 28.8486" fill="white" fill-opacity="0.4"/>
<path d="M33.6311 30.0977C33.4961 29.9486 33.4108 29.8635 33.3398 29.7783C32.2954 28.5291 31.2083 27.2871 30.2208 26.0308C30.129 25.9078 29.9998 25.8177 29.8525 25.7742C29.7052 25.7307 29.5477 25.7361 29.4037 25.7895V31.8082H30.1142V27.5497C31.2652 28.9124 32.3806 30.1971 33.4535 31.503C33.5408 31.6397 33.6722 31.7424 33.8261 31.794C33.9799 31.8457 34.1468 31.8431 34.299 31.7869V25.7682H33.6311V30.0977Z" fill="white" fill-opacity="0.4"/>
<path d="M109.646 30.084C109.555 29.9843 109.47 29.8801 109.39 29.7717C108.353 28.5367 107.308 27.3018 106.292 26.0526C106.203 25.9258 106.075 25.8315 105.928 25.7841C105.78 25.7367 105.621 25.7388 105.475 25.79V31.8158H106.136V27.5573C106.285 27.7134 106.378 27.7986 106.463 27.8979C107.465 29.0832 108.473 30.2614 109.461 31.4467C109.547 31.5972 109.682 31.7138 109.844 31.7771C110.005 31.8403 110.184 31.8465 110.349 31.7945V25.7616H109.681L109.646 30.084Z" fill="white" fill-opacity="0.4"/>
<path d="M52.2742 0.52978C52.0682 0.423318 51.919 0.33105 51.7555 0.260075C51.1381 0.0130328 50.472 -0.0889568 49.8088 -0.0380202C49.1696 -0.0171485 48.5542 0.209816 48.0548 0.608954C47.5554 1.00809 47.1986 1.55797 47.0379 2.1764C46.9759 2.3516 46.9527 2.53814 46.9699 2.72317C46.9871 2.9082 47.0442 3.0873 47.1374 3.24812C47.7062 2.17404 48.6566 1.35126 49.8017 0.941435C48.8317 1.57607 48.0298 2.43565 47.4642 3.44685C47.9593 3.71508 48.5354 3.79333 49.0841 3.66688C49.5777 3.56617 50.0399 3.34859 50.4318 3.03242C50.8237 2.71625 51.1339 2.31072 51.3364 1.84992C51.4921 1.31737 51.8224 0.852483 52.2742 0.52978Z" fill="white" fill-opacity="0.4"/>
<path d="M101.965 -0.0381596C101.296 -0.0310814 100.649 0.204345 100.133 0.629067C99.6156 1.05379 99.2596 1.64228 99.1235 2.29692C99.0675 2.45337 99.0505 2.62111 99.074 2.78559C99.0976 2.95008 99.1609 3.10636 99.2585 3.24089C99.8158 2.16736 100.761 1.34539 101.901 0.941296C100.936 1.58464 100.136 2.4452 99.564 3.45381C99.8795 3.61118 100.224 3.70128 100.577 3.71839C100.929 3.73549 101.281 3.67923 101.61 3.55318C102.052 3.38586 102.454 3.1275 102.789 2.79489C103.125 2.46228 103.386 2.06288 103.557 1.62266C103.77 1.2183 104.007 0.827223 104.267 0.451568C104.189 0.408983 104.033 0.316716 103.87 0.245741C103.264 0.0104021 102.613 -0.0866009 101.965 -0.0381596Z" fill="white" fill-opacity="0.4"/>
<path d="M46.9811 26.0521C46.9029 25.8534 46.8248 25.7185 46.5761 25.7469C46.3274 25.7753 46.1001 25.7469 45.9722 26.0521C45.5033 27.3226 44.9917 28.5788 44.4944 29.8351C44.2386 30.4881 43.9757 31.141 43.6987 31.8295C43.8263 31.8182 43.9547 31.8182 44.0823 31.8295C44.1485 31.8514 44.2188 31.8578 44.2879 31.8482C44.3569 31.8386 44.4228 31.8132 44.4805 31.7741C44.5382 31.735 44.5861 31.6832 44.6206 31.6227C44.655 31.5621 44.675 31.4945 44.6791 31.4249C44.7725 31.0572 44.8986 30.6986 45.0557 30.3532C45.0876 30.2973 45.1315 30.2491 45.1844 30.2123C45.2372 30.1755 45.2976 30.1509 45.3612 30.1403C45.9367 30.1403 46.5122 30.1403 47.0806 30.1403C47.1189 30.1343 47.158 30.136 47.1956 30.1452C47.2333 30.1545 47.2687 30.1712 47.2998 30.1944C47.3309 30.2175 47.3571 30.2466 47.3768 30.28C47.3965 30.3134 47.4093 30.3503 47.4145 30.3887C47.5708 30.8784 47.7413 31.354 47.9047 31.8082H49.0841C49.0344 31.6521 49.006 31.5385 48.9704 31.4249C48.3026 29.6293 47.6418 27.8407 46.9811 26.0379V26.0521ZM45.3328 29.5299C45.6383 28.6782 45.9296 27.8478 46.2209 27.0245H46.299C46.5761 27.8478 46.8461 28.6711 47.1374 29.5299H45.3328Z" fill="white" fill-opacity="0.4"/>
<path d="M23.5849 29.0618H25.5955V28.4514H23.5849V26.3718H26.0929V25.7686H22.4978V31.8085H26.1497V31.2123H23.5849V29.0618Z" fill="white" fill-opacity="0.4"/>
<path d="M115.138 29.0618H117.156V28.4372H115.138V26.3647H117.632V25.7686H114.051V31.8014H117.688V31.2123H115.138V29.0618Z" fill="white" fill-opacity="0.4"/>
<path d="M73.7095 29.0473H75.7486V28.4441H73.7166V26.3716H76.2459V25.7754H72.658V31.8083H76.2956V31.2121H73.7095V29.0473Z" fill="white" fill-opacity="0.4"/>
<path d="M97.056 31.0846C96.788 31.2417 96.4876 31.3355 96.1778 31.3589C95.868 31.3823 95.5569 31.3347 95.2683 31.2196C94.9797 31.1046 94.7213 30.9252 94.5127 30.6951C94.3041 30.4651 94.1509 30.1904 94.0648 29.8922C93.8434 29.1997 93.8434 28.4555 94.0648 27.763C94.16 27.3284 94.4004 26.9392 94.7465 26.6593C95.0925 26.3793 95.5236 26.2254 95.9689 26.2228C96.4508 26.2782 96.9264 26.378 97.3899 26.5209L97.6457 26.0738C96.9818 25.6798 96.2021 25.5269 95.4384 25.6407C94.6747 25.7545 93.9737 26.128 93.4538 26.6983C92.9455 27.3372 92.6778 28.134 92.6972 28.9498C92.7167 29.7656 93.0222 30.5488 93.5604 31.1627C94.1242 31.6513 94.837 31.9348 95.5827 31.9671C96.3284 31.9993 97.0631 31.7783 97.667 31.3401L97.397 30.8788C97.2895 30.9513 97.178 31.0176 97.0631 31.0775" fill="white" fill-opacity="0.4"/>
<path d="M37.1693 26.3645H39.0024V31.8083H40.0965V26.3077L41.9011 26.3929V25.7754H37.1693V26.3645Z" fill="white" fill-opacity="0.4"/>
<path d="M53.2405 25.7686H52.1818V31.8014H55.5637V31.184H53.2405V25.7686Z" fill="white" fill-opacity="0.4"/>
<path d="M18.7536 25.7754H17.6949V31.8083H18.7536V25.7754Z" fill="white" fill-opacity="0.4"/>
<path d="M89.3685 25.7686H88.317V31.8156H89.3685V25.7686Z" fill="white" fill-opacity="0.4"/>
<path d="M101.731 25.7686H100.672V31.8156H101.731V25.7686Z" fill="white" fill-opacity="0.4"/>
</g>
<defs>
<clipPath id="clip0">
<rect width="118.177" height="32" fill="white"/>
</clipPath>
</defs>
</svg>
