<svg width="102" height="89" viewBox="0 0 102 89" fill="none" xmlns="http://www.w3.org/2000/svg">
<path d="M49.5107 0C52.9452 0.145213 56.1851 1.6343 58.5318 4.1462C60.8786 6.65811 62.1442 9.99163 62.0558 13.4281C61.9675 16.8645 60.5322 20.1286 58.0595 22.5165C55.5867 24.9045 52.2746 26.2251 48.8372 26.1936C45.3621 26.1936 42.0293 27.5741 39.572 30.0314C37.1147 32.4887 35.7343 35.8215 35.7343 39.2966C35.7343 42.7717 37.1147 46.1045 39.572 48.5618C42.0293 51.0191 45.3621 52.3995 48.8372 52.3995C55.7085 52.3684 62.2926 49.6398 67.1716 44.8012C72.0506 39.9627 74.8339 33.4015 74.9222 26.5307C75.0106 19.6599 72.3967 13.0294 67.6438 8.06703C62.8908 3.10472 56.3789 0.207721 49.5107 0V0ZM48.8372 44.55C47.8006 44.55 46.7873 44.2426 45.9254 43.6667C45.0635 43.0908 44.3917 42.2723 43.995 41.3146C43.5983 40.3569 43.4945 39.303 43.6967 38.2863C43.899 37.2696 44.3981 36.3358 45.1311 35.6028C45.8641 34.8698 46.798 34.3706 47.8147 34.1684C48.8314 33.9661 49.8852 34.0699 50.8429 34.4666C51.8006 34.8633 52.6192 35.5351 53.1951 36.397C53.771 37.2589 54.0784 38.2722 54.0784 39.3088C54.0784 40.6989 53.5262 42.032 52.5433 43.0149C51.5604 43.9978 50.2273 44.55 48.8372 44.55Z" fill="#93815D"/>
<path d="M60.6299 13.0909C60.6332 11.5417 60.3337 10.0067 59.7482 8.57227H59.5155H58.6583C56.7981 8.74427 55.0053 9.35578 53.4276 10.3564C51.85 11.3571 50.5327 12.7182 49.5842 14.3278C50.5446 16.1776 51.0444 18.2317 51.0415 20.3159C51.034 21.0049 50.9767 21.6925 50.87 22.3732C53.1123 20.2545 56.0314 18.9967 59.1114 18.822C60.0994 17.0729 60.6222 15.0997 60.6299 13.0909Z" fill="#93815D"/>
<path d="M37.0813 18.895C36.3078 17.3199 35.8573 15.606 35.7564 13.8541C35.6554 12.1022 35.9061 10.3479 36.4935 8.69434C34.7176 8.91426 33.0149 9.5355 31.5146 10.511C30.0143 11.4865 28.7557 12.7906 27.8341 14.3246C26.9125 15.8586 26.3522 17.5822 26.1955 19.3649C26.0387 21.1476 26.2898 22.9425 26.9296 24.6138C28.066 22.9421 29.5737 21.556 31.3348 20.5639C33.096 19.5718 35.0628 19.0006 37.0813 18.895Z" fill="#93815D"/>
<path d="M47.9555 20.4019C47.9555 20.7937 47.9555 21.1856 47.9555 21.6264C48.0718 22.763 48.3523 23.8767 48.7882 24.9328C48.7882 24.7981 48.8984 24.6634 48.9474 24.5287C49.2979 23.5949 49.5243 22.6191 49.6209 21.6264C49.6209 21.2346 49.6209 20.8427 49.6209 20.4019C49.6563 18.8709 49.39 17.348 48.8372 15.9199C48.2567 17.343 47.9573 18.865 47.9555 20.4019Z" fill="#93815D"/>
<path d="M48.8372 13.1401C49.9786 11.4394 51.5023 10.0297 53.2865 9.02388C55.0706 8.01804 57.0655 7.44404 59.1114 7.34785C58.0876 5.52281 56.5961 4.00342 54.7904 2.94594C52.9847 1.88846 50.9298 1.33105 48.8372 1.33105C46.7446 1.33105 44.6898 1.88846 42.8841 2.94594C41.0783 4.00342 39.5869 5.52281 38.563 7.34785C40.6089 7.44404 42.6038 8.01804 44.388 9.02388C46.1721 10.0297 47.6959 11.4394 48.8372 13.1401Z" fill="#93815D"/>
<path d="M58.1685 20.3037H58.046C57.1434 20.4417 56.2599 20.6842 55.4132 21.0262C55.0696 21.1614 54.7343 21.3168 54.4091 21.4915L54.0539 21.6875C54.0047 21.7087 53.9593 21.7376 53.9192 21.7732C53.7723 21.8467 53.6376 21.9446 53.4906 22.0304L53.111 22.2875L53.0253 22.3488L52.6824 22.6182L52.5844 22.6916C52.4648 22.7788 52.3503 22.8728 52.2416 22.9733L52.1558 23.0468L51.8742 23.3039L51.7395 23.4264L51.4701 23.708C51.4233 23.7424 51.382 23.7837 51.3476 23.8305L51.0905 24.1121L50.9802 24.2468L50.7353 24.5285L50.6251 24.6754C53.6057 24.2353 56.3048 22.6711 58.1685 20.3037Z" fill="#93815D"/>
<path d="M39.506 20.3037C41.3803 22.7245 44.1186 24.3262 47.1473 24.7734C45.2764 22.3487 42.5365 20.746 39.506 20.3037Z" fill="#93815D"/>
<path d="M46.8167 22.459C46.7039 21.779 46.6466 21.0909 46.6452 20.4017C46.6442 18.3191 47.1395 16.2664 48.0902 14.4135C47.0513 12.6338 45.5636 11.1577 43.7758 10.1327C41.988 9.10776 39.9626 8.56969 37.9018 8.57227C37.321 9.99523 37.0216 11.5173 37.0201 13.0542C37.0194 15.0889 37.5468 17.0889 38.5508 18.8587C41.6457 19.0411 44.5752 20.3171 46.8167 22.459Z" fill="#93815D"/>
<path d="M37.8161 20.1807C35.7436 20.1803 33.7075 20.7256 31.9126 21.7618C30.1177 22.7979 28.6271 24.2883 27.5909 26.0831C28.4822 27.7011 29.7411 29.087 31.2662 30.1293C32.7913 31.1715 34.5399 31.8409 36.3711 32.0835C38.2041 28.9251 41.1668 26.5795 44.6615 25.5198C41.8411 24.5662 39.4278 22.6839 37.8161 20.1807Z" fill="#93815D"/>
<path d="M35.7343 33.3085C33.9341 33.0065 32.2169 32.332 30.6923 31.3283C29.1678 30.3246 27.8695 29.0137 26.8806 27.4795C26.2366 29.0503 25.9396 30.7417 26.0102 32.438C26.0807 34.1342 26.517 35.7952 27.2893 37.3071C28.0615 38.819 29.1514 40.1461 30.4843 41.1976C31.8172 42.249 33.3616 43 35.0118 43.399C34.0176 40.0493 34.2655 36.4533 35.7098 33.2717L35.7343 33.3085Z" fill="#93815D"/>
<path d="M14.8937 87.9744C14.8937 88.1342 14.7484 88.2069 14.4723 88.2069H10.7816C10.661 88.2182 10.5396 88.1972 10.4298 88.1462C10.32 88.0951 10.2258 88.0158 10.1568 87.9163L3.83603 78.922V87.6402C3.83607 87.71 3.82042 87.7788 3.79024 87.8417C3.76006 87.9046 3.71611 87.9599 3.66166 88.0035C3.55935 88.1009 3.42504 88.1577 3.28387 88.1633H0.552156C0.410985 88.1577 0.276684 88.1009 0.174365 88.0035C0.125288 87.9647 0.0845497 87.9163 0.0545887 87.8614C0.0246277 87.8065 0.00606079 87.7461 0 87.6838L0 69.1285C0.00108412 69.061 0.017316 68.9946 0.0474964 68.9343C0.0776767 68.8739 0.121034 68.8211 0.174365 68.7797C0.224036 68.7309 0.283197 68.6929 0.348182 68.6679C0.413167 68.6429 0.482592 68.6315 0.552156 68.6344H3.28387C3.42839 68.6311 3.56874 68.683 3.67619 68.7797C3.72474 68.8243 3.76389 68.8781 3.79134 68.938C3.81879 68.9978 3.83399 69.0626 3.83603 69.1285V77.527L10.5927 68.8088C10.675 68.7254 10.7757 68.6622 10.8866 68.6244C10.9976 68.5866 11.1158 68.5751 11.232 68.5908H14.3706C14.7193 68.5908 14.8937 68.6926 14.8937 68.9105C14.8804 69.0683 14.8138 69.217 14.7048 69.3319L7.62847 78.0501L14.7629 87.5966C14.841 87.7078 14.8863 87.8387 14.8937 87.9744Z" fill="#93815D"/>
<path d="M29.4677 87.4948C29.4677 87.829 29.2933 88.0034 28.9301 88.047L28.2181 88.1487C27.7802 88.2207 27.3388 88.2692 26.8958 88.294L25.4428 88.3812L23.6846 88.3957C22.5547 88.4253 21.4271 88.2782 20.3426 87.9598C19.4385 87.6927 18.6569 87.1168 18.134 86.3324C17.5425 85.3327 17.2642 84.1788 17.3348 83.0194V73.8653C17.2666 72.7015 17.5447 71.5436 18.134 70.5378C18.6507 69.7321 19.4315 69.1312 20.3426 68.8378C21.4333 68.5253 22.5648 68.3783 23.6991 68.4019C25.4544 68.385 27.2084 68.5065 28.9446 68.7651C29.1015 68.7787 29.252 68.8339 29.3805 68.9249C29.4629 69.0381 29.4993 69.1783 29.4822 69.3173V70.9592C29.4851 71.0279 29.4722 71.0964 29.4445 71.1594C29.4168 71.2224 29.375 71.2781 29.3224 71.3225C29.2734 71.3732 29.2147 71.4135 29.1498 71.441C29.0849 71.4684 29.0151 71.4825 28.9446 71.4823H23.2487C22.6437 71.4187 22.038 71.5962 21.5631 71.9763C21.3691 72.2467 21.2306 72.5528 21.1558 72.8771C21.0809 73.2014 21.0712 73.5372 21.1272 73.8653V76.7714H28.5959C28.6681 76.7355 28.7477 76.7169 28.8283 76.7169C28.909 76.7169 28.9886 76.7355 29.0608 76.7714C29.1138 76.8186 29.1556 76.877 29.1832 76.9423C29.2108 77.0076 29.2236 77.0783 29.2207 77.1492V79.0381C29.2208 79.11 29.2053 79.181 29.1752 79.2463C29.1451 79.3115 29.1011 79.3694 29.0463 79.4159C28.9456 79.5157 28.8103 79.5729 28.6685 79.5757H21.1272V83.0194C21.0621 83.6493 21.2329 84.281 21.6067 84.7921C22.0852 85.1654 22.688 85.3421 23.2923 85.2862H28.9301C29.0728 85.2773 29.2135 85.3242 29.3224 85.417C29.3723 85.4688 29.411 85.5305 29.436 85.598C29.461 85.6655 29.4718 85.7374 29.4677 85.8093V87.4948Z" fill="#93815D"/>
<path d="M47.0785 68.998C47.0843 69.0657 47.0843 69.1337 47.0785 69.2014L42.8357 78.3701C42.5346 79.202 41.9334 79.8913 41.1501 80.3027V87.6841C41.1503 87.7546 41.1363 87.8244 41.1088 87.8893C41.0813 87.9542 41.041 88.0129 40.9903 88.0619C40.8918 88.1542 40.7621 88.2061 40.627 88.2072H37.8663C37.727 88.2056 37.5929 88.154 37.4885 88.0619C37.4397 88.0122 37.4016 87.9531 37.3766 87.8881C37.3516 87.8231 37.3402 87.7537 37.3432 87.6841V80.3027C36.5599 79.8913 35.9587 79.202 35.6576 78.3701L31.5019 69.2014C31.4893 69.1342 31.4893 69.0652 31.5019 68.998C31.4973 68.9439 31.5054 68.8894 31.5256 68.8389C31.5458 68.7885 31.5775 68.7434 31.6182 68.7074C31.6617 68.6695 31.7125 68.6408 31.7675 68.6233C31.8224 68.6059 31.8804 68.5998 31.9379 68.6057H35.0038C35.1245 68.611 35.2404 68.6547 35.3345 68.7305C35.4286 68.8063 35.496 68.9102 35.5269 69.0271L38.8398 76.888C38.9851 77.2367 39.1449 77.4111 39.3048 77.4111C39.4646 77.4111 39.6535 77.2367 39.7988 76.888L43.1117 69.0271C43.1405 68.9091 43.2073 68.8039 43.3018 68.7277C43.3964 68.6515 43.5134 68.6086 43.6348 68.6057H46.6572C46.7774 68.5964 46.8967 68.6327 46.9914 68.7074C47.0278 68.7455 47.0547 68.7917 47.0698 68.8422C47.085 68.8927 47.088 68.9461 47.0785 68.998Z" fill="#93815D"/>
<path d="M67.145 87.7995C67.145 88.0756 66.9997 88.2064 66.68 88.2064H63.9338C63.8743 88.2037 63.8162 88.1879 63.7635 88.1603C63.7108 88.1327 63.6647 88.0939 63.6287 88.0465C63.5449 87.9439 63.4988 87.8157 63.4979 87.6833V75.4196C63.4979 75.2307 63.4979 75.1435 63.4107 75.1435C63.3235 75.1435 63.4107 75.1435 63.2799 75.3179L60.6209 80.3454C60.5333 80.4955 60.4048 80.6175 60.2504 80.6973C60.096 80.7771 59.9221 80.8113 59.749 80.7958H56.9156C56.7425 80.8113 56.5686 80.7771 56.4142 80.6973C56.2599 80.6175 56.1314 80.4955 56.0438 80.3454L53.3557 75.3179C53.2975 75.2016 53.2539 75.1435 53.2249 75.1435C53.2249 75.1435 53.1522 75.2307 53.1522 75.4196V87.6833C53.1526 87.8186 53.1005 87.9488 53.0069 88.0465C52.9709 88.0939 52.9248 88.1327 52.8721 88.1603C52.8194 88.1879 52.7612 88.2037 52.7018 88.2064H49.9119C49.6068 88.2064 49.447 88.0756 49.447 87.7995V69.651C49.4442 69.5118 49.4713 69.3736 49.5264 69.2458C49.5816 69.118 49.6635 69.0035 49.7666 68.91C49.9776 68.7086 50.2597 68.5989 50.5513 68.6048H52.8035C53.0172 68.5996 53.2279 68.6556 53.4107 68.7663C53.5936 68.877 53.7408 69.0378 53.8352 69.2296L57.9909 77.3085C58.1216 77.5556 58.2233 77.6863 58.296 77.6863C58.3686 77.6863 58.4704 77.5556 58.6011 77.3085L62.7568 69.2296C62.8511 69.0378 62.9984 68.877 63.1813 68.7663C63.3641 68.6556 63.5748 68.5996 63.7885 68.6048H66.0407C66.3323 68.5989 66.6144 68.7086 66.8253 68.91C66.9285 69.0035 67.0104 69.118 67.0656 69.2458C67.1207 69.3736 67.1478 69.5118 67.145 69.651V87.7995Z" fill="#93815D"/>
<path d="M82.8234 87.4943C82.8234 87.8285 82.6345 88.0029 82.2712 88.0465L81.5592 88.1482C81.1215 88.221 80.6801 88.2695 80.237 88.2935L78.7839 88.3807L77.0112 88.3952C75.8757 88.4216 74.743 88.2696 73.6547 87.9448C72.7548 87.6769 71.978 87.1007 71.4606 86.3173C70.8641 85.3193 70.5806 84.1653 70.6469 83.0044V73.8648C70.583 72.6996 70.8662 71.5416 71.4606 70.5373C71.9809 69.7536 72.756 69.1736 73.6547 68.8954C74.7454 68.5829 75.8768 68.4359 77.0112 68.4595C78.7665 68.4426 80.5204 68.5641 82.2567 68.8227C82.4148 68.8308 82.5667 68.8865 82.6926 68.9826C82.7802 69.0936 82.8218 69.234 82.8088 69.3749V70.9587C82.8088 71.027 82.7945 71.0946 82.767 71.1571C82.7395 71.2196 82.6993 71.2758 82.649 71.322C82.543 71.4227 82.4029 71.4798 82.2567 71.4818H76.6625C76.0573 71.4165 75.4511 71.5942 74.9769 71.9758C74.7728 72.2418 74.6239 72.546 74.539 72.8704C74.4542 73.1948 74.4351 73.5329 74.4829 73.8648V76.7709H81.9661C82.1106 76.7675 82.2509 76.8195 82.3584 76.9162C82.4091 76.9651 82.4494 77.0238 82.4769 77.0887C82.5044 77.1537 82.5184 77.2235 82.5182 77.294V79.1829C82.5184 79.2548 82.5029 79.3258 82.4728 79.3911C82.4426 79.4563 82.3987 79.5142 82.3439 79.5607C82.2415 79.6581 82.1072 79.7149 81.9661 79.7205H74.4829V83.0189C74.4219 83.6507 74.598 84.2825 74.9769 84.7916C75.454 85.1676 76.0579 85.3446 76.6625 85.2857H82.2857C82.4329 85.2775 82.5778 85.324 82.6926 85.4165C82.7425 85.4683 82.7812 85.53 82.8062 85.5975C82.8312 85.665 82.842 85.7369 82.8379 85.8088L82.8234 87.4943Z" fill="#93815D"/>
<path d="M101.509 87.1462C101.512 87.2875 101.484 87.4276 101.429 87.5577C101.374 87.6878 101.293 87.805 101.19 87.9018C100.979 88.1032 100.697 88.2128 100.405 88.207H97.6153C97.2724 88.2217 96.9304 88.1622 96.6127 88.0326C96.3015 87.8615 96.0637 87.5824 95.9443 87.248L89.827 74.4176C89.7592 74.2723 89.672 74.1996 89.5655 74.1996C89.4589 74.1996 89.4153 74.2723 89.4347 74.4176V87.6839C89.4349 87.7544 89.4208 87.8242 89.3933 87.8891C89.3659 87.954 89.3256 88.0127 89.2748 88.0616C89.1763 88.154 89.0466 88.2059 88.9116 88.207H86.5722C86.4304 88.2042 86.2951 88.1469 86.1944 88.0471C86.1399 88.0035 86.096 87.9482 86.0658 87.8854C86.0356 87.8225 86.02 87.7536 86.02 87.6839V69.6516C86.0172 69.5124 86.0443 69.3742 86.0995 69.2464C86.1546 69.1186 86.2365 69.0041 86.3397 68.9106C86.5507 68.7092 86.8328 68.5995 87.1243 68.6054H90.0304C90.2844 68.5917 90.5369 68.6523 90.7569 68.7798C90.9735 68.9591 91.1431 69.1885 91.251 69.4482L97.6734 83.0196C97.6734 83.1504 97.8187 83.223 97.9059 83.223C97.9931 83.223 98.0367 83.1358 98.0367 82.976V69.0995C98.0332 69.0342 98.0444 68.9689 98.0696 68.9085C98.0947 68.8482 98.1332 68.7942 98.182 68.7507C98.2311 68.7012 98.2902 68.6627 98.3553 68.6376C98.4204 68.6126 98.4901 68.6016 98.5598 68.6054H100.986C101.056 68.6016 101.126 68.6126 101.191 68.6376C101.256 68.6627 101.315 68.7012 101.364 68.7507C101.413 68.7942 101.451 68.8482 101.477 68.9085C101.502 68.9689 101.513 69.0342 101.509 69.0995V87.1462Z" fill="#93815D"/>
</svg>
