<svg width="49" height="53" viewBox="0 0 49 53" fill="none" xmlns="http://www.w3.org/2000/svg">
<path d="M23.5107 0C26.9452 0.145213 30.1851 1.6343 32.5318 4.1462C34.8786 6.65811 36.1442 9.99163 36.0558 13.4281C35.9675 16.8645 34.5322 20.1286 32.0595 22.5165C29.5867 24.9045 26.2746 26.2251 22.8372 26.1936C19.3621 26.1936 16.0293 27.5741 13.572 30.0314C11.1147 32.4887 9.73425 35.8215 9.73425 39.2966C9.73425 42.7717 11.1147 46.1045 13.572 48.5618C16.0293 51.0191 19.3621 52.3995 22.8372 52.3995C29.7085 52.3684 36.2926 49.6398 41.1716 44.8012C46.0506 39.9627 48.8339 33.4015 48.9222 26.5307C49.0106 19.6599 46.3967 13.0294 41.6438 8.06703C36.8908 3.10472 30.3789 0.207721 23.5107 0V0ZM22.8372 44.55C21.8006 44.55 20.7873 44.2426 19.9254 43.6667C19.0635 43.0908 18.3917 42.2723 17.995 41.3146C17.5983 40.3569 17.4945 39.303 17.6967 38.2863C17.899 37.2696 18.3981 36.3358 19.1311 35.6028C19.8641 34.8698 20.798 34.3706 21.8147 34.1684C22.8314 33.9661 23.8852 34.0699 24.8429 34.4666C25.8006 34.8633 26.6192 35.5351 27.1951 36.397C27.771 37.2589 28.0784 38.2722 28.0784 39.3088C28.0784 40.6989 27.5262 42.032 26.5433 43.0149C25.5604 43.9978 24.2273 44.55 22.8372 44.55Z" fill="#93815D"/>
<path d="M34.6299 13.0907C34.6332 11.5414 34.3337 10.0064 33.7482 8.57202H33.5155H32.6583C30.7981 8.74402 29.0053 9.35553 27.4276 10.3562C25.85 11.3568 24.5327 12.718 23.5842 14.3275C24.5446 16.1773 25.0444 18.2315 25.0415 20.3157C25.034 21.0047 24.9767 21.6923 24.87 22.373C27.1123 20.2543 30.0314 18.9964 33.1114 18.8217C34.0994 17.0727 34.6222 15.0995 34.6299 13.0907Z" fill="#93815D"/>
<path d="M11.0813 18.895C10.3078 17.3199 9.8573 15.606 9.75635 13.8541C9.6554 12.1022 9.90606 10.3479 10.4935 8.69434C8.71756 8.91426 7.01492 9.5355 5.51462 10.511C4.01432 11.4865 2.7557 12.7906 1.83412 14.3246C0.912536 15.8586 0.352162 17.5822 0.195451 19.3649C0.0387404 21.1476 0.289803 22.9425 0.929617 24.6138C2.06599 22.9421 3.57371 21.556 5.33484 20.5639C7.09597 19.5718 9.06276 19.0006 11.0813 18.895Z" fill="#93815D"/>
<path d="M21.9555 20.4016C21.9555 20.7935 21.9555 21.1853 21.9555 21.6262C22.0718 22.7628 22.3523 23.8765 22.7882 24.9325C22.7882 24.7978 22.8984 24.6631 22.9474 24.5284C23.2979 23.5947 23.5243 22.6189 23.6209 21.6262C23.6209 21.2343 23.6209 20.8425 23.6209 20.4016C23.6563 18.8707 23.39 17.3478 22.8372 15.9197C22.2567 17.3427 21.9573 18.8647 21.9555 20.4016Z" fill="#93815D"/>
<path d="M22.8372 13.1398C23.9786 11.4392 25.5023 10.0295 27.2865 9.02364C29.0706 8.0178 31.0655 7.44379 33.1114 7.34761C32.0876 5.52257 30.5961 4.00318 28.7904 2.9457C26.9847 1.88821 24.9298 1.33081 22.8372 1.33081C20.7446 1.33081 18.6898 1.88821 16.8841 2.9457C15.0783 4.00318 13.5869 5.52257 12.563 7.34761C14.6089 7.44379 16.6038 8.0178 18.388 9.02364C20.1721 10.0295 21.6959 11.4392 22.8372 13.1398Z" fill="#93815D"/>
<path d="M32.1685 20.3035H32.046C31.1434 20.4414 30.2599 20.6839 29.4132 21.026C29.0696 21.1612 28.7343 21.3165 28.4091 21.4913L28.0539 21.6872C28.0047 21.7084 27.9593 21.7374 27.9192 21.773C27.7723 21.8464 27.6376 21.9444 27.4906 22.0301L27.111 22.2873L27.0253 22.3485L26.6824 22.6179L26.5844 22.6914C26.4648 22.7785 26.3503 22.8726 26.2416 22.973L26.1558 23.0465L25.8742 23.3037L25.7395 23.4261L25.4701 23.7078C25.4233 23.7422 25.382 23.7835 25.3476 23.8302L25.0905 24.1119L24.9802 24.2466L24.7353 24.5283L24.6251 24.6752C27.6057 24.2351 30.3048 22.6708 32.1685 20.3035Z" fill="#93815D"/>
<path d="M13.506 20.3035C15.3803 22.7243 18.1186 24.326 21.1473 24.7732C19.2764 22.3485 16.5365 20.7458 13.506 20.3035Z" fill="#93815D"/>
<path d="M20.8167 22.4587C20.7039 21.7787 20.6466 21.0907 20.6452 20.4014C20.6442 18.3189 21.1395 16.2661 22.0902 14.4133C21.0513 12.6335 19.5636 11.1575 17.7758 10.1325C15.988 9.10751 13.9626 8.56945 11.9018 8.57203C11.321 9.99499 11.0216 11.5171 11.0201 13.054C11.0194 15.0887 11.5468 17.0887 12.5508 18.8585C15.6457 19.0409 18.5752 20.3168 20.8167 22.4587Z" fill="#93815D"/>
<path d="M11.8161 20.1809C9.74357 20.1806 7.7075 20.7259 5.91258 21.762C4.11765 22.7981 2.62714 24.2885 1.59088 26.0834C2.48218 27.7013 3.7411 29.0873 5.26618 30.1295C6.79127 31.1718 8.53988 31.8412 10.3711 32.0838C12.2041 28.9254 15.1668 26.5798 18.6615 25.5201C15.8411 24.5664 13.4278 22.6841 11.8161 20.1809Z" fill="#93815D"/>
<path d="M9.73428 33.3082C7.93414 33.0062 6.21686 32.3318 4.6923 31.3281C3.16775 30.3244 1.8695 29.0135 0.880601 27.4792C0.236559 29.05 -0.0603635 30.7415 0.0101731 32.4377C0.0807097 34.134 0.517038 35.7949 1.28927 37.3068C2.06151 38.8187 3.1514 40.1459 4.4843 41.1973C5.81721 42.2488 7.36162 42.9997 9.01178 43.3987C8.01761 40.049 8.26545 36.4531 9.70978 33.2715L9.73428 33.3082Z" fill="#93815D"/>
</svg>
