<svg width="52" height="52" viewBox="0 0 52 52" fill="none" xmlns="http://www.w3.org/2000/svg">
<path d="M32.3793 15.4138C30.7242 16.2413 29.3908 18.7471 28.9311 19.8965C31 20.931 30.6552 23 35.4828 23C41.4354 23 43.069 24.7241 45.4828 26.4482C44.9311 23.1379 40.8851 20.0115 38.9311 18.862L40.6552 17.1379C40.3104 16.908 39.2759 16.3793 37.8966 16.1034C38.5862 16.1034 40.3104 12.3103 41.6897 6.44824C40.3104 11.6207 34.4483 14.3793 32.3793 15.4138Z" stroke="#93815D" stroke-width="2" stroke-linecap="round" stroke-linejoin="round"/>
<path d="M33.4138 24.0344C34.5632 24.839 37 26.931 37.5517 28.862C38.2414 31.2758 42.0345 34.7241 51 36.1034C46.8621 36.1034 40.6552 36.4482 36.5173 34.0344C36.2414 35.1379 35.7127 37.2528 35.4828 38.1724L31.6897 36.1034C31.8046 39.0919 30.8621 45.8965 26.1724 49.2068C27.8966 44.0344 28.2414 37.1379 26.8621 32.6551" stroke="#93815D" stroke-width="2" stroke-linecap="round" stroke-linejoin="round"/>
<path d="M19.6207 15.4138C21.2759 16.2413 22.6092 18.7471 23.069 19.8965C21 20.931 21.3448 23 16.5172 23C10.5646 23 8.93104 24.7241 6.51725 26.4482C7.06897 23.1379 11.1149 20.0115 13.069 18.862L11.3448 17.1379C11.6897 16.908 12.7241 16.3793 14.1035 16.1034C13.4138 16.1034 11.6897 12.3103 10.3103 6.44824C11.6897 11.6207 17.5517 14.3793 19.6207 15.4138Z" stroke="#93815D" stroke-width="2" stroke-linecap="round" stroke-linejoin="round"/>
<path d="M18.5862 24.0344C17.4368 24.839 15 26.931 14.4483 28.862C13.7586 31.2758 9.96551 34.7241 0.999991 36.1034C5.13792 36.1034 11.3448 36.4482 15.4827 34.0344C15.7586 35.1379 16.2873 37.2528 16.5172 38.1724L20.3103 36.1034C20.1954 39.0919 21.1379 45.8965 25.8276 49.2068C24.1034 44.0344 23.7586 37.1379 25.1379 32.6551" stroke="#93815D" stroke-width="2" stroke-linecap="round" stroke-linejoin="round"/>
<path d="M29.6017 17.6301C29.1213 19.4172 26.9324 21.2241 25.8979 21.9042C24.4711 20.0835 22.5127 20.8346 21.5485 16.1043C20.3596 10.2716 18.3439 9.01529 16.1724 6.99448C19.5263 6.87394 23.3978 10.214 24.9143 11.8991L26.2594 9.86531C26.5535 10.1573 27.2782 11.0653 27.824 12.3617C27.6863 11.686 31.0586 9.23901 36.5271 6.7167C31.7343 9.10127 30.2021 15.3962 29.6017 17.6301Z" stroke="#93815D" stroke-width="2" stroke-linecap="round" stroke-linejoin="round"/>
</svg>
