<svg width="52" height="52" viewBox="0 0 52 52" fill="none" xmlns="http://www.w3.org/2000/svg">
<path d="M35.3827 17.875L30.6897 9.75H21.3102L16.6172 17.875" stroke="#93815D" stroke-width="2" stroke-linecap="round" stroke-linejoin="round"/>
<path d="M21.3102 9.75L16.6172 1.625" stroke="#93815D" stroke-width="2" stroke-linecap="round" stroke-linejoin="round"/>
<path d="M2.54472 9.75L7.23447 17.875" stroke="#93815D" stroke-width="2" stroke-linecap="round" stroke-linejoin="round"/>
<path d="M44.7655 17.875L49.4552 9.75" stroke="#93815D" stroke-width="2" stroke-linecap="round" stroke-linejoin="round"/>
<path d="M35.3827 1.625L30.6897 9.75" stroke="#93815D" stroke-width="2" stroke-linecap="round" stroke-linejoin="round"/>
<path d="M30.6897 42.25L35.3827 50.375" stroke="#93815D" stroke-width="2" stroke-linecap="round" stroke-linejoin="round"/>
<path d="M49.4552 42.25L44.7655 34.125" stroke="#93815D" stroke-width="2" stroke-linecap="round" stroke-linejoin="round"/>
<path d="M7.23447 34.125L2.54472 42.25" stroke="#93815D" stroke-width="2" stroke-linecap="round" stroke-linejoin="round"/>
<path d="M16.6172 50.375L21.3102 42.25" stroke="#93815D" stroke-width="2" stroke-linecap="round" stroke-linejoin="round"/>
<path d="M21.3102 26H30.6897" stroke="#93815D" stroke-width="2" stroke-linecap="round" stroke-linejoin="round"/>
<path d="M16.6172 34.125L21.3102 42.25H30.6897L35.3827 34.125" stroke="#93815D" stroke-width="2" stroke-linecap="round" stroke-linejoin="round"/>
<path d="M16.6172 34.125H7.23447L2.54472 26L7.23447 17.875H16.6172L21.3102 26L16.6172 34.125Z" stroke="#93815D" stroke-width="2" stroke-linecap="round" stroke-linejoin="round"/>
<path d="M35.3827 34.125H44.7655L49.4552 26L44.7655 17.875H35.3827L30.6897 26L35.3827 34.125Z" stroke="#93815D" stroke-width="2" stroke-linecap="round" stroke-linejoin="round"/>
</svg>
