<svg width="16" height="16" viewBox="0 0 16 16" fill="none" xmlns="http://www.w3.org/2000/svg">
<path d="M0.96875 5.3125H15.0312" stroke="#93815D" stroke-width="1.5" stroke-linecap="round" stroke-linejoin="round"/>
<path d="M13.625 2.6875H2.375C2.00204 2.6875 1.64435 2.82578 1.38063 3.07192C1.11691 3.31806 0.96875 3.6519 0.96875 4V11.875C0.96875 12.2231 1.11691 12.5569 1.38063 12.8031C1.64435 13.0492 2.00204 13.1875 2.375 13.1875H13.625C13.998 13.1875 14.3556 13.0492 14.6194 12.8031C14.8831 12.5569 15.0312 12.2231 15.0312 11.875V4C15.0312 3.6519 14.8831 3.31806 14.6194 3.07192C14.3556 2.82578 13.998 2.6875 13.625 2.6875V2.6875Z" stroke="#93815D" stroke-width="1.5" stroke-linecap="round" stroke-linejoin="round"/>
<path d="M4.71875 0.9375V2.6875" stroke="#93815D" stroke-width="1.5" stroke-linecap="round" stroke-linejoin="round"/>
<path d="M11.2812 0.9375V2.6875" stroke="#93815D" stroke-width="1.5" stroke-linecap="round" stroke-linejoin="round"/>
</svg>
