<svg width="52" height="52" viewBox="0 0 52 52" fill="none" xmlns="http://www.w3.org/2000/svg">
<path d="M30.1836 28.5955C29.8273 29.4864 29.5422 31.5891 31.2528 32.8721" stroke="#93815D" stroke-width="2" stroke-linecap="round"/>
<path d="M25.6428 31.2683C25.2864 32.1593 25.0013 34.2619 26.7119 35.5449" stroke="#93815D" stroke-width="2" stroke-linecap="round"/>
<path d="M20.297 32.3376C19.9406 33.2286 19.6555 35.3313 21.3661 36.6143" stroke="#93815D" stroke-width="2" stroke-linecap="round"/>
<path d="M15.9658 33.4067C15.6814 34.075 15.4538 35.652 16.8192 36.6142" stroke="#93815D" stroke-width="2" stroke-linecap="round"/>
<path d="M10.62 34.4758C10.3356 35.1441 10.108 36.7211 11.4734 37.6833" stroke="#93815D" stroke-width="2" stroke-linecap="round"/>
<path d="M7.41256 37.6833C7.1281 38.3516 6.90054 39.9286 8.26593 40.8908" stroke="#93815D" stroke-width="2" stroke-linecap="round"/>
<path d="M36.064 36.0796L34.9948 39.8216" stroke="#93815D" stroke-width="2" stroke-linecap="round"/>
<path d="M33 26C34.5 26 37.3469 27.6333 38.2023 32.3375" stroke="#93815D" stroke-width="2" stroke-linecap="round"/>
<path d="M31.2528 39.2871L29.1144 42.4946" stroke="#93815D" stroke-width="2" stroke-linecap="round"/>
<path d="M25.3407 41.2584L23.2341 43.9029" stroke="#93815D" stroke-width="2" stroke-linecap="round"/>
<path d="M19.4921 41.9598L17.3538 44.098" stroke="#93815D" stroke-width="2" stroke-linecap="round"/>
<path d="M13.6117 42.4946L12.5426 45.1675" stroke="#93815D" stroke-width="2" stroke-linecap="round"/>
<path d="M13.0771 33.4068C5.8069 35.5451 4.7021 42.4946 5.05849 45.702C5.05849 51.5824 8.80051 48.9094 8.80051 47.8403C8.80051 46.7711 10.4042 42.4945 15.75 41.9599C21.0958 41.4254 30.7182 40.8908 36.064 36.0796C41.4097 31.2684 37.6677 20.5768 37.6677 17.904C37.6677 15.2311 38.2023 12.5582 43.548 10.4199C48.8938 8.28156 48.3592 5.07416 46.7555 3.47043C45.1518 1.8667 40.3406 4.53958 36.064 8.8162C31.7873 13.0928 34.4602 16.3003 33.9256 23.2498C33.3911 30.1993 22.165 30.7339 13.0771 33.4068Z" stroke="#93815D" stroke-width="2"/>
</svg>
