<svg width="52" height="52" viewBox="0 0 52 52" fill="none" xmlns="http://www.w3.org/2000/svg">
<path d="M20.709 19.8249C19.7271 17.9627 19.2246 15.8852 19.2467 13.7801C19.2688 11.675 19.815 9.6086 20.8357 7.76742C24.024 0.159174 14.5892 0.188423 9.698 4.74167C7.71736 6.37066 6.44256 8.70178 6.13976 11.2483C5.83696 13.7948 6.52958 16.3599 8.073 18.4079C10.6573 21.4606 14.1179 23.6447 17.9855 24.6642" stroke="#93815D" stroke-width="2" stroke-linecap="round" stroke-linejoin="round"/>
<path d="M19.825 31.2907C17.9632 32.272 15.8863 32.7743 13.7818 32.7521C11.6774 32.73 9.61151 32.1842 7.77074 31.164C0.159237 27.9757 0.188487 37.4105 4.74174 42.3017C6.37072 44.2823 8.70185 45.5572 11.2484 45.86C13.7949 46.1627 16.36 45.4701 18.408 43.9267C21.4618 41.3406 23.646 37.8777 24.6642 34.0077" stroke="#93815D" stroke-width="2" stroke-linecap="round" stroke-linejoin="round"/>
<path d="M31.291 32.1747C32.2729 34.037 32.7754 36.1144 32.7533 38.2195C32.7311 40.3246 32.185 42.3911 31.1642 44.2322C27.976 51.8535 37.4107 51.8242 42.302 47.271C44.278 45.6425 45.5498 43.3146 45.8525 40.772C46.1552 38.2293 45.4655 35.6679 43.927 33.621C41.3409 30.5672 37.8779 28.383 34.008 27.3647" stroke="#93815D" stroke-width="2" stroke-linecap="round" stroke-linejoin="round"/>
<path d="M32.175 20.7089C34.0368 19.7276 36.1137 19.2254 38.2181 19.2475C40.3226 19.2696 42.3885 19.8154 44.2292 20.8357C51.8505 24.0239 51.8212 14.5892 47.268 9.69792C45.6395 7.72187 43.3116 6.4501 40.7689 6.1474C38.2263 5.8447 35.6649 6.53441 33.618 8.07292C30.5557 10.6536 28.3623 14.1146 27.3357 17.9854" stroke="#93815D" stroke-width="2" stroke-linecap="round" stroke-linejoin="round"/>
<path d="M26 34.125C30.4873 34.125 34.125 30.4873 34.125 26C34.125 21.5127 30.4873 17.875 26 17.875C21.5127 17.875 17.875 21.5127 17.875 26C17.875 30.4873 21.5127 34.125 26 34.125Z" stroke="#93815D" stroke-width="2" stroke-linecap="round" stroke-linejoin="round"/>
</svg>
