<svg width="17" height="16" viewBox="0 0 17 16" fill="none" xmlns="http://www.w3.org/2000/svg">
<g clip-path="url(#clip0)">
<path d="M8.14222 0C3.6528 0 0 3.589 0 8V13C0 14.654 1.36993 16 3.05333 16H4.07111C4.63394 16 5.08889 15.552 5.08889 15V10C5.08889 9.448 4.63394 9 4.07111 9H2.03556V8C2.03556 4.691 4.7744 2 8.14222 2C11.51 2 14.2489 4.691 14.2489 8V9H12.2133C11.6505 9 11.1956 9.448 11.1956 10V15C11.1956 15.552 11.6505 16 12.2133 16H13.2311C14.9145 16 16.2844 14.654 16.2844 13V8C16.2844 3.589 12.6316 0 8.14222 0Z" fill="white" fill-opacity="0.3"/>
</g>
<defs>
<clipPath id="clip0">
<rect width="16.2844" height="16" fill="white"/>
</clipPath>
</defs>
</svg>
