<svg width="52" height="52" viewBox="0 0 52 52" fill="none" xmlns="http://www.w3.org/2000/svg">
<path d="M35.5286 22.5541C33.4862 22.5877 31.5359 23.4092 30.085 24.8471C28.0279 26.7495 26.7879 29.375 26.6252 32.1722C26.5551 33.3811 26.2354 34.5623 25.6864 35.6416C24.96 37.0678 24.6015 38.6528 24.6432 40.2528C24.6617 40.9437 24.9341 41.6036 25.4084 42.1064C25.8827 42.6092 26.5257 42.9196 27.2144 42.9783C30.1645 43.2314 33.1265 42.6514 35.7633 41.3041C38.4 39.9569 40.6057 37.8965 42.1293 35.3576C42.9353 33.6895 43.2788 31.8358 43.1238 29.9897C42.9689 28.1436 42.3212 26.3729 41.2485 24.8625C40.498 24.1147 39.6051 23.525 38.6226 23.1285C37.6401 22.732 36.588 22.5366 35.5286 22.5541V22.5541ZM35.4614 23.5451C36.3879 23.5187 37.3103 23.6784 38.174 24.0148C39.0377 24.3513 39.8252 24.8576 40.4897 25.5038C41.4356 26.8606 42.005 28.4438 42.1401 30.0923C42.2751 31.7407 41.971 33.3955 41.2586 34.8882C39.8267 37.2576 37.7602 39.1789 35.2929 40.4346C32.8256 41.6903 30.0561 42.2301 27.2978 41.9931C26.8519 41.9548 26.4356 41.7536 26.1285 41.428C25.8214 41.1023 25.6449 40.6751 25.6327 40.2277C25.5947 38.7921 25.9161 37.3696 26.5676 36.0898C27.1786 34.8892 27.5345 33.575 27.6128 32.2301C27.7603 29.6825 28.8912 27.2918 30.7672 25.5618C32.018 24.3162 33.6969 23.595 35.4614 23.5451V23.5451Z" fill="#93815D" stroke="#93815D" stroke-width="0.7"/>
<path d="M17.6985 2.00422C17.0335 1.98861 16.3683 2.01631 15.7069 2.08719C12.7339 3.04274 10.1208 4.87799 8.2131 7.35035C6.30536 9.8227 5.19279 12.8158 5.02242 15.9339C4.87885 19.4282 5.42585 22.9165 6.6321 26.1991C7.83834 29.4817 9.68016 32.4941 12.0521 35.064C13.572 37.2516 15.6804 38.9642 18.1332 40.0034C18.0278 40.5866 17.9306 41.1714 17.8415 41.7574C17.6463 43.0335 17.9397 44.3364 18.663 45.4057C19.3864 46.475 20.4865 47.232 21.7436 47.5257C26.3498 48.6009 31.1938 47.832 35.2407 45.3834C41.176 42.2756 45.9297 37.3088 48.7745 31.243C48.8862 31.0058 48.9642 30.7542 49.0062 30.4954C49.2421 29.0267 48.9159 27.5231 48.0925 26.2842C47.7403 25.7542 47.567 25.1253 47.598 24.4897C47.6406 23.613 47.5574 22.7348 47.3507 21.8818C47.2768 21.5759 47.1521 21.2847 46.9818 21.0202C45.0529 18.0279 42.3192 15.6403 39.0945 14.1317C36.9337 13.1212 34.4777 12.9371 32.1904 13.614C32.0549 13.1039 31.9055 12.5976 31.7423 12.0956C30.6907 9.19443 28.7871 6.67861 26.2811 4.87788C23.7751 3.07715 20.7835 2.07555 17.6985 2.00422H17.6985ZM17.2098 2.9894C20.0966 2.96235 22.9241 3.8081 25.3219 5.41581C27.7197 7.02351 29.5758 9.3182 30.647 11.999C28.8705 9.64794 26.4052 7.90923 23.5942 7.02489C22.0877 6.61406 20.5122 6.52089 18.9677 6.75128C17.4232 6.98168 15.9435 7.53062 14.6224 8.36326C13.3013 9.19589 12.1678 10.2941 11.2937 11.5881C10.4195 12.882 9.82394 14.3435 9.54466 15.8799C8.85902 19.7219 9.06374 23.6699 10.1431 27.4203C11.2224 31.1708 13.1477 34.6238 15.7706 37.5135C14.6268 36.6578 13.6304 35.6209 12.8209 34.4439C10.5242 31.9679 8.74002 29.0619 7.57104 25.8935C6.40206 22.7251 5.87139 19.3567 6.00959 15.9823C6.1691 13.0827 7.19917 10.2987 8.96532 7.99355C10.7315 5.68842 13.1516 3.96929 15.9098 3.06079C16.3418 3.01739 16.7756 2.99376 17.2098 2.98976V2.9894ZM20.7256 7.61587C21.6001 7.62432 22.47 7.74445 23.3141 7.97317V7.97317C26.5174 8.98617 29.2129 11.1841 30.8499 14.1179C29.9752 14.5231 29.1654 15.0557 28.4468 15.6982C28.1059 15.3093 27.7461 14.9373 27.3688 14.5835C26.143 13.6257 24.6436 13.0838 23.0887 13.0365C21.5337 12.9893 20.0042 13.4391 18.7225 14.3207C17.1493 15.4507 15.9011 16.9746 15.1029 18.7395C14.3047 20.5043 13.9848 22.4479 14.1751 24.3755C14.3163 28.9711 15.9163 33.4026 18.7436 37.0284C18.6151 37.5863 18.494 38.1459 18.3805 38.7071C15.2408 35.9197 12.8691 32.373 11.4925 28.4066C10.1159 24.4402 9.78045 20.1867 10.5183 16.0535C10.9519 13.6698 12.2138 11.516 14.081 9.9721C15.9483 8.42824 18.301 7.59361 20.7237 7.61563L20.7256 7.61587ZM22.8602 14.0235C24.2584 14.022 25.6178 14.4839 26.7256 15.337V15.337C27.0821 15.6729 27.4219 16.0263 27.7436 16.3958C27.339 16.8398 26.9762 17.3202 26.6599 17.831C26.0536 18.808 25.4738 19.8012 24.9212 20.8096C23.7693 20.5446 22.563 20.6509 21.4751 21.1132C20.1069 21.9855 19.014 23.2276 18.323 24.6957C17.632 26.1638 17.3713 27.7978 17.571 29.4081C17.7903 31.3853 18.349 33.3098 19.2226 35.097C19.1615 35.3252 19.1016 35.5539 19.043 35.7828C16.6332 32.4324 15.2816 28.4374 15.1622 24.3122C14.9827 22.5544 15.2696 20.7804 15.994 19.1689C16.7184 17.5573 17.8546 16.1651 19.2883 15.1324C20.3393 14.4115 21.5837 14.025 22.8582 14.0236L22.8602 14.0235ZM34.8157 14.2014C34.9722 14.1998 35.1287 14.2024 35.2851 14.2092C36.4574 14.2536 37.6089 14.5328 38.6714 15.0301C41.7277 16.4595 44.3188 18.7219 46.1473 21.5575C46.258 21.7295 46.339 21.9189 46.3868 22.1178C46.5709 22.8785 46.6451 23.6617 46.607 24.4435C46.566 25.2908 46.7975 26.1289 47.2676 26.835C47.9525 27.8667 48.2236 29.1186 48.0268 30.3411C47.9995 30.509 47.9488 30.6722 47.8762 30.826C45.1192 36.7052 40.5093 41.5172 34.7539 44.524C30.9219 46.8518 26.3299 47.5843 21.9639 46.564C20.9497 46.3265 20.0624 45.7152 19.4791 44.8522C18.8958 43.9892 18.6593 42.938 18.817 41.9084C20.0948 33.552 23.049 25.5403 27.5021 18.3548V18.3548C28.2761 17.1053 29.3515 16.0704 30.6298 15.345C31.9081 14.6196 33.3481 14.2271 34.8177 14.2034L34.8157 14.2014ZM23.517 21.6598C23.8241 21.6496 24.1315 21.6701 24.4345 21.721C22.4412 25.5093 20.8349 29.4889 19.6399 33.5993C19.0832 32.2197 18.718 30.7702 18.5543 29.2915C18.3784 27.8796 18.6026 26.4468 19.2013 25.1561C19.8 23.8655 20.7491 22.769 21.9406 21.9915C22.4425 21.7891 22.9761 21.6766 23.517 21.6592V21.6598Z" fill="#93815D" stroke="#93815D" stroke-width="0.7"/>
<path d="M31.6282 38.7139C31.5072 38.7599 31.4091 38.8515 31.3548 38.9691C31.3006 39.0866 31.2946 39.2208 31.3382 39.3427C31.3817 39.4646 31.4713 39.5645 31.5878 39.6211C31.7042 39.6777 31.8382 39.6863 31.9609 39.6452C34.6627 38.6788 37.0675 37.028 38.9404 34.8541C39.0246 34.7544 39.0659 34.6254 39.0554 34.4953C39.045 34.3652 38.9836 34.2445 38.8846 34.1594C38.7856 34.0744 38.6571 34.0318 38.5269 34.041C38.3967 34.0502 38.2754 34.1105 38.1894 34.2086C36.4289 36.2525 34.1684 37.8047 31.6286 38.7139H31.6282Z" fill="#93815D" stroke="#93815D" stroke-width="0.7"/>
</svg>
