<svg width="52" height="52" viewBox="0 0 52 52" fill="none" xmlns="http://www.w3.org/2000/svg">
<path d="M4.875 34.125H30.875" stroke="#93815D" stroke-width="2" stroke-linecap="round" stroke-linejoin="round"/>
<path d="M50.375 26C50.375 27.2929 49.8614 28.5329 48.9471 29.4471C48.0329 30.3614 46.7929 30.875 45.5 30.875C44.2071 30.875 42.9671 30.3614 42.0529 29.4471C41.1386 28.5329 40.625 27.2929 40.625 26C41.1372 22.3034 42.85 18.8777 45.5 16.25C48.1507 18.8771 49.8638 22.3032 50.375 26Z" stroke="#93815D" stroke-width="2" stroke-linecap="round" stroke-linejoin="round"/>
<path d="M30.55 50.375H5.20001C4.74662 50.3736 4.29854 50.2774 3.88455 50.0926C3.47056 49.9077 3.09983 49.6383 2.79619 49.3016C2.49256 48.9649 2.26272 48.5684 2.12147 48.1375C1.98022 47.7067 1.93067 47.2511 1.97601 46.8L4.67351 20.8C4.75385 20.0006 5.12746 19.2592 5.72224 18.7191C6.31702 18.1789 7.09081 17.8782 7.89426 17.875H28.0443C28.8483 17.8774 29.6228 18.1777 30.2183 18.718C30.8138 19.2582 31.1879 20 31.2683 20.8L33.7935 46.8195C33.8361 47.2707 33.7839 47.7258 33.6401 48.1557C33.4964 48.5855 33.2644 48.9805 32.9589 49.3153C32.6535 49.6502 32.2814 49.9174 31.8665 50.0999C31.4517 50.2824 31.0032 50.3761 30.55 50.375Z" stroke="#93815D" stroke-width="2" stroke-linecap="round" stroke-linejoin="round"/>
<path d="M17.875 8.125V1.625" stroke="#93815D" stroke-width="2" stroke-linecap="round" stroke-linejoin="round"/>
<path d="M24.375 17.875V8.125H11.375V17.875" stroke="#93815D" stroke-width="2" stroke-linecap="round" stroke-linejoin="round"/>
<path d="M8.125 1.625H39.0975C40.8214 1.625 42.4747 2.30982 43.6937 3.52881C44.9127 4.74779 45.5975 6.40109 45.5975 8.125" stroke="#93815D" stroke-width="2" stroke-linecap="round" stroke-linejoin="round"/>
</svg>
