<svg width="52" height="52" viewBox="0 0 52 52" fill="none" xmlns="http://www.w3.org/2000/svg">
<path d="M40.625 24.375H43.875C45.5989 24.375 47.2522 23.6902 48.4712 22.4712C49.6902 21.2522 50.375 19.5989 50.375 17.875V4.875H40.625" stroke="#93815D" stroke-width="2" stroke-linecap="round" stroke-linejoin="round"/>
<path d="M30.875 37.375H24.375" stroke="#93815D" stroke-width="2" stroke-linecap="round" stroke-linejoin="round"/>
<path d="M30.875 27.625H24.375" stroke="#93815D" stroke-width="2" stroke-linecap="round" stroke-linejoin="round"/>
<path d="M30.875 17.875H24.375" stroke="#93815D" stroke-width="2" stroke-linecap="round" stroke-linejoin="round"/>
<path d="M1.625 4.875H40.625V40.625C40.625 42.3489 39.9402 44.0022 38.7212 45.2212C37.5022 46.4402 35.8489 47.125 34.125 47.125H14.625C12.9011 47.125 11.2478 46.4402 10.0288 45.2212C8.80982 44.0022 8.125 42.3489 8.125 40.625V14.625L1.625 4.875Z" stroke="#93815D" stroke-width="2" stroke-linecap="round" stroke-linejoin="round"/>
</svg>
