<svg width="16" height="16" viewBox="0 0 16 16" fill="none" xmlns="http://www.w3.org/2000/svg">
<g clip-path="url(#clip0)">
<path d="M9.17796 10.5289L8.11896 11.8539C6.4782 10.8891 5.11074 9.52167 4.14596 7.88091L5.47096 6.82191C5.6262 6.69763 5.7359 6.52543 5.78294 6.33221C5.82998 6.139 5.8117 5.93564 5.73096 5.75391L4.52396 3.03591C4.43743 2.84094 4.28447 2.68303 4.09234 2.59036C3.90021 2.49768 3.68141 2.47626 3.47496 2.52991L1.17496 3.12991C0.959891 3.18487 0.772723 3.31738 0.649421 3.50196C0.526119 3.68655 0.475381 3.91019 0.506958 4.12991C0.910887 7.00112 2.23861 9.66277 4.28939 11.7125C6.34018 13.7622 9.00253 15.0885 11.874 15.4909C12.0937 15.5225 12.3173 15.4717 12.5019 15.3484C12.6865 15.2251 12.819 15.038 12.874 14.8229L13.474 12.5229C13.5273 12.3166 13.5058 12.098 13.4131 11.9061C13.3205 11.7142 13.1627 11.5614 12.968 11.4749L10.246 10.2699C10.0643 10.1891 9.86105 10.1706 9.66784 10.2175C9.47463 10.2643 9.30237 10.3738 9.17796 10.5289V10.5289Z" stroke="#93815D" stroke-linecap="round" stroke-linejoin="round"/>
<path d="M8.5 4C9.42826 4 10.3185 4.36875 10.9749 5.02513C11.6313 5.6815 12 6.57174 12 7.5" stroke="#93815D" stroke-linecap="round" stroke-linejoin="round"/>
<path d="M8.5 1C9.35359 1 10.1988 1.16813 10.9874 1.49478C11.7761 1.82144 12.4926 2.30023 13.0962 2.90381C13.6998 3.50739 14.1786 4.22394 14.5052 5.01256C14.8319 5.80117 15 6.64641 15 7.5" stroke="#93815D" stroke-linecap="round" stroke-linejoin="round"/>
</g>
<defs>
<clipPath id="clip0">
<rect width="16" height="16" fill="white"/>
</clipPath>
</defs>
</svg>
