<svg width="52" height="52" viewBox="0 0 52 52" fill="none" xmlns="http://www.w3.org/2000/svg">
<path d="M37.375 39C37.375 30.875 26 17.875 26 17.875C26 17.875 14.625 30.875 14.625 39C14.625 45.2822 19.7178 50.375 26 50.375C32.2822 50.375 37.375 45.2822 37.375 39Z" stroke="#93815D" stroke-width="2" stroke-miterlimit="10" stroke-linecap="round" stroke-linejoin="round"/>
<path d="M21.7445 43.988C19.6325 42.5 19.0085 38.992 19.6325 36.5" stroke="#93815D" stroke-width="2" stroke-linecap="round"/>
<path d="M14.625 14.625C14.625 8.125 8.125 1.625 8.125 1.625C8.125 1.625 1.625 8.125 1.625 14.625C1.625 18.2163 4.53375 21.125 8.125 21.125C11.7163 21.125 14.625 18.2163 14.625 14.625Z" stroke="#93815D" stroke-width="2" stroke-miterlimit="10" stroke-linecap="round" stroke-linejoin="round"/>
<path d="M50.375 14.625C50.375 8.125 43.875 1.625 43.875 1.625C43.875 1.625 37.375 8.125 37.375 14.625C37.375 18.2163 40.2837 21.125 43.875 21.125C47.4663 21.125 50.375 18.2163 50.375 14.625Z" stroke="#93815D" stroke-width="2" stroke-miterlimit="10" stroke-linecap="round" stroke-linejoin="round"/>
</svg>
