<svg width="153" height="138" viewBox="0 0 153 138" fill="none" xmlns="http://www.w3.org/2000/svg">
<path d="M83.2527 1.65512C90.8957 3.51186 97.9162 7.51593 103.439 13.278C110.972 21.1382 115.115 31.641 114.975 42.5241C114.835 53.4072 110.423 63.8001 102.69 71.4643C94.9576 79.1281 84.5224 83.4503 73.632 83.5C68.1904 83.4998 62.9717 81.3395 59.124 77.4941C55.2761 73.6487 53.1145 68.4332 53.1145 62.9951C53.1145 57.557 55.2761 52.3415 59.124 48.496C62.9713 44.6512 68.1892 42.4908 73.6302 42.4902C79.2743 42.5413 84.7127 40.374 88.773 36.4553C92.8338 32.5361 95.1909 27.179 95.336 21.5389C95.4811 15.8989 93.4026 10.4278 89.5487 6.30519C87.735 4.36507 85.5965 2.79675 83.2527 1.65512ZM68.6841 70.4165C70.1489 71.3946 71.871 71.9167 73.6326 71.9167C75.9948 71.9167 78.2604 70.9789 79.9308 69.3095C81.6013 67.64 82.5398 65.3758 82.5398 63.0147C82.5398 61.254 82.0174 59.5329 81.0386 58.0689C80.0598 56.605 78.6687 55.4641 77.0411 54.7903C75.4136 54.1166 73.6227 53.9403 71.8949 54.2838C70.1671 54.6273 68.58 55.475 67.3343 56.72C66.0886 57.9649 65.2402 59.5511 64.8965 61.278C64.5528 63.0048 64.7292 64.7948 65.4034 66.4215C66.0776 68.0481 67.2193 69.4384 68.6841 70.4165Z" stroke="#93815D"/>
<path d="M77.6683 32.5729H77.6683L77.6683 32.5682C77.6731 29.2401 76.8963 25.9587 75.4022 22.9874C76.8718 20.5777 78.8769 18.5369 81.2636 17.024C83.7209 15.4664 86.5125 14.5129 89.4095 14.2416H90.7613H90.7954C91.6282 16.3907 92.0536 18.6769 92.0488 20.9835C92.0371 24.0282 91.2666 27.0205 89.8087 29.6908C85.3009 30.0045 81.0161 31.7304 77.5574 34.6087C77.6239 33.9322 77.661 33.253 77.6683 32.5729Z" stroke="#93815D"/>
<path d="M52.1506 22.238C52.3022 24.8669 52.9337 27.4439 54.0119 29.8421C50.9562 30.1072 47.9894 31.0225 45.3121 32.5298C42.7025 33.9989 40.4317 35.9945 38.642 38.3858C37.8782 36.0365 37.5945 33.5543 37.8115 31.0872C38.0562 28.3051 38.9313 25.6151 40.3705 23.2211C41.8096 20.827 43.7752 18.7916 46.1182 17.2692C48.2369 15.8925 50.6141 14.9678 53.1007 14.5496C52.3233 17.032 52.0006 19.6367 52.1506 22.238Z" stroke="#93815D"/>
<path d="M73.6184 27.0152C74.1729 28.8525 74.4342 30.7688 74.3897 32.6933L74.3896 32.6933V32.7048V32.709V32.7131V32.7172V32.7214V32.7255V32.7296V32.7338V32.7379V32.742V32.7461V32.7503V32.7544V32.7585V32.7626V32.7667V32.7709V32.775V32.7791V32.7832V32.7873V32.7914V32.7955V32.7996V32.8037V32.8078V32.8119V32.816V32.8201V32.8242V32.8283V32.8323V32.8364V32.8405V32.8446V32.8487V32.8528V32.8568V32.8609V32.865V32.8691V32.8731V32.8772V32.8813V32.8853V32.8894V32.8935V32.8975V32.9016V32.9056V32.9097V32.9138V32.9178V32.9219V32.9259V32.93V32.934V32.938V32.9421V32.9461V32.9502V32.9542V32.9582V32.9623V32.9663V32.9703V32.9744V32.9784V32.9824V32.9865V32.9905V32.9945V32.9985V33.0025V33.0066V33.0106V33.0146V33.0186V33.0226V33.0266V33.0306V33.0347V33.0387V33.0427V33.0467V33.0507V33.0547V33.0587V33.0627V33.0667V33.0707V33.0746V33.0786V33.0826V33.0866V33.0906V33.0946V33.0986V33.1026V33.1065V33.1105V33.1145V33.1185V33.1224V33.1264V33.1304V33.1344V33.1383V33.1423V33.1463V33.1502V33.1542V33.1582V33.1621V33.1661V33.17V33.174V33.1779V33.1819V33.1858V33.1898V33.1937V33.1977V33.2016V33.2056V33.2095V33.2135V33.2174V33.2214V33.2253V33.2292V33.2332V33.2371V33.241V33.245V33.2489V33.2528V33.2568V33.2607V33.2646V33.2685V33.2725V33.2764V33.2803V33.2842V33.2881V33.2921V33.296V33.2999V33.3038V33.3077V33.3116V33.3155V33.3194V33.3233V33.3272V33.3312V33.3351V33.339V33.3429V33.3468V33.3507V33.3545V33.3584V33.3623V33.3662V33.3701V33.374V33.3779V33.3818V33.3857V33.3896V33.3934V33.3973V33.4012V33.4051V33.409V33.4128V33.4167V33.4206V33.4245V33.4284V33.4322V33.4361V33.44V33.4438V33.4477V33.4516V33.4554V33.4593V33.4632V33.467V33.4709V33.4747V33.4786V33.4825V33.4863V33.4902V33.494V33.4979V33.5017V33.5056V33.5094V33.5133V33.5171V33.521V33.5248V33.5287V33.5325V33.5364V33.5402V33.544V33.5479V33.5517V33.5556V33.5594V33.5632V33.5671V33.5709V33.5747V33.5786V33.5824V33.5862V33.59V33.5939V33.5977V33.6015V33.6053V33.6092V33.613V33.6168V33.6206V33.6244V33.6283V33.6321V33.6359V33.6397V33.6435V33.6473V33.6511V33.655V33.6588V33.6626V33.6664V33.6702V33.674V33.6778V33.6816V33.6854V33.6892V33.693V33.6968V33.7006V33.7044V33.7082V33.712V33.7158V33.7196V33.7234V33.7272V33.731V33.7348V33.7386V33.7424V33.7461V33.7499V33.7537V33.7575V33.7613V33.7651V33.7689V33.7726V33.7764V33.7802V33.784V33.7878V33.7916V33.7953V33.7991V33.8029V33.8067V33.8104V33.8142V33.818V33.8218V33.8255V33.8293V33.8331V33.8368V33.8406V33.8444V33.8481V33.8519V33.8557V33.8594V33.8632V33.867V33.8707V33.8745V33.8782V33.882V33.8858V33.8895V33.8933V33.897V33.9008V33.9045V33.9083V33.9121V33.9158V33.9196V33.9233V33.9271V33.9308V33.9346V33.9383V33.9421V33.9458V33.9496V33.9533V33.9571V33.9608V33.9645V33.9683V33.972V33.9758V33.9795V33.9833V33.987V33.9907V33.9945V33.9982V34.002V34.0057V34.0094V34.0132V34.0169V34.0206V34.0244V34.0281V34.0318V34.0356V34.0393V34.043V34.0468V34.0505V34.0542V34.0579V34.0617V34.0654V34.0691V34.0729V34.0766V34.0803V34.084V34.0878V34.0915V34.0952V34.0989V34.1026V34.1064V34.1101V34.1138V34.1175V34.1213V34.125V34.1287V34.1324V34.1361V34.1398V34.1436V34.1473V34.151V34.1547V34.1584V34.1621V34.1658V34.1696V34.1733V34.177V34.1807V34.1844V34.1881V34.1918V34.1955V34.1992V34.203V34.2067V34.2104V34.2141V34.2178V34.2215V34.2252V34.2289V34.2326V34.2363V34.24V34.2437V34.2474V34.2511V34.2548V34.2585V34.2622V34.2659V34.2696V34.2733V34.277V34.2807V34.2844V34.2881V34.2918V34.2955V34.2992V34.3029V34.3066V34.3103V34.314V34.3177V34.3214V34.3251V34.3288V34.3325V34.3362V34.3399V34.3436V34.3473V34.351V34.3547V34.3584V34.3621V34.3658V34.3694V34.3731V34.3768V34.3805V34.3842V34.3879V34.3916V34.3953V34.399V34.4027V34.4064V34.41V34.4137V34.4174V34.4211V34.4248V34.4285V34.4322V34.4359V34.4396V34.4432V34.4469V34.4506V34.4543V34.458V34.4617V34.4654V34.469V34.4727V34.4764V34.4801V34.4838V34.4875V34.4912V34.4948V34.4985V34.5022V34.5059V34.5096V34.5133V34.517V34.5206V34.5243V34.528V34.5317V34.5354V34.5391V34.5427V34.5464V34.5501V34.5538V34.5575V34.5611V34.5648V34.5685V34.5722V34.5759V34.5796V34.5832V34.5869V34.5906V34.5943V34.598V34.6016V34.6053V34.609V34.6127V34.6164V34.6201V34.6237V34.6274V34.6311V34.6348V34.6385V34.6421V34.6435C74.2586 35.97 73.9788 37.2769 73.5559 38.5397C73.137 37.2758 72.8558 35.9691 72.7181 34.6422V34.639V34.6348V34.6307V34.6266V34.6225V34.6183V34.6142V34.6101V34.606V34.6019V34.5978V34.5937V34.5895V34.5854V34.5813V34.5772V34.5731V34.569V34.5649V34.5608V34.5567V34.5526V34.5486V34.5445V34.5404V34.5363V34.5322V34.5281V34.524V34.52V34.5159V34.5118V34.5077V34.5037V34.4996V34.4955V34.4915V34.4874V34.4833V34.4793V34.4752V34.4711V34.4671V34.463V34.459V34.4549V34.4509V34.4468V34.4428V34.4387V34.4347V34.4306V34.4266V34.4226V34.4185V34.4145V34.4104V34.4064V34.4024V34.3984V34.3943V34.3903V34.3863V34.3822V34.3782V34.3742V34.3702V34.3662V34.3621V34.3581V34.3541V34.3501V34.3461V34.3421V34.3381V34.3341V34.3301V34.3261V34.3221V34.3181V34.3141V34.3101V34.3061V34.3021V34.2981V34.2941V34.2901V34.2861V34.2821V34.2781V34.2742V34.2702V34.2662V34.2622V34.2582V34.2543V34.2503V34.2463V34.2423V34.2384V34.2344V34.2304V34.2265V34.2225V34.2185V34.2146V34.2106V34.2067V34.2027V34.1987V34.1948V34.1908V34.1869V34.1829V34.179V34.175V34.1711V34.1671V34.1632V34.1592V34.1553V34.1514V34.1474V34.1435V34.1396V34.1356V34.1317V34.1278V34.1238V34.1199V34.116V34.112V34.1081V34.1042V34.1003V34.0963V34.0924V34.0885V34.0846V34.0807V34.0768V34.0728V34.0689V34.065V34.0611V34.0572V34.0533V34.0494V34.0455V34.0416V34.0377V34.0338V34.0299V34.026V34.0221V34.0182V34.0143V34.0104V34.0065V34.0026V33.9987V33.9948V33.9909V33.9871V33.9832V33.9793V33.9754V33.9715V33.9676V33.9638V33.9599V33.956V33.9521V33.9482V33.9444V33.9405V33.9366V33.9328V33.9289V33.925V33.9212V33.9173V33.9134V33.9096V33.9057V33.9018V33.898V33.8941V33.8903V33.8864V33.8826V33.8787V33.8748V33.871V33.8671V33.8633V33.8594V33.8556V33.8517V33.8479V33.8441V33.8402V33.8364V33.8325V33.8287V33.8249V33.821V33.8172V33.8133V33.8095V33.8057V33.8018V33.798V33.7942V33.7903V33.7865V33.7827V33.7789V33.775V33.7712V33.7674V33.7636V33.7597V33.7559V33.7521V33.7483V33.7445V33.7406V33.7368V33.733V33.7292V33.7254V33.7216V33.7178V33.714V33.7101V33.7063V33.7025V33.6987V33.6949V33.6911V33.6873V33.6835V33.6797V33.6759V33.6721V33.6683V33.6645V33.6607V33.6569V33.6531V33.6493V33.6455V33.6417V33.6379V33.6342V33.6304V33.6266V33.6228V33.619V33.6152V33.6114V33.6076V33.6039V33.6001V33.5963V33.5925V33.5887V33.585V33.5812V33.5774V33.5736V33.5698V33.5661V33.5623V33.5585V33.5547V33.551V33.5472V33.5434V33.5397V33.5359V33.5321V33.5284V33.5246V33.5208V33.5171V33.5133V33.5095V33.5058V33.502V33.4982V33.4945V33.4907V33.487V33.4832V33.4794V33.4757V33.4719V33.4682V33.4644V33.4607V33.4569V33.4532V33.4494V33.4457V33.4419V33.4382V33.4344V33.4307V33.4269V33.4232V33.4194V33.4157V33.4119V33.4082V33.4044V33.4007V33.397V33.3932V33.3895V33.3857V33.382V33.3783V33.3745V33.3708V33.367V33.3633V33.3596V33.3558V33.3521V33.3484V33.3446V33.3409V33.3372V33.3334V33.3297V33.326V33.3222V33.3185V33.3148V33.3111V33.3073V33.3036V33.2999V33.2961V33.2924V33.2887V33.285V33.2812V33.2775V33.2738V33.2701V33.2664V33.2626V33.2589V33.2552V33.2515V33.2478V33.244V33.2403V33.2366V33.2329V33.2292V33.2255V33.2217V33.218V33.2143V33.2106V33.2069V33.2032V33.1995V33.1957V33.192V33.1883V33.1846V33.1809V33.1772V33.1735V33.1698V33.1661V33.1624V33.1586V33.1549V33.1512V33.1475V33.1438V33.1401V33.1364V33.1327V33.129V33.1253V33.1216V33.1179V33.1142V33.1105V33.1068V33.1031V33.0994V33.0957V33.092V33.0883V33.0846V33.0809V33.0772V33.0735V33.0698V33.0661V33.0624V33.0587V33.055V33.0513V33.0476V33.0439V33.0402V33.0365V33.0328V33.0291V33.0254V33.0217V33.0181V33.0144V33.0107V33.007V33.0033V32.9996V32.9959V32.9922V32.9885V32.9848V32.9811V32.9774V32.9737V32.9701V32.9664V32.9627V32.959V32.9553V32.9516V32.9479V32.9442V32.9405V32.9369V32.9332V32.9295V32.9258V32.9221V32.9184V32.9147V32.9111V32.9074V32.9037V32.9V32.8963V32.8926V32.8889V32.8853V32.8816V32.8779V32.8742V32.8705V32.8668V32.8631V32.8595V32.8558V32.8521V32.8484V32.8447V32.841V32.8374V32.8337V32.83V32.8263V32.8226V32.8189V32.8153V32.8116V32.8079V32.8042V32.8005V32.7969V32.7932V32.7895V32.7858V32.7821V32.7784V32.7748V32.7711V32.7674V32.7637V32.76V32.7564V32.7527V32.749V32.7453V32.7416V32.738V32.7343V32.7306V32.7269V32.7232V32.7195V32.7159V32.7122V32.7085V32.7051C72.7204 30.7704 73.025 28.8508 73.6184 27.0152Z" stroke="#93815D"/>
<path d="M80.524 14.0297C77.8053 15.5615 75.4547 17.6639 73.6325 20.189C71.8102 17.6639 69.4597 15.5615 66.741 14.0297C64.05 12.5136 61.067 11.5953 57.9953 11.3333C59.5715 8.79158 61.7468 6.66874 64.3357 5.15352C67.1557 3.50315 70.3646 2.63322 73.6325 2.63322C76.9004 2.63322 80.1093 3.50315 82.9292 5.15352C85.5182 6.66874 87.6935 8.79158 89.2697 11.3333C86.198 11.5953 83.215 12.5136 80.524 14.0297Z" stroke="#93815D"/>
<path d="M84.3681 34.1697C85.3346 33.7794 86.3319 33.4723 87.3492 33.2511C84.8057 36.0405 81.4644 37.9813 77.781 38.8097L78.0286 38.5387L78.0464 38.5192L78.0621 38.4979C78.0873 38.4636 78.1177 38.4333 78.1521 38.408L78.1871 38.3823L78.2171 38.3509L78.6371 37.912L78.8403 37.7274L78.8411 37.7267L79.2871 37.3198L79.4186 37.2071L79.4257 37.201L79.4326 37.1947C79.5927 37.0468 79.7613 36.9084 79.9376 36.7801L79.9376 36.7802L79.9433 36.7759L80.1004 36.6581L80.1005 36.6582L80.1093 36.6513L80.6503 36.2265L80.7735 36.1386L81.3637 35.739C81.458 35.6835 81.5511 35.6244 81.6346 35.5713C81.6598 35.5554 81.684 35.5399 81.7072 35.5253C81.8175 35.4559 81.9132 35.3981 82.008 35.3508L82.067 35.3213L82.1164 35.2774C82.1408 35.2558 82.1685 35.2382 82.1984 35.2253L82.2207 35.2157L82.242 35.204L82.8091 34.8912C83.3128 34.6209 83.8319 34.3805 84.3639 34.1714L84.3639 34.1714L84.3681 34.1697Z" stroke="#93815D"/>
<path d="M59.9354 33.2895C63.6871 34.1239 67.0854 36.1104 69.652 38.9694C65.9022 38.1301 62.5053 36.1444 59.9354 33.2895Z" stroke="#93815D"/>
<path d="M69.6164 32.7059L69.6164 32.7052C69.6147 29.3798 70.3847 26.1006 71.8643 23.1249C70.2493 20.4514 67.9786 18.2317 65.2651 16.677C62.5708 15.1333 59.531 14.2972 56.4294 14.2443C55.6042 16.3748 55.1792 18.6402 55.177 20.9266L69.6164 32.7059ZM69.6164 32.7059C69.6177 33.3818 69.6518 34.057 69.7186 34.7291M69.6164 32.7059L69.7186 34.7291M69.7186 34.7291C66.2594 31.823 61.9622 30.075 57.4364 29.7502C55.9538 27.0469 55.176 24.0124 55.177 20.9267L69.7186 34.7291Z" stroke="#93815D"/>
<path d="M46.7339 35.3192C49.4593 33.747 52.5408 32.8988 55.6844 32.8534C58.0673 36.4503 61.4691 39.2437 65.4423 40.8848C60.4084 42.7469 56.1465 46.2717 53.3751 50.8908C50.634 50.4778 48.0201 49.4515 45.7292 47.8869C43.4256 46.3136 41.5109 44.2385 40.1284 41.8193C41.7394 39.1271 44.0126 36.8891 46.7339 35.3192Z" stroke="#93815D"/>
<path d="M50.7408 68.8635C48.4769 68.203 46.3585 67.1127 44.5027 65.6497C42.4212 64.0087 40.7192 61.9375 39.5133 59.5781C38.3074 57.2186 37.626 54.6265 37.5159 51.9793C37.4189 49.6485 37.7668 47.3234 38.5379 45.1276C40.0827 47.3005 42.0196 49.1701 44.252 50.6389C46.5606 52.158 49.1384 53.2174 51.8439 53.7618C49.8376 58.5421 49.4513 63.8461 50.7408 68.8635Z" stroke="#93815D"/>
<path d="M22.3405 137.362C22.3405 137.602 22.1226 137.711 21.7084 137.711H16.1724C15.9915 137.728 15.8094 137.697 15.6447 137.62C15.48 137.543 15.3387 137.424 15.2351 137.275L5.75404 123.784V136.861C5.75411 136.966 5.73064 137.069 5.68536 137.163C5.64009 137.258 5.57417 137.341 5.4925 137.406C5.33902 137.552 5.13757 137.637 4.92581 137.646H0.828234C0.616477 137.637 0.415025 137.552 0.261547 137.406C0.187933 137.348 0.126825 137.275 0.081883 137.193C0.0369415 137.111 0.00909119 137.02 0 136.926L0 109.093C0.00162618 108.992 0.0259741 108.893 0.0712446 108.802C0.116515 108.712 0.181551 108.632 0.261547 108.57C0.336054 108.497 0.424795 108.44 0.522272 108.403C0.61975 108.365 0.723887 108.348 0.828234 108.352H4.92581C5.14259 108.347 5.35311 108.425 5.51429 108.57C5.58711 108.637 5.64584 108.718 5.68701 108.808C5.72819 108.898 5.75098 108.995 5.75404 109.093V121.691L15.889 108.614C16.0125 108.489 16.1635 108.394 16.3299 108.337C16.4964 108.281 16.6738 108.263 16.848 108.287H21.5559C22.079 108.287 22.3405 108.44 22.3405 108.767C22.3206 109.003 22.2206 109.226 22.0572 109.399L11.4427 122.476L22.1444 136.796C22.2614 136.963 22.3294 137.159 22.3405 137.362Z" fill="#93815D"/>
<path d="M44.2016 136.643C44.2016 137.144 43.94 137.406 43.3951 137.471L42.3271 137.624C41.6704 137.732 41.0083 137.805 40.3437 137.842L38.1642 137.973L35.5269 137.994C33.8321 138.039 32.1407 137.818 30.5139 137.341C29.1578 136.94 27.9853 136.076 27.201 134.899C26.3138 133.4 25.8963 131.669 26.0022 129.93V116.199C25.8999 114.453 26.317 112.716 27.201 111.208C27.9761 109.999 29.1473 109.098 30.5139 108.658C32.15 108.189 33.8472 107.968 35.5487 108.004C38.1817 107.978 40.8126 108.161 43.4169 108.549C43.6523 108.569 43.878 108.652 44.0708 108.788C44.1944 108.958 44.2489 109.168 44.2234 109.377V111.84C44.2277 111.943 44.2083 112.045 44.1667 112.14C44.1252 112.234 44.0625 112.318 43.9836 112.385C43.9102 112.461 43.8221 112.521 43.7247 112.562C43.6274 112.604 43.5227 112.625 43.4169 112.624H34.873C33.9656 112.529 33.0571 112.795 32.3447 113.365C32.0536 113.771 31.8459 114.23 31.7337 114.717C31.6214 115.203 31.6069 115.707 31.6909 116.199V120.558H42.8938C43.0022 120.504 43.1216 120.476 43.2426 120.476C43.3635 120.476 43.4829 120.504 43.5913 120.558C43.6707 120.629 43.7334 120.716 43.7748 120.814C43.8163 120.912 43.8355 121.018 43.831 121.125V123.958C43.8313 124.066 43.808 124.172 43.7628 124.27C43.7177 124.368 43.6517 124.455 43.5695 124.525C43.4184 124.674 43.2155 124.76 43.0028 124.764H31.6909V129.93C31.5931 130.875 31.8494 131.822 32.4101 132.589C33.1278 133.149 34.032 133.414 34.9384 133.33H43.3951C43.6093 133.317 43.8203 133.387 43.9836 133.526C44.0585 133.604 44.1165 133.697 44.154 133.798C44.1915 133.899 44.2077 134.007 44.2016 134.115V136.643Z" fill="#93815D"/>
<path d="M70.6178 108.897C70.6265 108.999 70.6265 109.101 70.6178 109.202L64.2535 122.955C63.8019 124.203 62.9001 125.237 61.7252 125.854V136.926C61.7255 137.032 61.7044 137.137 61.6632 137.234C61.622 137.332 61.5616 137.42 61.4855 137.493C61.3377 137.632 61.1431 137.709 60.9406 137.711H56.7994C56.5905 137.709 56.3894 137.631 56.2327 137.493C56.1595 137.419 56.1024 137.33 56.0649 137.232C56.0275 137.135 56.0104 137.031 56.0148 136.926V125.854C54.8399 125.237 53.9381 124.203 53.4865 122.955L47.2529 109.202C47.234 109.102 47.234 108.998 47.2529 108.897C47.246 108.816 47.2582 108.734 47.2885 108.659C47.3187 108.583 47.3663 108.515 47.4273 108.461C47.4925 108.404 47.5687 108.362 47.6512 108.335C47.7337 108.309 47.8207 108.3 47.9068 108.309H52.5057C52.6868 108.317 52.8606 108.382 53.0017 108.496C53.1429 108.61 53.244 108.766 53.2903 108.941L58.2597 120.732C58.4777 121.255 58.7174 121.517 58.9572 121.517C59.1969 121.517 59.4803 121.255 59.6982 120.732L64.6676 108.941C64.7107 108.764 64.8109 108.606 64.9528 108.492C65.0946 108.378 65.2702 108.313 65.4523 108.309H69.9858C70.1661 108.295 70.3451 108.349 70.4871 108.461C70.5417 108.519 70.582 108.588 70.6048 108.664C70.6275 108.739 70.632 108.819 70.6178 108.897Z" fill="#93815D"/>
<path d="M100.718 137.101C100.718 137.515 100.5 137.711 100.02 137.711H95.9007C95.8115 137.707 95.7243 137.683 95.6452 137.642C95.5661 137.601 95.4971 137.542 95.443 137.471C95.3174 137.317 95.2482 137.125 95.2468 136.926V118.531C95.2468 118.248 95.2468 118.117 95.116 118.117C94.9853 118.117 95.116 118.117 94.9199 118.378L90.9313 125.92C90.7999 126.145 90.6072 126.328 90.3756 126.447C90.144 126.567 89.8832 126.618 89.6236 126.595H85.3734C85.1138 126.618 84.8529 126.567 84.6214 126.447C84.3898 126.328 84.197 126.145 84.0657 125.92L80.0335 118.378C79.9463 118.204 79.8809 118.117 79.8373 118.117C79.8373 118.117 79.7284 118.248 79.7284 118.531V136.926C79.7289 137.129 79.6508 137.325 79.5104 137.471C79.4563 137.542 79.3872 137.601 79.3082 137.642C79.2291 137.683 79.1419 137.707 79.0527 137.711H74.8679C74.4102 137.711 74.1705 137.515 74.1705 137.101V109.878C74.1663 109.669 74.2069 109.462 74.2896 109.27C74.3723 109.078 74.4952 108.907 74.65 108.766C74.9665 108.464 75.3896 108.3 75.8269 108.309H79.2053C79.5258 108.301 79.8419 108.385 80.1161 108.551C80.3903 108.717 80.6113 108.958 80.7527 109.246L86.9863 121.364C87.1824 121.735 87.335 121.931 87.444 121.931C87.553 121.931 87.7055 121.735 87.9017 121.364L94.1352 109.246C94.2767 108.958 94.4977 108.717 94.7719 108.551C95.0461 108.385 95.3622 108.301 95.6827 108.309H99.0611C99.4984 108.3 99.9215 108.464 100.238 108.766C100.393 108.907 100.516 109.078 100.598 109.27C100.681 109.462 100.722 109.669 100.718 109.878V137.101Z" fill="#93815D"/>
<path d="M124.235 136.643C124.235 137.144 123.952 137.406 123.407 137.471L122.339 137.624C121.682 137.733 121.02 137.806 120.355 137.842L118.176 137.973L115.517 137.994C113.813 138.034 112.114 137.806 110.482 137.319C109.132 136.917 107.967 136.053 107.191 134.878C106.296 133.381 105.871 131.649 105.97 129.908V116.199C105.874 114.451 106.299 112.714 107.191 111.208C107.971 110.032 109.134 109.162 110.482 108.745C112.118 108.276 113.815 108.056 115.517 108.091C118.15 108.066 120.781 108.248 123.385 108.636C123.622 108.648 123.85 108.731 124.039 108.875C124.17 109.042 124.233 109.253 124.213 109.464V111.84C124.213 111.942 124.192 112.043 124.15 112.137C124.109 112.231 124.049 112.315 123.973 112.385C123.814 112.536 123.604 112.621 123.385 112.624H114.994C114.086 112.526 113.177 112.793 112.465 113.365C112.159 113.764 111.936 114.221 111.808 114.707C111.681 115.194 111.653 115.701 111.724 116.199V120.558H122.949C123.166 120.553 123.376 120.631 123.538 120.776C123.614 120.849 123.674 120.937 123.715 121.035C123.756 121.132 123.778 121.237 123.777 121.343V124.176C123.778 124.284 123.754 124.39 123.709 124.488C123.664 124.586 123.598 124.673 123.516 124.743C123.362 124.889 123.161 124.974 122.949 124.982H111.724V129.93C111.633 130.878 111.897 131.825 112.465 132.589C113.181 133.153 114.087 133.419 114.994 133.33H123.429C123.649 133.318 123.867 133.388 124.039 133.526C124.114 133.604 124.172 133.697 124.209 133.798C124.247 133.899 124.263 134.007 124.257 134.115L124.235 136.643Z" fill="#93815D"/>
<path d="M152.264 136.12C152.267 136.332 152.226 136.542 152.144 136.737C152.061 136.932 151.939 137.108 151.785 137.253C151.468 137.555 151.045 137.72 150.608 137.711H146.423C145.909 137.733 145.396 137.644 144.919 137.449C144.452 137.193 144.096 136.774 143.916 136.272L134.741 117.027C134.639 116.809 134.508 116.7 134.348 116.7C134.188 116.7 134.123 116.809 134.152 117.027V136.926C134.152 137.032 134.131 137.137 134.09 137.234C134.049 137.332 133.988 137.42 133.912 137.493C133.764 137.632 133.57 137.709 133.367 137.711H129.858C129.646 137.707 129.443 137.621 129.292 137.471C129.21 137.406 129.144 137.323 129.099 137.229C129.053 137.134 129.03 137.031 129.03 136.926V109.878C129.026 109.669 129.066 109.462 129.149 109.27C129.232 109.078 129.355 108.907 129.51 108.766C129.826 108.464 130.249 108.3 130.687 108.309H135.046C135.427 108.288 135.805 108.379 136.135 108.57C136.46 108.839 136.715 109.183 136.876 109.573L146.51 129.93C146.51 130.126 146.728 130.235 146.859 130.235C146.99 130.235 147.055 130.104 147.055 129.865V109.05C147.05 108.952 147.067 108.854 147.104 108.763C147.142 108.673 147.2 108.592 147.273 108.527C147.347 108.452 147.435 108.395 147.533 108.357C147.631 108.319 147.735 108.303 147.84 108.309H151.48C151.584 108.303 151.689 108.319 151.786 108.357C151.884 108.395 151.973 108.452 152.046 108.527C152.119 108.592 152.177 108.673 152.215 108.763C152.253 108.854 152.269 108.952 152.264 109.05V136.12Z" fill="#93815D"/>
</svg>
