<svg width="79" height="84" viewBox="0 0 79 84" fill="none" xmlns="http://www.w3.org/2000/svg">
<path d="M46.2527 1.65512C53.8957 3.51186 60.9162 7.51593 66.4386 13.278C73.972 21.1382 78.1148 31.641 77.9748 42.5241C77.8349 53.4072 73.4233 63.8001 65.6902 71.4643C57.9576 79.1281 47.5224 83.4503 36.6319 83.5C31.1903 83.4998 25.9717 81.3395 22.124 77.4941C18.2761 73.6487 16.1145 68.4332 16.1145 62.9951C16.1145 57.557 18.2761 52.3415 22.124 48.496C25.9712 44.6512 31.1892 42.4908 36.6301 42.4902C42.2743 42.5413 47.7126 40.374 51.7729 36.4553C55.8338 32.5361 58.1909 27.179 58.336 21.5389C58.4811 15.8989 56.4026 10.4278 52.5486 6.30519C50.735 4.36507 48.5965 2.79675 46.2527 1.65512ZM31.6841 70.4165C33.1488 71.3946 34.8709 71.9167 36.6325 71.9167C38.9948 71.9167 41.2603 70.9789 42.9308 69.3095C44.6012 67.64 45.5397 65.3758 45.5397 63.0147C45.5397 61.254 45.0173 59.5329 44.0385 58.0689C43.0598 56.605 41.6686 55.4641 40.0411 54.7903C38.4135 54.1166 36.6226 53.9403 34.8949 54.2838C33.1671 54.6273 31.58 55.475 30.3343 56.72C29.0886 57.9649 28.2402 59.5511 27.8965 61.278C27.5527 63.0048 27.7292 64.7948 28.4034 66.4215C29.0776 68.0481 30.2193 69.4384 31.6841 70.4165Z" stroke="#93815D"/>
<path d="M40.6682 32.573H40.6683L40.6683 32.5683C40.673 29.2402 39.8963 25.9588 38.4022 22.9875C39.8717 20.5778 41.8769 18.537 44.2635 17.0241C46.7208 15.4665 49.5124 14.513 52.4094 14.2417H53.7612H53.7953C54.6281 16.3908 55.0535 18.677 55.0487 20.9836C55.0371 24.0283 54.2666 27.0206 52.8087 29.6909C48.3009 30.0046 44.016 31.7305 40.5573 34.6088C40.6239 33.9324 40.6609 33.2531 40.6682 32.573Z" stroke="#93815D"/>
<path d="M15.1505 22.2377C15.3021 24.8667 15.9337 27.4436 17.0119 29.8418C13.9561 30.107 10.9894 31.0223 8.312 32.5296C5.70244 33.9987 3.43165 35.9943 1.64193 38.3856C0.878143 36.0363 0.594403 33.5541 0.811418 31.087C1.05614 28.3049 1.93123 25.6149 3.37041 23.2208C4.80959 20.8268 6.77511 18.7914 9.1181 17.269C11.2369 15.8922 13.614 14.9676 16.1006 14.5494C15.3232 17.0318 15.0006 19.6364 15.1505 22.2377Z" stroke="#93815D"/>
<path d="M36.6184 27.0152C37.173 28.8526 37.4342 30.7689 37.3897 32.6933L37.3896 32.6933V32.7049V32.709V32.7132V32.7173V32.7214V32.7256V32.7297V32.7338V32.7379V32.7421V32.7462V32.7503V32.7544V32.7586V32.7627V32.7668V32.7709V32.775V32.7791V32.7832V32.7873V32.7914V32.7955V32.7997V32.8038V32.8078V32.8119V32.816V32.8201V32.8242V32.8283V32.8324V32.8365V32.8406V32.8447V32.8487V32.8528V32.8569V32.861V32.865V32.8691V32.8732V32.8773V32.8813V32.8854V32.8895V32.8935V32.8976V32.9016V32.9057V32.9097V32.9138V32.9179V32.9219V32.926V32.93V32.9341V32.9381V32.9421V32.9462V32.9502V32.9543V32.9583V32.9623V32.9664V32.9704V32.9744V32.9785V32.9825V32.9865V32.9905V32.9946V32.9986V33.0026V33.0066V33.0106V33.0147V33.0187V33.0227V33.0267V33.0307V33.0347V33.0387V33.0427V33.0467V33.0507V33.0547V33.0587V33.0627V33.0667V33.0707V33.0747V33.0787V33.0827V33.0867V33.0907V33.0946V33.0986V33.1026V33.1066V33.1106V33.1145V33.1185V33.1225V33.1265V33.1304V33.1344V33.1384V33.1423V33.1463V33.1503V33.1542V33.1582V33.1622V33.1661V33.1701V33.174V33.178V33.182V33.1859V33.1899V33.1938V33.1978V33.2017V33.2056V33.2096V33.2135V33.2175V33.2214V33.2254V33.2293V33.2332V33.2372V33.2411V33.245V33.249V33.2529V33.2568V33.2607V33.2647V33.2686V33.2725V33.2764V33.2804V33.2843V33.2882V33.2921V33.296V33.2999V33.3039V33.3078V33.3117V33.3156V33.3195V33.3234V33.3273V33.3312V33.3351V33.339V33.3429V33.3468V33.3507V33.3546V33.3585V33.3624V33.3663V33.3702V33.3741V33.378V33.3818V33.3857V33.3896V33.3935V33.3974V33.4013V33.4051V33.409V33.4129V33.4168V33.4207V33.4245V33.4284V33.4323V33.4361V33.44V33.4439V33.4478V33.4516V33.4555V33.4594V33.4632V33.4671V33.4709V33.4748V33.4787V33.4825V33.4864V33.4902V33.4941V33.4979V33.5018V33.5056V33.5095V33.5133V33.5172V33.521V33.5249V33.5287V33.5326V33.5364V33.5402V33.5441V33.5479V33.5518V33.5556V33.5594V33.5633V33.5671V33.5709V33.5748V33.5786V33.5824V33.5863V33.5901V33.5939V33.5977V33.6016V33.6054V33.6092V33.613V33.6169V33.6207V33.6245V33.6283V33.6321V33.6359V33.6398V33.6436V33.6474V33.6512V33.655V33.6588V33.6626V33.6664V33.6702V33.6741V33.6779V33.6817V33.6855V33.6893V33.6931V33.6969V33.7007V33.7045V33.7083V33.7121V33.7159V33.7197V33.7235V33.7272V33.731V33.7348V33.7386V33.7424V33.7462V33.75V33.7538V33.7576V33.7613V33.7651V33.7689V33.7727V33.7765V33.7803V33.784V33.7878V33.7916V33.7954V33.7992V33.8029V33.8067V33.8105V33.8143V33.818V33.8218V33.8256V33.8293V33.8331V33.8369V33.8407V33.8444V33.8482V33.852V33.8557V33.8595V33.8633V33.867V33.8708V33.8745V33.8783V33.8821V33.8858V33.8896V33.8933V33.8971V33.9008V33.9046V33.9084V33.9121V33.9159V33.9196V33.9234V33.9271V33.9309V33.9346V33.9384V33.9421V33.9459V33.9496V33.9534V33.9571V33.9609V33.9646V33.9683V33.9721V33.9758V33.9796V33.9833V33.9871V33.9908V33.9945V33.9983V34.002V34.0057V34.0095V34.0132V34.017V34.0207V34.0244V34.0282V34.0319V34.0356V34.0394V34.0431V34.0468V34.0505V34.0543V34.058V34.0617V34.0655V34.0692V34.0729V34.0766V34.0804V34.0841V34.0878V34.0915V34.0953V34.099V34.1027V34.1064V34.1101V34.1139V34.1176V34.1213V34.125V34.1287V34.1325V34.1362V34.1399V34.1436V34.1473V34.151V34.1548V34.1585V34.1622V34.1659V34.1696V34.1733V34.177V34.1807V34.1845V34.1882V34.1919V34.1956V34.1993V34.203V34.2067V34.2104V34.2141V34.2178V34.2215V34.2253V34.229V34.2327V34.2364V34.2401V34.2438V34.2475V34.2512V34.2549V34.2586V34.2623V34.266V34.2697V34.2734V34.2771V34.2808V34.2845V34.2882V34.2919V34.2956V34.2993V34.303V34.3067V34.3104V34.3141V34.3178V34.3215V34.3252V34.3289V34.3326V34.3363V34.34V34.3436V34.3473V34.351V34.3547V34.3584V34.3621V34.3658V34.3695V34.3732V34.3769V34.3806V34.3843V34.388V34.3917V34.3953V34.399V34.4027V34.4064V34.4101V34.4138V34.4175V34.4212V34.4249V34.4285V34.4322V34.4359V34.4396V34.4433V34.447V34.4507V34.4544V34.458V34.4617V34.4654V34.4691V34.4728V34.4765V34.4802V34.4838V34.4875V34.4912V34.4949V34.4986V34.5023V34.506V34.5096V34.5133V34.517V34.5207V34.5244V34.5281V34.5317V34.5354V34.5391V34.5428V34.5465V34.5502V34.5538V34.5575V34.5612V34.5649V34.5686V34.5722V34.5759V34.5796V34.5833V34.587V34.5907V34.5943V34.598V34.6017V34.6054V34.6091V34.6127V34.6164V34.6201V34.6238V34.6275V34.6311V34.6348V34.6385V34.6422V34.6435C37.2586 35.97 36.9789 37.277 36.556 38.5398C36.137 37.2759 35.8558 35.9691 35.7182 34.6423V34.639V34.6349V34.6308V34.6266V34.6225V34.6184V34.6143V34.6102V34.606V34.6019V34.5978V34.5937V34.5896V34.5855V34.5814V34.5773V34.5732V34.5691V34.565V34.5609V34.5568V34.5527V34.5486V34.5445V34.5404V34.5363V34.5323V34.5282V34.5241V34.52V34.5159V34.5119V34.5078V34.5037V34.4997V34.4956V34.4915V34.4874V34.4834V34.4793V34.4753V34.4712V34.4671V34.4631V34.459V34.455V34.4509V34.4469V34.4428V34.4388V34.4347V34.4307V34.4267V34.4226V34.4186V34.4145V34.4105V34.4065V34.4024V34.3984V34.3944V34.3903V34.3863V34.3823V34.3783V34.3743V34.3702V34.3662V34.3622V34.3582V34.3542V34.3502V34.3461V34.3421V34.3381V34.3341V34.3301V34.3261V34.3221V34.3181V34.3141V34.3101V34.3061V34.3021V34.2981V34.2941V34.2902V34.2862V34.2822V34.2782V34.2742V34.2702V34.2662V34.2623V34.2583V34.2543V34.2503V34.2464V34.2424V34.2384V34.2345V34.2305V34.2265V34.2226V34.2186V34.2146V34.2107V34.2067V34.2028V34.1988V34.1948V34.1909V34.1869V34.183V34.179V34.1751V34.1711V34.1672V34.1632V34.1593V34.1554V34.1514V34.1475V34.1435V34.1396V34.1357V34.1317V34.1278V34.1239V34.1199V34.116V34.1121V34.1082V34.1042V34.1003V34.0964V34.0925V34.0886V34.0846V34.0807V34.0768V34.0729V34.069V34.0651V34.0612V34.0573V34.0533V34.0494V34.0455V34.0416V34.0377V34.0338V34.0299V34.026V34.0221V34.0182V34.0143V34.0104V34.0065V34.0027V33.9988V33.9949V33.991V33.9871V33.9832V33.9793V33.9755V33.9716V33.9677V33.9638V33.9599V33.9561V33.9522V33.9483V33.9444V33.9406V33.9367V33.9328V33.9289V33.9251V33.9212V33.9173V33.9135V33.9096V33.9058V33.9019V33.898V33.8942V33.8903V33.8865V33.8826V33.8788V33.8749V33.871V33.8672V33.8633V33.8595V33.8556V33.8518V33.848V33.8441V33.8403V33.8364V33.8326V33.8287V33.8249V33.8211V33.8172V33.8134V33.8096V33.8057V33.8019V33.7981V33.7942V33.7904V33.7866V33.7827V33.7789V33.7751V33.7713V33.7674V33.7636V33.7598V33.756V33.7522V33.7483V33.7445V33.7407V33.7369V33.7331V33.7293V33.7254V33.7216V33.7178V33.714V33.7102V33.7064V33.7026V33.6988V33.695V33.6912V33.6874V33.6836V33.6798V33.676V33.6722V33.6684V33.6646V33.6608V33.657V33.6532V33.6494V33.6456V33.6418V33.638V33.6342V33.6304V33.6266V33.6228V33.6191V33.6153V33.6115V33.6077V33.6039V33.6001V33.5964V33.5926V33.5888V33.585V33.5812V33.5775V33.5737V33.5699V33.5661V33.5623V33.5586V33.5548V33.551V33.5473V33.5435V33.5397V33.5359V33.5322V33.5284V33.5246V33.5209V33.5171V33.5133V33.5096V33.5058V33.5021V33.4983V33.4945V33.4908V33.487V33.4833V33.4795V33.4757V33.472V33.4682V33.4645V33.4607V33.457V33.4532V33.4495V33.4457V33.442V33.4382V33.4345V33.4307V33.427V33.4232V33.4195V33.4157V33.412V33.4082V33.4045V33.4008V33.397V33.3933V33.3895V33.3858V33.382V33.3783V33.3746V33.3708V33.3671V33.3634V33.3596V33.3559V33.3521V33.3484V33.3447V33.3409V33.3372V33.3335V33.3298V33.326V33.3223V33.3186V33.3148V33.3111V33.3074V33.3037V33.2999V33.2962V33.2925V33.2887V33.285V33.2813V33.2776V33.2739V33.2701V33.2664V33.2627V33.259V33.2552V33.2515V33.2478V33.2441V33.2404V33.2367V33.2329V33.2292V33.2255V33.2218V33.2181V33.2144V33.2106V33.2069V33.2032V33.1995V33.1958V33.1921V33.1884V33.1847V33.181V33.1772V33.1735V33.1698V33.1661V33.1624V33.1587V33.155V33.1513V33.1476V33.1439V33.1402V33.1365V33.1328V33.1291V33.1254V33.1217V33.1179V33.1142V33.1105V33.1068V33.1031V33.0994V33.0957V33.092V33.0883V33.0846V33.0809V33.0772V33.0735V33.0698V33.0661V33.0624V33.0588V33.0551V33.0514V33.0477V33.044V33.0403V33.0366V33.0329V33.0292V33.0255V33.0218V33.0181V33.0144V33.0107V33.007V33.0033V32.9996V32.9959V32.9923V32.9886V32.9849V32.9812V32.9775V32.9738V32.9701V32.9664V32.9627V32.959V32.9554V32.9517V32.948V32.9443V32.9406V32.9369V32.9332V32.9295V32.9259V32.9222V32.9185V32.9148V32.9111V32.9074V32.9037V32.9V32.8964V32.8927V32.889V32.8853V32.8816V32.8779V32.8743V32.8706V32.8669V32.8632V32.8595V32.8558V32.8521V32.8485V32.8448V32.8411V32.8374V32.8337V32.83V32.8264V32.8227V32.819V32.8153V32.8116V32.808V32.8043V32.8006V32.7969V32.7932V32.7895V32.7859V32.7822V32.7785V32.7748V32.7711V32.7675V32.7638V32.7601V32.7564V32.7527V32.749V32.7454V32.7417V32.738V32.7343V32.7306V32.727V32.7233V32.7196V32.7159V32.7122V32.7086V32.7052C35.7204 30.7705 36.025 28.8509 36.6184 27.0152Z" stroke="#93815D"/>
<path d="M43.524 14.0298C40.8053 15.5615 38.4547 17.664 36.6325 20.1891C34.8102 17.664 32.4597 15.5615 29.741 14.0298C27.05 12.5136 24.067 11.5953 20.9953 11.3334C22.5715 8.79166 24.7468 6.66882 27.3357 5.1536C30.1556 3.50323 33.3646 2.6333 36.6325 2.6333C39.9004 2.6333 43.1093 3.50323 45.9292 5.1536C48.5182 6.66882 50.6935 8.79166 52.2696 11.3334C49.198 11.5953 46.215 12.5136 43.524 14.0298Z" stroke="#93815D"/>
<path d="M47.3681 34.1697C48.3346 33.7795 49.3319 33.4723 50.3491 33.2511C47.8057 36.0405 44.4644 37.9814 40.781 38.8097L41.0285 38.5388L41.0464 38.5192L41.062 38.498C41.0873 38.4636 41.1176 38.4333 41.152 38.408L41.187 38.3823L41.217 38.3509L41.6371 37.912L41.8403 37.7275L41.8411 37.7267L42.2871 37.3198L42.4186 37.2071L42.4257 37.201L42.4326 37.1947C42.5927 37.0468 42.7613 36.9084 42.9375 36.7801L42.9376 36.7802L42.9432 36.7759L43.1004 36.6581L43.1004 36.6582L43.1093 36.6513L43.6503 36.2265L43.7734 36.1386L44.3637 35.739C44.4579 35.6836 44.551 35.6244 44.6346 35.5714C44.6597 35.5554 44.684 35.54 44.7072 35.5253C44.8175 35.4559 44.9132 35.3981 45.0079 35.3508L45.067 35.3213L45.1164 35.2774C45.1408 35.2558 45.1684 35.2382 45.1983 35.2253L45.2206 35.2157L45.2419 35.204L45.8091 34.8912C46.3127 34.6209 46.8319 34.3806 47.3638 34.1714L47.3638 34.1714L47.3681 34.1697Z" stroke="#93815D"/>
<path d="M22.9354 33.2895C26.6871 34.1239 30.0854 36.1105 32.652 38.9695C28.9022 38.1301 25.5054 36.1444 22.9354 33.2895Z" stroke="#93815D"/>
<path d="M32.6164 32.706L32.6164 32.7053C32.6148 29.3799 33.3847 26.1007 34.8643 23.125C33.2493 20.4515 30.9786 18.2318 28.2651 16.6771C25.5708 15.1334 22.531 14.2974 19.4294 14.2444C18.6042 16.3749 18.1793 18.6403 18.177 20.9267L32.6164 32.706ZM32.6164 32.706C32.6177 33.3819 32.6518 34.0571 32.7186 34.7292M32.6164 32.706L32.7186 34.7292M32.7186 34.7292C29.2594 31.8231 24.9622 30.0751 20.4364 29.7504C18.9538 27.047 18.176 24.0125 18.177 20.9268L32.7186 34.7292Z" stroke="#93815D"/>
<path d="M9.73402 35.3193C12.4594 33.747 15.5409 32.8989 18.6845 32.8535C21.0675 36.4504 24.4693 39.2437 28.4424 40.8848C23.4085 42.7469 19.1466 46.2717 16.3752 50.8908C13.6342 50.4779 11.0202 49.4516 8.72931 47.8869C6.4257 46.3136 4.51098 44.2385 3.12848 41.8194C4.73955 39.1272 7.01275 36.8891 9.73402 35.3193Z" stroke="#93815D"/>
<path d="M13.7408 68.8634C11.4769 68.2029 9.3585 67.1127 7.50269 65.6496C5.4212 64.0086 3.71922 61.9375 2.5133 59.578C1.30739 57.2185 0.626034 54.6264 0.515886 51.9793C0.418899 49.6484 0.76679 47.3234 1.53788 45.1275C3.08265 47.3004 5.01958 49.1701 7.25196 50.6389C9.56064 52.1579 12.1384 53.2174 14.8439 53.7618C12.8376 58.542 12.4513 63.8461 13.7408 68.8634Z" stroke="#93815D"/>
</svg>
