<svg width="102" height="20" viewBox="0 0 102 20" fill="none" xmlns="http://www.w3.org/2000/svg">
<path d="M14.8937 19.575C14.8937 19.7348 14.7484 19.8075 14.4723 19.8075H10.7816C10.661 19.8188 10.5396 19.7978 10.4298 19.7468C10.32 19.6957 10.2258 19.6164 10.1568 19.5169L3.83603 10.5226V19.2408C3.83607 19.3106 3.82042 19.3794 3.79024 19.4423C3.76006 19.5052 3.71611 19.5605 3.66166 19.6041C3.55935 19.7015 3.42504 19.7583 3.28387 19.7639H0.552156C0.410985 19.7583 0.276684 19.7015 0.174365 19.6041C0.125288 19.5653 0.0845497 19.5169 0.0545887 19.462C0.0246277 19.4071 0.00606079 19.3467 0 19.2844L0 0.729058C0.00108412 0.661582 0.017316 0.595206 0.0474964 0.534846C0.0776767 0.474485 0.121034 0.421679 0.174365 0.380326C0.224036 0.331535 0.283197 0.293464 0.348182 0.26847C0.413167 0.243476 0.482592 0.232093 0.552156 0.235024H3.28387C3.42839 0.231646 3.56874 0.283624 3.67619 0.380326C3.72474 0.42486 3.76389 0.478654 3.79134 0.538543C3.81879 0.598432 3.83399 0.66321 3.83603 0.729058V9.12764L10.5927 0.409387C10.675 0.325948 10.7757 0.262815 10.8866 0.224986C10.9976 0.187157 11.1158 0.175669 11.232 0.191429H14.3706C14.7193 0.191429 14.8937 0.293144 14.8937 0.5111C14.8804 0.668935 14.8138 0.817546 14.7048 0.932483L7.62847 9.65073L14.7629 19.1972C14.841 19.3084 14.8863 19.4393 14.8937 19.575Z" fill="#93815D"/>
<path d="M29.4677 19.0954C29.4677 19.4296 29.2933 19.604 28.9301 19.6476L28.2181 19.7493C27.7802 19.8213 27.3388 19.8698 26.8958 19.8946L25.4428 19.9817L23.6846 19.9963C22.5547 20.0259 21.4271 19.8788 20.3426 19.5604C19.4385 19.2933 18.6569 18.7173 18.134 17.933C17.5425 16.9333 17.2642 15.7794 17.3348 14.62V5.46587C17.2666 4.30211 17.5447 3.14423 18.134 2.1384C18.6507 1.33272 19.4315 0.731741 20.3426 0.438347C21.4333 0.125855 22.5648 -0.0210866 23.6991 0.00243608C25.4544 -0.0144259 27.2084 0.107037 28.9446 0.365696C29.1015 0.379295 29.252 0.434462 29.3805 0.525526C29.4629 0.638679 29.4993 0.778909 29.4822 0.917848V2.55979C29.4851 2.62852 29.4722 2.697 29.4445 2.75997C29.4168 2.82294 29.375 2.87872 29.3224 2.92305C29.2734 2.97377 29.2147 3.01408 29.1498 3.04154C29.0849 3.06901 29.0151 3.08307 28.9446 3.08288H23.2487C22.6437 3.01924 22.038 3.19676 21.5631 3.57692C21.3691 3.84725 21.2306 4.15342 21.1558 4.47768C21.0809 4.80194 21.0712 5.13783 21.1272 5.46587V8.37195H28.5959C28.6681 8.3361 28.7477 8.31745 28.8283 8.31745C28.909 8.31745 28.9886 8.3361 29.0608 8.37195C29.1138 8.41918 29.1556 8.47756 29.1832 8.54289C29.2108 8.60822 29.2236 8.67887 29.2207 8.74974V10.6387C29.2208 10.7106 29.2053 10.7816 29.1752 10.8468C29.1451 10.9121 29.1011 10.97 29.0463 11.0165C28.9456 11.1163 28.8103 11.1735 28.6685 11.1763H21.1272V14.62C21.0621 15.2499 21.2329 15.8816 21.6067 16.3927C22.0852 16.766 22.688 16.9427 23.2923 16.8868H28.9301C29.0728 16.8779 29.2135 16.9248 29.3224 17.0175C29.3723 17.0694 29.411 17.131 29.436 17.1986C29.461 17.2661 29.4718 17.338 29.4677 17.4099V19.0954Z" fill="#93815D"/>
<path d="M47.0785 0.598097C47.0843 0.665782 47.0843 0.733837 47.0785 0.801522L42.8357 9.97021C42.5346 10.8021 41.9334 11.4914 41.1501 11.9028V19.2842C41.1503 19.3547 41.1363 19.4245 41.1088 19.4894C41.0813 19.5543 41.041 19.613 40.9903 19.662C40.8918 19.7543 40.7621 19.8062 40.627 19.8073H37.8663C37.727 19.8057 37.5929 19.7541 37.4885 19.662C37.4397 19.6123 37.4016 19.5532 37.3766 19.4882C37.3516 19.4232 37.3402 19.3538 37.3432 19.2842V11.9028C36.5599 11.4914 35.9587 10.8021 35.6576 9.97021L31.5019 0.801522C31.4893 0.734299 31.4893 0.665321 31.5019 0.598097C31.4973 0.54395 31.5054 0.489472 31.5256 0.439016C31.5458 0.38856 31.5775 0.343521 31.6182 0.307488C31.6617 0.26955 31.7125 0.240943 31.7675 0.223446C31.8224 0.20595 31.8804 0.199938 31.9379 0.205776H35.0038C35.1245 0.211062 35.2404 0.254799 35.3345 0.330607C35.4286 0.406416 35.496 0.51032 35.5269 0.627153L38.8398 8.48811C38.9851 8.83684 39.1449 9.0112 39.3048 9.0112C39.4646 9.0112 39.6535 8.83684 39.7988 8.48811L43.1117 0.627153C43.1405 0.509171 43.2073 0.403951 43.3018 0.327775C43.3964 0.251599 43.5134 0.20872 43.6348 0.205776H46.6572C46.7774 0.196451 46.8967 0.232767 46.9914 0.307488C47.0278 0.345615 47.0547 0.391817 47.0698 0.442325C47.085 0.492833 47.088 0.546214 47.0785 0.598097Z" fill="#93815D"/>
<path d="M67.145 19.4006C67.145 19.6767 66.9997 19.8074 66.68 19.8074H63.9338C63.8743 19.8047 63.8162 19.789 63.7635 19.7614C63.7108 19.7338 63.6647 19.6949 63.6287 19.6476C63.5449 19.545 63.4988 19.4168 63.4979 19.2843V7.02067C63.4979 6.83177 63.4979 6.74459 63.4107 6.74459C63.3235 6.74459 63.4107 6.74459 63.2799 6.91896L60.6209 11.9465C60.5333 12.0966 60.4048 12.2186 60.2504 12.2984C60.096 12.3782 59.9221 12.4123 59.749 12.3969H56.9156C56.7425 12.4123 56.5686 12.3782 56.4142 12.2984C56.2599 12.2186 56.1314 12.0966 56.0438 11.9465L53.3557 6.91896C53.2975 6.80271 53.2539 6.74459 53.2249 6.74459C53.2249 6.74459 53.1522 6.83177 53.1522 7.02067V19.2843C53.1526 19.4197 53.1005 19.5499 53.0069 19.6476C52.9709 19.6949 52.9248 19.7338 52.8721 19.7614C52.8194 19.789 52.7612 19.8047 52.7018 19.8074H49.9119C49.6068 19.8074 49.447 19.6767 49.447 19.4006V1.25209C49.4442 1.1129 49.4713 0.974722 49.5264 0.846885C49.5816 0.719047 49.6635 0.604526 49.7666 0.511045C49.9776 0.309714 50.2597 0.200022 50.5513 0.205908H52.8035C53.0172 0.200629 53.2279 0.256668 53.4107 0.367395C53.5936 0.478122 53.7408 0.638905 53.8352 0.830716L57.9909 8.90962C58.1216 9.15664 58.2233 9.28742 58.296 9.28742C58.3686 9.28742 58.4704 9.15664 58.6011 8.90962L62.7568 0.830716C62.8511 0.638905 62.9984 0.478122 63.1813 0.367395C63.3641 0.256668 63.5748 0.200629 63.7885 0.205908H66.0407C66.3323 0.200022 66.6144 0.309714 66.8253 0.511045C66.9285 0.604526 67.0104 0.719047 67.0656 0.846885C67.1207 0.974722 67.1478 1.1129 67.145 1.25209V19.4006Z" fill="#93815D"/>
<path d="M82.8233 19.0954C82.8233 19.4296 82.6344 19.6039 82.2712 19.6475L81.5592 19.7493C81.1215 19.8221 80.68 19.8706 80.2369 19.8946L78.7839 19.9817L77.0112 19.9963C75.8756 20.0227 74.743 19.8707 73.6546 19.5458C72.7548 19.278 71.978 18.7018 71.4605 17.9184C70.864 16.9204 70.5806 15.7663 70.6468 14.6055V5.46586C70.583 4.30063 70.8662 3.14265 71.4605 2.13839C71.9809 1.35466 72.756 0.774661 73.6546 0.496458C74.7453 0.183966 75.8768 0.0370188 77.0112 0.0605415C78.7665 0.0436795 80.5204 0.165142 82.2566 0.423802C82.4148 0.431886 82.5667 0.487605 82.6926 0.583637C82.7801 0.694698 82.8217 0.835124 82.8088 0.975959V2.55977C82.8087 2.62808 82.7945 2.69564 82.767 2.75816C82.7395 2.82068 82.6993 2.87682 82.649 2.92303C82.543 3.02377 82.4029 3.08084 82.2566 3.08287H76.6624C76.0573 3.01762 75.451 3.19532 74.9769 3.5769C74.7727 3.8429 74.6238 4.14705 74.539 4.47145C74.4541 4.79586 74.4351 5.13396 74.4829 5.46586V8.37194H81.966C82.1106 8.36856 82.2509 8.42054 82.3584 8.51724C82.4091 8.56619 82.4494 8.6249 82.4769 8.68982C82.5043 8.75474 82.5184 8.82454 82.5182 8.89503V10.784C82.5184 10.8558 82.5028 10.9269 82.4727 10.9921C82.4426 11.0574 82.3986 11.1153 82.3438 11.1618C82.2415 11.2592 82.1072 11.316 81.966 11.3216H74.4829V14.62C74.4219 15.2518 74.598 15.8836 74.9769 16.3927C75.454 16.7687 76.0579 16.9457 76.6624 16.8868H82.2857C82.4328 16.8785 82.5778 16.9251 82.6926 17.0175C82.7425 17.0694 82.7811 17.131 82.8061 17.1985C82.8311 17.266 82.8419 17.338 82.8379 17.4099L82.8233 19.0954Z" fill="#93815D"/>
<path d="M101.509 18.7468C101.512 18.8881 101.484 19.0282 101.429 19.1583C101.374 19.2884 101.293 19.4056 101.19 19.5024C100.979 19.7037 100.697 19.8134 100.405 19.8075H97.6153C97.2724 19.8223 96.9304 19.7628 96.6127 19.6332C96.3015 19.4621 96.0637 19.183 95.9443 18.8485L89.827 6.01818C89.7592 5.87288 89.672 5.80023 89.5655 5.80023C89.4589 5.80023 89.4153 5.87288 89.4347 6.01818V19.2845C89.4349 19.3549 89.4208 19.4247 89.3933 19.4897C89.3659 19.5546 89.3256 19.6133 89.2748 19.6622C89.1763 19.7546 89.0466 19.8065 88.9116 19.8075H86.5722C86.4304 19.8048 86.2951 19.7475 86.1944 19.6477C86.1399 19.6041 86.096 19.5488 86.0658 19.4859C86.0356 19.4231 86.02 19.3542 86.02 19.2845V1.25221C86.0172 1.11301 86.0443 0.974833 86.0995 0.846996C86.1546 0.719159 86.2365 0.604637 86.3397 0.511157C86.5507 0.309826 86.8328 0.200134 87.1243 0.206019H90.0304C90.2844 0.192251 90.5369 0.252845 90.7569 0.380383C90.9735 0.559701 91.1431 0.789127 91.251 1.04878L97.6734 14.6202C97.6734 14.751 97.8187 14.8236 97.9059 14.8236C97.9931 14.8236 98.0367 14.7364 98.0367 14.5766V0.700054C98.0332 0.634749 98.0444 0.569495 98.0696 0.509128C98.0947 0.448761 98.1332 0.394826 98.182 0.351321C98.2311 0.301799 98.2902 0.263246 98.3553 0.238201C98.4204 0.213157 98.4901 0.202191 98.5598 0.206019H100.986C101.056 0.202191 101.126 0.213157 101.191 0.238201C101.256 0.263246 101.315 0.301799 101.364 0.351321C101.413 0.394826 101.451 0.448761 101.477 0.509128C101.502 0.569495 101.513 0.634749 101.509 0.700054V18.7468Z" fill="#93815D"/>
</svg>
