<svg width="128" height="16" viewBox="0 0 128 16" fill="none" xmlns="http://www.w3.org/2000/svg">
<path d="M11.4024 8.09195C11.4024 9.93103 9.93116 11.4023 8.09208 11.4023C6.253 11.4023 4.78174 9.93103 4.78174 8.09195C4.78174 6.25287 6.253 4.78161 8.09208 4.78161C9.93116 4.5977 11.4024 6.25287 11.4024 8.09195Z" fill="#93815D"/>
<path d="M3.31034 8.09195C3.31034 9.01149 2.57471 9.74712 1.65517 9.74712C0.735632 9.74712 0 9.01149 0 8.09195C0 7.17241 0.735632 6.43678 1.65517 6.43678C2.57471 6.43678 3.31034 7.17241 3.31034 8.09195Z" fill="#93815D"/>
<path d="M15.9998 8.09195C15.9998 9.01149 15.2642 9.74712 14.3446 9.74712C13.4251 9.74712 12.6895 9.01149 12.6895 8.09195C12.6895 7.17241 13.4251 6.43678 14.3446 6.43678C15.2642 6.43678 15.9998 7.17241 15.9998 8.09195Z" fill="#93815D"/>
<path d="M67.1036 8.09195C67.1036 9.93103 65.6323 11.4023 63.7933 11.4023C61.9542 11.4023 60.4829 9.93103 60.4829 8.09195C60.4829 6.25287 61.9542 4.78161 63.7933 4.78161C65.4484 4.5977 67.1036 6.25287 67.1036 8.09195Z" fill="#93815D"/>
<path d="M59.0115 8.09196C59.0115 9.0115 58.2759 9.74713 57.3563 9.74713C56.4368 9.74713 55.7012 9.0115 55.7012 8.09196C55.7012 7.17242 56.4368 6.43678 57.3563 6.43678C58.2759 6.43678 59.0115 7.17242 59.0115 8.09196Z" fill="#93815D"/>
<path d="M71.701 8.09196C71.701 9.0115 70.9653 9.74713 70.0458 9.74713C69.1263 9.74713 68.3906 9.0115 68.3906 8.09196C68.3906 7.17242 69.1263 6.43678 70.0458 6.43678C70.9653 6.43678 71.701 7.17242 71.701 8.09196Z" fill="#93815D"/>
<path d="M63.6093 3.31034C62.6897 3.31034 61.9541 2.57471 61.9541 1.65517C61.9541 0.735632 62.6897 0 63.6093 0C64.5288 0 65.2645 0.735632 65.2645 1.65517C65.2645 2.57471 64.5288 3.31034 63.6093 3.31034Z" fill="#93815D"/>
<path d="M63.6093 16C64.5234 16 65.2645 15.259 65.2645 14.3448C65.2645 13.4307 64.5234 12.6897 63.6093 12.6897C62.6951 12.6897 61.9541 13.4307 61.9541 14.3448C61.9541 15.259 62.6951 16 63.6093 16Z" fill="#93815D"/>
<path d="M56 7.72414H16V8.45977H56V7.72414Z" fill="#93815D"/>
<path d="M116 8.09195C116 6.25287 117.471 4.78161 119.31 4.78161C121.149 4.78161 122.621 6.25287 122.621 8.09195C122.621 9.93103 121.149 11.4023 119.31 11.4023C117.471 11.4023 116 9.93103 116 8.09195Z" fill="#93815D"/>
<path d="M123.908 8.09196C123.908 7.17242 124.643 6.43678 125.563 6.43678C126.482 6.43678 127.218 7.17242 127.218 8.09196C127.218 9.0115 126.482 9.74713 125.563 9.74713C124.827 9.74713 123.908 9.0115 123.908 8.09196Z" fill="#93815D"/>
<path d="M111.218 8.09196C111.218 7.17242 111.954 6.43678 112.873 6.43678C113.793 6.43678 114.529 7.17242 114.529 8.09196C114.529 9.0115 113.793 9.74713 112.873 9.74713C111.954 9.74713 111.218 9.0115 111.218 8.09196Z" fill="#93815D"/>
<path d="M111.701 7.72414H71.7012V8.45977H111.701V7.72414Z" fill="#93815D"/>
</svg>
