<svg width="1016" height="200" viewBox="0 0 1016 200" fill="none" xmlns="http://www.w3.org/2000/svg">
<path d="M148.937 195.749C148.937 197.348 147.484 198.074 144.723 198.074H107.816C106.61 198.187 105.396 197.978 104.298 197.467C103.2 196.956 102.258 196.163 101.568 195.168L38.3603 105.225V192.407C38.3607 193.105 38.2042 193.793 37.9024 194.422C37.6006 195.051 37.1611 195.604 36.6166 196.04C35.5935 197.014 34.2504 197.582 32.8387 197.638H5.52156C4.10985 197.582 2.76683 197.014 1.74365 196.04C1.25288 195.652 0.845497 195.169 0.545887 194.619C0.246277 194.07 0.0606079 193.466 0 192.843L0 7.28985C0.0108412 6.61508 0.17316 5.95133 0.474964 5.34773C0.776767 4.74412 1.21034 4.21606 1.74365 3.80253C2.24036 3.31462 2.83197 2.93391 3.48182 2.68397C4.13167 2.43403 4.82592 2.3202 5.52156 2.34951H32.8387C34.2839 2.31573 35.6874 2.83551 36.7619 3.80253C37.2474 4.24787 37.6389 4.7858 37.9134 5.3847C38.1879 5.98359 38.3399 6.63137 38.3603 7.28985V91.2756L105.927 4.09314C106.75 3.25875 107.757 2.62741 108.866 2.24913C109.976 1.87084 111.158 1.75596 112.32 1.91356H143.706C147.193 1.91356 148.937 2.9307 148.937 5.11027C148.804 6.68862 148.138 8.17473 147.048 9.3241L76.2847 96.5066L147.629 191.971C148.41 193.084 148.863 194.392 148.937 195.749Z" fill="white" fill-opacity="0.05"/>
<path d="M294.677 190.954C294.677 194.296 292.933 196.04 289.301 196.476L282.181 197.493C277.802 198.213 273.388 198.698 268.958 198.946L254.428 199.817L236.846 199.963C225.547 200.259 214.271 198.788 203.426 195.604C194.385 192.933 186.569 187.173 181.34 179.33C175.425 169.333 172.642 157.794 173.348 146.2V54.6587C172.666 43.0211 175.447 31.4423 181.34 21.384C186.507 13.3272 194.315 7.31741 203.426 4.38347C214.333 1.25855 225.648 -0.210866 236.991 0.0243608C254.544 -0.144259 272.084 1.07037 289.446 3.65696C291.015 3.79295 292.52 4.34462 293.805 5.25526C294.629 6.38679 294.993 7.78909 294.822 9.17848V25.5979C294.851 26.2852 294.722 26.97 294.445 27.5997C294.168 28.2294 293.75 28.7872 293.224 29.2305C292.734 29.7377 292.147 30.1408 291.498 30.4154C290.849 30.6901 290.151 30.8307 289.446 30.8288H232.487C226.437 30.1924 220.38 31.9676 215.631 35.7692C213.691 38.4725 212.306 41.5342 211.558 44.7768C210.809 48.0194 210.712 51.3783 211.272 54.6587V83.7195H285.959C286.681 83.361 287.477 83.1745 288.284 83.1745C289.09 83.1745 289.886 83.361 290.608 83.7195C291.138 84.1918 291.556 84.7756 291.832 85.4289C292.108 86.0822 292.236 86.7887 292.207 87.4974V106.387C292.208 107.106 292.053 107.816 291.752 108.468C291.451 109.121 291.011 109.7 290.463 110.165C289.456 111.163 288.103 111.735 286.685 111.763H211.272V146.2C210.621 152.499 212.329 158.816 216.067 163.927C220.852 167.66 226.88 169.427 232.923 168.868H289.301C290.728 168.779 292.135 169.248 293.224 170.175C293.723 170.694 294.11 171.31 294.36 171.986C294.61 172.661 294.718 173.38 294.677 174.099V190.954Z" fill="white" fill-opacity="0.05"/>
<path d="M470.785 5.98195C470.843 6.65879 470.843 7.33935 470.785 8.0162L428.357 99.703C425.346 108.022 419.334 114.915 411.501 119.028V192.843C411.503 193.548 411.363 194.246 411.088 194.895C410.813 195.544 410.41 196.131 409.903 196.621C408.918 197.544 407.621 198.063 406.27 198.074H378.663C377.27 198.058 375.929 197.542 374.885 196.621C374.397 196.124 374.016 195.533 373.766 194.883C373.516 194.233 373.402 193.539 373.432 192.843V119.028C365.599 114.915 359.587 108.022 356.576 99.703L315.019 8.0162C314.893 7.34396 314.893 6.65418 315.019 5.98195C314.973 5.44048 315.055 4.89569 315.256 4.39113C315.458 3.88657 315.775 3.43619 316.182 3.07586C316.617 2.69647 317.125 2.4104 317.675 2.23544C318.225 2.06048 318.805 2.00036 319.379 2.05873H350.038C351.245 2.11159 352.404 2.54897 353.345 3.30705C354.286 4.06513 354.96 5.10418 355.269 6.27251L388.398 84.8821C389.851 88.3694 391.449 90.113 393.048 90.113C394.646 90.113 396.535 88.3694 397.988 84.8821L431.117 6.27251C431.405 5.09268 432.073 4.04048 433.018 3.27873C433.964 2.51697 435.134 2.08818 436.348 2.05873H466.572C467.774 1.96549 468.967 2.32865 469.914 3.07586C470.278 3.45712 470.547 3.91914 470.698 4.42423C470.85 4.92931 470.88 5.46312 470.785 5.98195Z" fill="white" fill-opacity="0.05"/>
<path d="M671.45 194.005C671.45 196.766 669.997 198.073 666.801 198.073H639.338C638.743 198.046 638.162 197.889 637.635 197.613C637.108 197.337 636.647 196.948 636.287 196.475C635.45 195.449 634.988 194.167 634.979 192.842V70.2057C634.979 68.3168 634.979 67.445 634.107 67.445C633.235 67.445 634.107 67.4449 632.799 69.1886L606.209 119.464C605.333 120.965 604.048 122.185 602.504 122.983C600.96 123.781 599.221 124.122 597.49 123.968H569.156C567.425 124.122 565.686 123.781 564.142 122.983C562.599 122.185 561.314 120.965 560.438 119.464L533.557 69.1886C532.975 68.0262 532.54 67.445 532.249 67.445C532.249 67.445 531.522 68.3168 531.522 70.2057V192.842C531.526 194.196 531.005 195.498 530.069 196.475C529.709 196.948 529.248 197.337 528.721 197.613C528.194 197.889 527.613 198.046 527.018 198.073H499.12C496.068 198.073 494.47 196.766 494.47 194.005V12.52C494.442 11.128 494.713 9.74624 495.264 8.46787C495.816 7.1895 496.635 6.04428 497.667 5.10947C499.777 3.09617 502.597 1.99924 505.513 2.0581H528.035C530.172 2.00532 532.279 2.5657 534.107 3.67297C535.936 4.78025 537.409 6.38807 538.352 8.30618L579.909 89.0953C581.216 91.5654 582.234 92.8732 582.96 92.8732C583.687 92.8732 584.704 91.5654 586.011 89.0953L627.568 8.30618C628.512 6.38807 629.984 4.78025 631.813 3.67297C633.641 2.5657 635.748 2.00532 637.885 2.0581H660.407C663.323 1.99924 666.144 3.09617 668.254 5.10947C669.285 6.04428 670.105 7.1895 670.656 8.46787C671.207 9.74624 671.478 11.128 671.45 12.52V194.005Z" fill="white" fill-opacity="0.05"/>
<path d="M828.234 190.954C828.234 194.296 826.345 196.039 822.712 196.475L815.592 197.492C811.215 198.221 806.8 198.706 802.369 198.945L787.839 199.817L770.112 199.962C758.757 200.226 747.43 198.706 736.547 195.458C727.548 192.779 719.78 187.018 714.606 179.184C708.641 169.203 705.806 157.663 706.469 146.055V54.6583C705.83 43.0061 708.662 31.4263 714.606 21.3837C719.809 13.5463 727.56 7.74637 736.547 4.96434C747.454 1.83941 758.768 0.369943 770.112 0.605171C787.665 0.436551 805.204 1.65118 822.567 4.23777C824.148 4.31861 825.667 4.8758 826.926 5.83613C827.801 6.94673 828.218 8.351 828.088 9.75934V25.5975C828.088 26.2806 827.945 26.9561 827.67 27.5814C827.395 28.2066 826.993 28.768 826.49 29.2301C825.43 30.2375 824.029 30.8082 822.567 30.8285H766.625C760.573 30.1759 754.511 31.9529 749.769 35.7688C747.728 38.4287 746.239 41.4702 745.39 44.7143C744.542 47.9583 744.351 51.3394 744.829 54.6583V83.7191H819.661C821.106 83.6854 822.509 84.2051 823.584 85.1721C824.091 85.6617 824.494 86.2487 824.769 86.8979C825.043 87.5471 825.184 88.2452 825.182 88.9501V107.84C825.184 108.558 825.029 109.269 824.728 109.921C824.426 110.574 823.986 111.152 823.439 111.617C822.415 112.592 821.072 113.16 819.661 113.216H744.829V146.2C744.219 152.517 745.98 158.836 749.769 163.927C754.54 167.687 760.579 169.457 766.625 168.867H822.857C824.329 168.785 825.778 169.251 826.926 170.175C827.425 170.694 827.812 171.31 828.062 171.985C828.312 172.66 828.42 173.38 828.379 174.098L828.234 190.954Z" fill="white" fill-opacity="0.05"/>
<path d="M1015.09 187.466C1015.12 188.878 1014.84 190.28 1014.29 191.581C1013.74 192.881 1012.93 194.053 1011.9 195.022C1009.79 197.035 1006.97 198.132 1004.05 198.073H976.153C972.724 198.221 969.304 197.626 966.127 196.33C963.015 194.619 960.637 191.828 959.443 188.483L898.27 60.1797C897.592 58.7266 896.72 58.0001 895.655 58.0001C894.589 58.0001 894.153 58.7266 894.347 60.1797V192.842C894.349 193.547 894.208 194.245 893.933 194.894C893.659 195.544 893.256 196.131 892.748 196.62C891.763 197.544 890.466 198.062 889.116 198.073H865.722C864.304 198.045 862.951 197.473 861.944 196.475C861.399 196.039 860.96 195.486 860.658 194.857C860.356 194.228 860.2 193.54 860.2 192.842V12.5199C860.172 11.1279 860.443 9.74614 860.995 8.46776C861.546 7.18939 862.365 6.04417 863.397 5.10937C865.507 3.09606 868.328 1.99914 871.243 2.058H900.304C902.844 1.92032 905.369 2.52625 907.569 3.80163C909.735 5.59481 911.431 7.88907 912.51 10.4856L976.734 146.2C976.734 147.507 978.187 148.234 979.059 148.234C979.931 148.234 980.367 147.362 980.367 145.764V6.99834C980.332 6.3453 980.444 5.69275 980.696 5.08908C980.947 4.48541 981.332 3.94607 981.82 3.51102C982.311 3.01579 982.902 2.63026 983.553 2.37982C984.204 2.12937 984.901 2.01971 985.598 2.058H1009.86C1010.56 2.01971 1011.26 2.12937 1011.91 2.37982C1012.56 2.63026 1013.15 3.01579 1013.64 3.51102C1014.13 3.94607 1014.51 4.48541 1014.77 5.08908C1015.02 5.69275 1015.13 6.3453 1015.09 6.99834V187.466Z" fill="white" fill-opacity="0.05"/>
</svg>
