<svg width="95" height="232" viewBox="0 0 95 232" fill="none" xmlns="http://www.w3.org/2000/svg">
<path d="M94 47.5V184.5C94 210.181 73.1812 231 47.5 231C21.8188 231 1 210.181 1 184.5V47.5C1 21.8188 21.8188 1 47.5 1C73.1812 1 94 21.8188 94 47.5Z" stroke="#93815D" stroke-width="2"/>
<path d="M10 47.5C10 26.7893 26.7893 10 47.5 10V10C68.2107 10 85 26.7893 85 47.5V184.5C85 205.211 68.2107 222 47.5 222V222C26.7893 222 10 205.211 10 184.5V47.5Z" fill="#2C220E"/>
<path d="M10 47.5C10 26.7893 26.7893 10 47.5 10V10C68.2107 10 85 26.7893 85 47.5V77.84H10V47.5Z" fill="#93815D"/>
<path d="M10 104H9V105V172.84V173.84H10H85H86V172.84V105V104H85H10Z" fill="#463718" stroke="black" stroke-width="2"/>
<path d="M10 77H9V78V103.44V104.44H10H85H86V103.44V78V77H85H10Z" fill="#725E37" stroke="black" stroke-width="2"/>
<path d="M39.2104 52.1193C41.0769 52.1193 42.4363 51.0497 42.432 49.5753C42.4363 48.4844 41.7544 47.7003 40.5314 47.5256V47.4574C41.4775 47.2528 42.1124 46.5497 42.1081 45.5696C42.1124 44.2401 40.9789 43.1534 39.236 43.1534C37.54 43.1534 36.2275 44.1634 36.1934 45.625H37.7147C37.7402 44.892 38.4221 44.4361 39.2275 44.4361C40.0414 44.4361 40.5826 44.9304 40.5783 45.6634C40.5826 46.4261 39.9519 46.9332 39.0485 46.9332H38.2772V48.152H39.0485C40.1522 48.152 40.8084 48.706 40.8042 49.4943C40.8084 50.2656 40.1394 50.794 39.2061 50.794C38.3283 50.794 37.6507 50.3381 37.6124 49.6264H36.0101C36.0527 51.1009 37.3695 52.1193 39.2104 52.1193ZM43.8947 52H49.8777V50.679H46.0765V50.6193L47.5808 49.0895C49.2768 47.4616 49.7456 46.669 49.7456 45.6847C49.7456 44.223 48.5566 43.1534 46.801 43.1534C45.0708 43.1534 43.8436 44.2273 43.8436 45.8849H45.3478C45.3478 44.9943 45.9103 44.4361 46.7797 44.4361C47.6106 44.4361 48.2285 44.9432 48.2285 45.7656C48.2285 46.4943 47.7853 47.0142 46.9245 47.8878L43.8947 50.858V52ZM56.014 50.3636C56.0183 51.3778 56.6618 52.2429 57.8592 52.2429C59.0524 52.2429 59.7086 51.3778 59.7044 50.3636V49.9034C59.7086 48.8807 59.0694 48.0241 57.8592 48.0241C56.6788 48.0241 56.0183 48.8892 56.014 49.9034V50.3636ZM51.5779 45.3693C51.5822 46.3835 52.2257 47.2401 53.4274 47.2401C54.6163 47.2401 55.2725 46.392 55.2683 45.3693V44.9091C55.2725 43.8864 54.6333 43.0298 53.4274 43.0298C52.2512 43.0298 51.5822 43.8864 51.5779 44.9091V45.3693ZM51.9615 52H53.0311L59.0311 43.2727H57.9615L51.9615 52ZM57.1262 49.9034C57.1305 49.4517 57.3223 48.9957 57.8592 48.9957C58.4217 48.9957 58.5879 49.4517 58.5836 49.9034V50.3636C58.5879 50.8153 58.4047 51.2628 57.8592 51.2628C57.3137 51.2628 57.1305 50.8111 57.1262 50.3636V49.9034ZM52.6987 44.9091C52.7029 44.4616 52.8862 44.0014 53.4274 44.0014C53.9899 44.0014 54.1518 44.4574 54.1475 44.9091V45.3693C54.1518 45.821 53.9728 46.2685 53.4274 46.2685C52.8819 46.2685 52.7029 45.821 52.6987 45.3693V44.9091Z" fill="white"/>
<path d="M40.3839 86.2727H38.8796L36.7106 87.6662V89.1151L38.7518 87.8111H38.8029V95H40.3839V86.2727ZM42.4421 93.3807H46.6055V95H48.114V93.3807H49.2305V92.081H48.114V86.2727H46.1452L42.4421 92.1236V93.3807ZM46.6225 92.081H44.0614V92.0128L46.5543 88.0625H46.6225V92.081ZM55.2582 93.3636C55.2624 94.3778 55.9059 95.2429 57.1033 95.2429C58.2965 95.2429 58.9528 94.3778 58.9485 93.3636V92.9034C58.9528 91.8807 58.3136 91.0241 57.1033 91.0241C55.9229 91.0241 55.2624 91.8892 55.2582 92.9034V93.3636ZM50.8221 88.3693C50.8263 89.3835 51.4698 90.2401 52.6715 90.2401C53.8604 90.2401 54.5167 89.392 54.5124 88.3693V87.9091C54.5167 86.8864 53.8775 86.0298 52.6715 86.0298C51.4954 86.0298 50.8263 86.8864 50.8221 87.9091V88.3693ZM51.2056 95H52.2752L58.2752 86.2727H57.2056L51.2056 95ZM56.3704 92.9034C56.3746 92.4517 56.5664 91.9957 57.1033 91.9957C57.6658 91.9957 57.832 92.4517 57.8278 92.9034V93.3636C57.832 93.8153 57.6488 94.2628 57.1033 94.2628C56.5579 94.2628 56.3746 93.8111 56.3704 93.3636V92.9034ZM51.9428 87.9091C51.9471 87.4616 52.1303 87.0014 52.6715 87.0014C53.234 87.0014 53.396 87.4574 53.3917 87.9091V88.3693C53.396 88.821 53.217 89.2685 52.6715 89.2685C52.1261 89.2685 51.9471 88.821 51.9428 88.3693V87.9091Z" fill="white"/>
<path d="M39.2104 143.119C41.0769 143.119 42.4363 142.05 42.432 140.575C42.4363 139.484 41.7544 138.7 40.5314 138.526V138.457C41.4775 138.253 42.1124 137.55 42.1081 136.57C42.1124 135.24 40.9789 134.153 39.236 134.153C37.54 134.153 36.2275 135.163 36.1934 136.625H37.7147C37.7402 135.892 38.4221 135.436 39.2275 135.436C40.0414 135.436 40.5826 135.93 40.5783 136.663C40.5826 137.426 39.9519 137.933 39.0485 137.933H38.2772V139.152H39.0485C40.1522 139.152 40.8084 139.706 40.8042 140.494C40.8084 141.266 40.1394 141.794 39.2061 141.794C38.3283 141.794 37.6507 141.338 37.6124 140.626H36.0101C36.0527 142.101 37.3695 143.119 39.2104 143.119ZM43.8947 143H49.8777V141.679H46.0765V141.619L47.5808 140.089C49.2768 138.462 49.7456 137.669 49.7456 136.685C49.7456 135.223 48.5566 134.153 46.801 134.153C45.0708 134.153 43.8436 135.227 43.8436 136.885H45.3478C45.3478 135.994 45.9103 135.436 46.7797 135.436C47.6106 135.436 48.2285 135.943 48.2285 136.766C48.2285 137.494 47.7853 138.014 46.9245 138.888L43.8947 141.858V143ZM56.014 141.364C56.0183 142.378 56.6618 143.243 57.8592 143.243C59.0524 143.243 59.7086 142.378 59.7044 141.364V140.903C59.7086 139.881 59.0694 139.024 57.8592 139.024C56.6788 139.024 56.0183 139.889 56.014 140.903V141.364ZM51.5779 136.369C51.5822 137.384 52.2257 138.24 53.4274 138.24C54.6163 138.24 55.2725 137.392 55.2683 136.369V135.909C55.2725 134.886 54.6333 134.03 53.4274 134.03C52.2512 134.03 51.5822 134.886 51.5779 135.909V136.369ZM51.9615 143H53.0311L59.0311 134.273H57.9615L51.9615 143ZM57.1262 140.903C57.1305 140.452 57.3223 139.996 57.8592 139.996C58.4217 139.996 58.5879 140.452 58.5836 140.903V141.364C58.5879 141.815 58.4047 142.263 57.8592 142.263C57.3137 142.263 57.1305 141.811 57.1262 141.364V140.903ZM52.6987 135.909C52.7029 135.462 52.8862 135.001 53.4274 135.001C53.9899 135.001 54.1518 135.457 54.1475 135.909V136.369C54.1518 136.821 53.9728 137.268 53.4274 137.268C52.8819 137.268 52.7029 136.821 52.6987 136.369V135.909Z" fill="white"/>
<path d="M36.2599 201H42.2429V199.679H38.4418V199.619L39.946 198.089C41.642 196.462 42.1108 195.669 42.1108 194.685C42.1108 193.223 40.9219 192.153 39.1662 192.153C37.4361 192.153 36.2088 193.227 36.2088 194.885H37.7131C37.7131 193.994 38.2756 193.436 39.1449 193.436C39.9759 193.436 40.5938 193.943 40.5938 194.766C40.5938 195.494 40.1506 196.014 39.2898 196.888L36.2599 199.858V201ZM43.7131 201H49.696V199.679H45.8949V199.619L47.3991 198.089C49.0952 196.462 49.5639 195.669 49.5639 194.685C49.5639 193.223 48.375 192.153 46.6193 192.153C44.8892 192.153 43.6619 193.227 43.6619 194.885H45.1662C45.1662 193.994 45.7287 193.436 46.598 193.436C47.429 193.436 48.0469 193.943 48.0469 194.766C48.0469 195.494 47.6037 196.014 46.7429 196.888L43.7131 199.858V201ZM55.8324 199.364C55.8366 200.378 56.4801 201.243 57.6776 201.243C58.8707 201.243 59.527 200.378 59.5227 199.364V198.903C59.527 197.881 58.8878 197.024 57.6776 197.024C56.4972 197.024 55.8366 197.889 55.8324 198.903V199.364ZM51.3963 194.369C51.4006 195.384 52.044 196.24 53.2457 196.24C54.4347 196.24 55.0909 195.392 55.0866 194.369V193.909C55.0909 192.886 54.4517 192.03 53.2457 192.03C52.0696 192.03 51.4006 192.886 51.3963 193.909V194.369ZM51.7798 201H52.8494L58.8494 192.273H57.7798L51.7798 201ZM56.9446 198.903C56.9489 198.452 57.1406 197.996 57.6776 197.996C58.2401 197.996 58.4062 198.452 58.402 198.903V199.364C58.4062 199.815 58.223 200.263 57.6776 200.263C57.1321 200.263 56.9489 199.811 56.9446 199.364V198.903ZM52.517 193.909C52.5213 193.462 52.7045 193.001 53.2457 193.001C53.8082 193.001 53.9702 193.457 53.9659 193.909V194.369C53.9702 194.821 53.7912 195.268 53.2457 195.268C52.7003 195.268 52.5213 194.821 52.517 194.369V193.909Z" fill="white"/>
</svg>
