<svg width="480" height="481" viewBox="0 0 480 481" fill="none" xmlns="http://www.w3.org/2000/svg">
<path d="M240.122 481H239.181L239.238 462.142H240.179L240.122 481ZM249.917 480.802L249.146 461.944L250.087 461.897L250.915 480.755L249.917 480.802ZM229.368 480.802H228.427L229.311 461.944H230.252L229.368 480.802ZM260.653 480.161L259.054 461.369L259.995 461.294L261.575 480.038L260.653 480.161ZM218.632 480.095L217.691 480.01L219.403 461.228L220.344 461.313L218.632 480.095ZM271.323 479.001L268.896 460.304L269.771 460.191L272.311 478.869L271.323 479.001ZM207.905 478.907L206.917 478.775L209.514 460.096L210.389 460.219L207.905 478.907ZM281.965 477.37L278.709 458.795L279.584 458.635L282.943 477.191L281.965 477.37ZM197.282 477.238L196.294 477.059L199.719 458.522L200.594 458.673L197.282 477.238ZM292.55 475.211L288.467 456.796L289.332 456.608L293.566 474.994L292.55 475.211ZM186.744 475.05L185.803 474.824L190.065 456.466L190.922 456.664L186.744 475.05ZM302.976 472.627L298.102 454.467L298.949 454.232L303.964 472.382L302.976 472.627ZM176.272 472.429L175.331 472.165L180.393 454.005L181.249 454.241L176.272 472.429ZM313.326 469.553L307.605 451.639L308.452 451.365L314.285 469.28L313.326 469.553ZM165.95 469.327L165.009 469.025L170.871 451.111L171.746 451.394L165.95 469.327ZM323.516 466.027L316.929 448.348L317.776 448.028L324.41 465.678L323.516 466.027ZM155.778 465.782L154.837 465.424L161.537 447.801L162.365 448.112L155.778 465.782ZM333.499 462.076L326.188 444.699L326.988 444.36L334.412 461.68L333.499 462.076ZM145.739 461.746L144.798 461.36L152.316 444.096L153.153 444.454L145.739 461.746ZM343.332 457.654L335.249 440.626L336.04 440.249L344.225 457.221L343.332 457.654ZM135.906 457.296L135.041 456.872L143.274 439.9L144.102 440.305L135.906 457.296ZM352.891 452.827L344.037 436.185L344.828 435.761L353.785 452.327L352.891 452.827ZM126.309 452.393L125.443 451.922L134.448 435.365L135.229 435.789L126.309 452.393ZM362.253 447.509L352.675 431.273L353.428 430.82L363.1 446.99L362.253 447.509ZM116.928 447.009L116.1 446.509L125.829 430.367L126.619 430.839L116.928 447.009ZM371.38 441.805L361.096 426.011L361.83 425.53L372.18 441.258L371.38 441.805ZM107.82 441.267L106.982 440.711L117.445 425.04L118.179 425.521L107.82 441.267ZM380.244 435.685L369.235 420.392L369.969 419.864L381.072 435.11L380.244 435.685ZM98.9093 435.101L98.1284 434.535L109.25 419.317L109.993 419.854L98.9093 435.101ZM388.787 429.189L377.12 414.395L377.807 413.848L389.568 428.567L388.787 429.189ZM90.347 428.557L89.5942 427.954L101.365 413.245L102.09 413.82L90.347 428.557ZM397.086 422.306L384.836 408.068L385.522 407.456L397.886 421.674L397.086 422.306ZM82.0857 421.636L81.3518 420.986L93.8001 406.843L94.4776 407.437L82.0857 421.636ZM405.075 415.036L392.099 401.374L392.767 400.742L405.771 414.376L405.075 415.036ZM74.1444 414.339L73.4575 413.678L86.4798 400.073L87.1478 400.704L74.1444 414.339ZM412.706 407.446L399.156 394.368L399.787 393.718L413.392 406.739L412.706 407.446ZM66.5417 406.72L65.8643 406.013L79.4982 393.011L80.1192 393.671L66.5417 406.72ZM420.016 399.516L405.903 387.061L406.514 386.363L420.685 398.838L420.016 399.516ZM59.2778 398.762L58.6474 398.036L72.8647 385.637L73.4669 386.335L59.2778 398.762ZM426.97 391.295L412.329 379.443L412.884 378.754L427.6 390.512L426.97 391.295ZM52.3997 390.503L51.7787 389.72L66.5417 378.028L67.0875 378.717L52.3997 390.503ZM433.547 382.724L418.379 371.56L418.916 370.834L434.13 381.932L433.547 382.724ZM45.8886 381.932L45.2958 381.121L60.5669 370.099L61.075 370.806L45.8886 381.932ZM439.738 373.889L424.1 363.404L424.599 362.65L440.284 373.069L439.738 373.889ZM39.7444 373.069L39.2081 372.258L54.9402 361.886L55.4295 362.64L39.7444 373.069ZM445.525 364.762L429.416 355.013L429.896 354.221L445.995 363.951L445.525 364.762ZM33.9954 363.951L33.4967 363.112L49.6805 353.485L50.1415 354.258L33.9954 363.951ZM450.879 355.465L434.365 346.414L434.789 345.64L451.358 354.522L450.879 355.465ZM28.6886 354.664L28.2181 353.777L44.8159 344.905L45.2299 345.678L28.6886 354.664ZM455.865 345.838L438.929 337.579L439.324 336.758L456.261 344.971L455.865 345.838ZM23.824 345.065L23.4006 344.188L40.3372 336.042L40.7229 336.853L23.824 345.065ZM460.41 336.023L443.144 328.527L443.502 327.688L460.796 335.118L460.41 336.023ZM19.4017 335.269L19.016 334.326L36.3383 326.971L36.6958 327.792L19.4017 335.269ZM464.456 326.01L446.88 319.277L447.19 318.457L464.823 325.057L464.456 326.01ZM15.384 325.274L15.0359 324.331L32.6781 317.731L32.9886 318.58L15.384 325.274ZM468.013 315.751L450.135 309.849L450.418 308.981L468.295 314.818L468.013 315.751ZM11.7615 315.063L11.451 314.12L29.3284 308.378L29.6013 309.217L11.7615 315.063ZM471.155 305.417L453.033 300.326L453.278 299.449L471.4 304.484L471.155 305.417ZM8.65645 304.719L8.39299 303.777L26.5527 298.808L26.7879 299.684L8.65645 304.719ZM473.818 294.961L455.489 290.699L455.696 289.813L474.035 294.008L473.818 294.961ZM6.02188 294.244L5.80547 293.301L24.1628 289.153L24.3604 290.048L6.02188 294.244ZM476.01 284.391L457.512 280.978L457.672 280.082L476.189 283.448L476.01 284.391ZM3.85776 283.674L3.6884 282.732L22.2151 279.413L22.375 280.355L3.85776 283.674ZM477.723 273.746L459.083 271.144L459.206 270.267L477.864 272.756L477.723 273.746ZM2.18293 273.029L2.04179 272.03L20.7002 269.607L20.8131 270.484L2.18293 273.029ZM478.927 263.063L460.184 261.29L460.269 260.404L479.012 262.064L478.927 263.063ZM0.940918 262.309L0.846826 261.309L19.5993 259.716L19.6746 260.593L0.940918 262.309ZM479.68 252.248L460.862 251.362L460.909 250.419L479.727 251.249L479.68 252.248ZM0.254048 251.522L0.207002 250.579L19.0254 249.806L19.0724 250.749L0.254048 251.522ZM480 241.471L461.182 241.415V240.019H480V241.471ZM18.8184 240.745H0V239.802L18.8184 239.878V240.745ZM460.984 231.005V230.119L479.802 229.233V230.232L460.984 231.005ZM19.0254 230.817L0.207002 229.987V229.044L19.0254 229.93V230.817ZM460.316 221.096L460.241 220.153L478.974 218.446L479.059 219.389L460.316 221.096ZM19.6464 220.879L0.940918 219.21L1.0256 218.267L19.7593 219.955L19.6464 220.879ZM459.262 211.205L459.149 210.262L477.789 207.716L477.921 208.659L459.262 211.205ZM20.7943 210.988L2.10766 208.489L2.23939 207.546L20.8884 210.083L20.7943 210.988ZM457.775 201.38L457.616 200.437L476.105 197.062L476.283 198.004L457.775 201.38ZM22.3186 201.163L3.76367 197.825L3.95186 196.882L22.4503 200.315L22.3186 201.163ZM455.818 191.631L455.611 190.735L473.959 186.539L474.176 187.482L455.818 191.631ZM24.2663 191.404L5.90897 187.256L6.12538 186.313L24.4639 190.537L24.2663 191.404ZM453.391 181.976L453.146 181.089L471.287 176.064L471.541 177.007L453.391 181.976ZM26.6656 181.768L8.51531 176.78L8.77877 175.837L26.9103 180.92L26.6656 181.768ZM450.559 172.443L450.286 171.585L468.163 165.72L468.464 166.663L450.559 172.443ZM29.4978 172.254L11.6203 166.427L11.9308 165.485L29.8083 171.359L29.4978 172.254ZM447.265 163.043L446.955 162.222L464.55 155.528L464.898 156.471L447.265 163.043ZM32.7439 162.826L15.1206 156.226L15.4593 155.283L33.0639 161.958L32.7439 162.826ZM443.596 153.84L443.248 153.01L460.532 145.571L460.918 146.514L443.596 153.84ZM36.4418 153.567L19.1665 146.146L19.5617 145.203L36.8275 152.746L36.4418 153.567ZM439.522 144.798L439.127 143.987L456.063 135.774L456.486 136.661L439.522 144.798ZM40.5724 144.496L23.6359 136.331L24.0687 135.388L41.0052 143.648L40.5724 144.496ZM435.062 135.963L434.638 135.171L451.18 126.185L451.641 127.043L435.062 135.963ZM45.0794 135.624L28.5098 126.695L28.9709 125.837L45.531 134.832L45.0794 135.624ZM430.207 127.289L429.736 126.506L445.882 116.813L446.372 117.643L430.207 127.289ZM50.0098 126.921L33.8731 117.294L34.3906 116.436L50.4991 126.185L50.0098 126.921ZM424.947 118.878L424.448 118.114L440.143 107.743L440.67 108.544L424.947 118.878ZM55.2978 118.51L39.5844 108.139L40.1302 107.318L55.787 117.775L55.2978 118.51ZM419.311 110.684L418.793 109.968L433.98 98.8419L434.572 99.6528L419.311 110.684ZM60.9433 110.317L45.738 99.2568L46.312 98.4554L61.4796 109.628L60.9433 110.317ZM413.327 102.774L412.762 102.067L427.45 90.2806L428.061 91.0443L413.327 102.774ZM66.9651 102.406L52.2586 90.6672L52.8796 89.8846L67.5203 101.737L66.9651 102.406ZM406.975 95.127L406.401 94.4576L420.515 82.0116L421.174 82.7659L406.975 95.127ZM73.3258 94.7781L59.1649 82.3793L59.8142 81.6344L73.9279 94.1181L73.3258 94.7781ZM400.314 87.7726L399.693 87.122L413.27 74.0631L413.948 74.7797L400.314 87.7726ZM80.0251 87.4237L66.4194 74.412L67.0875 73.7237L80.6649 86.7448L80.0251 87.4237ZM393.351 80.7387L392.673 80.0881L405.658 66.4729L406.336 67.1235L393.351 80.7387ZM87.0443 80.3992L74.022 66.7841L74.7089 66.1241L87.7124 79.7581L87.0443 80.3992ZM386.002 74.0065L385.325 73.4125L397.688 59.1939L398.432 59.8445L386.002 74.0065ZM94.3176 73.686L81.9634 59.4956L82.7067 58.8545L95.0327 73.0919L94.3176 73.686ZM378.362 67.595L377.656 67.0292L389.39 52.292L390.152 52.9049L378.362 67.595ZM101.939 67.3027L90.2058 52.5843L90.9586 51.9809L102.692 66.7275L101.939 67.3027ZM370.487 61.5417L369.781 61.0042L380.855 45.7579L381.636 46.3236L370.487 61.5417ZM109.852 61.2682L98.7964 46.0408L99.6056 45.4562L110.614 60.7497L109.852 61.2682ZM362.357 55.8373L361.614 55.347L371.964 39.6009L372.792 40.1478L362.357 55.8373ZM117.982 55.6298L107.632 39.912L108.46 39.3652L118.81 55.1395L117.982 55.6298ZM353.992 50.5477L353.211 50.0763L362.856 33.8871L363.684 34.3868L353.992 50.5477ZM126.365 50.3026L116.674 34.1322L117.483 33.6419L127.137 49.8311L126.365 50.3026ZM345.355 45.5882L344.555 45.1544L353.475 28.5504L354.34 29.0124L345.355 45.5882ZM134.975 45.409L126.027 28.8144L126.892 28.3524L135.765 44.9847L134.975 45.409ZM336.519 41.0341L335.691 40.6381L343.868 23.6662L344.734 24.0905L336.519 41.0341ZM143.791 40.8832L135.596 23.9114L136.48 23.4777L144.591 40.4966L143.791 40.8832ZM327.44 36.8665L326.602 36.5083L334.026 19.1593L334.92 19.5459L327.44 36.8665ZM152.796 36.7723L145.362 19.4422L146.303 19.0556L153.633 36.414L152.796 36.7723ZM318.247 33.1422L317.409 32.831L323.996 15.1615L324.937 15.5104L318.247 33.1422ZM161.97 33.0007L155.317 15.3595L156.258 15.0106L162.845 32.699L161.97 33.0007ZM308.885 29.7761L308.01 29.4932L313.806 11.5785L314.747 11.8803L308.885 29.7761ZM171.332 29.7101L165.479 11.7954L166.42 11.4843L172.179 29.3989L171.332 29.7101ZM299.372 26.8815L298.506 26.6457L303.474 8.48591L304.415 8.74048L299.372 26.8815ZM180.816 26.8815L175.801 8.70277L176.742 8.43876L181.682 26.6363L180.816 26.8815ZM289.803 24.5148L288.928 24.3168L293.068 5.92128L294.009 6.13814L289.803 24.5148ZM190.479 24.5148L186.292 6.12871L187.233 5.92128L191.364 24.3168L190.479 24.5148ZM280.083 22.5537L279.208 22.3934L282.464 3.77151L283.405 3.95066L280.083 22.5537ZM200.209 22.5537L196.793 3.88466L197.734 3.71494L201.018 22.2802L200.209 22.5537ZM270.298 21.0262L269.357 20.9036L271.831 2.09319L272.772 2.22519L270.298 21.0262ZM210.013 21.0262L207.472 2.33834L208.413 2.20634L210.85 20.7433L210.013 21.0262ZM260.39 19.8004L259.496 19.725L261.124 0.942878L262.065 1.03717L260.39 19.8004ZM219.817 19.8004L218.133 0.990022L219.074 0.905163L220.692 19.6873L219.817 19.8004ZM250.482 19.131H249.541L250.341 0.273435L251.282 0.320579L250.482 19.131ZM229.725 19.131L228.869 0.273435L229.81 0.226291L230.581 19.0839L229.725 19.131ZM240.555 18.8576H239.614V0H240.555V18.8576Z" fill="white" fill-opacity="0.2"/>
</svg>
