<svg width="146" height="232" viewBox="0 0 146 232" fill="none" xmlns="http://www.w3.org/2000/svg">
<path d="M0.113249 42L3 44.8868L5.88675 42L3 39.1132L0.113249 42ZM146 42L141 39.1132V44.8868L146 42ZM3 42.5H141.5V41.5H3V42.5Z" fill="#93815D"/>
<path d="M0.113249 93L3 95.8868L5.88675 93L3 90.1132L0.113249 93ZM146 93L141 90.1132V95.8868L146 93ZM3 93.5H141.5V92.5H3V93.5Z" fill="#725E37"/>
<path d="M0.113249 144L3 146.887L5.88675 144L3 141.113L0.113249 144ZM146 144L141 141.113V146.887L146 144ZM3 144.5H141.5V143.5H3V144.5Z" fill="#463718"/>
<path d="M0.113249 195L3 197.887L5.88675 195L3 192.113L0.113249 195ZM146 195L141 192.113V197.887L146 195ZM3 195.5H141.5V194.5H3V195.5Z" fill="#2C220E"/>
</svg>
