<svg width="53" height="42" viewBox="0 0 53 42" fill="none" xmlns="http://www.w3.org/2000/svg">
<path d="M23.4961 31.7578C23.4961 34.2578 22.4805 36.4453 20.4492 38.3203C18.457 40.1953 16.0938 41.1328 13.3594 41.1328C9.0625 41.1328 5.76172 39.707 3.45703 36.8555C1.15234 34.0039 0 30.0586 0 25.0195C0 20.332 1.97266 15.6055 5.91797 10.8398C9.90234 6.07422 14.6875 2.46094 20.2734 0L22.8516 4.16016C18.4375 6.30859 14.9805 8.80859 12.4805 11.6602C9.98047 14.5117 8.53516 17.9688 8.14453 22.0312H11.4258C13.8477 22.0312 15.8203 22.3047 17.3438 22.8516C18.8672 23.3984 20.0977 24.1602 21.0352 25.1367C21.9336 26.0742 22.5586 27.1094 22.9102 28.2422C23.3008 29.375 23.4961 30.5469 23.4961 31.7578ZM52.3828 31.7578C52.3828 34.2578 51.3672 36.4453 49.3359 38.3203C47.3438 40.1953 44.9805 41.1328 42.2461 41.1328C37.9492 41.1328 34.6484 39.707 32.3438 36.8555C30.0391 34.0039 28.8867 30.0586 28.8867 25.0195C28.8867 20.332 30.8594 15.6055 34.8047 10.8398C38.7891 6.07422 43.5742 2.46094 49.1602 0L51.7383 4.16016C47.3242 6.30859 43.8672 8.80859 41.3672 11.6602C38.8672 14.5117 37.4219 17.9688 37.0312 22.0312H40.3125C42.7344 22.0312 44.707 22.3047 46.2305 22.8516C47.7539 23.3984 48.9844 24.1602 49.9219 25.1367C50.8203 26.0742 51.4453 27.1094 51.7969 28.2422C52.1875 29.375 52.3828 30.5469 52.3828 31.7578Z" fill="white" fill-opacity="0.2"/>
</svg>
