<svg width="150" height="151" viewBox="0 0 150 151" fill="none" xmlns="http://www.w3.org/2000/svg">
<path d="M77.099 12.6857L77.4552 8.29282L76.2679 8.17409L76.3867 6.86811L77.5739 6.98684L77.9301 2.59399L81.1357 2.83145C82.0855 2.95017 82.7978 3.18762 83.5102 3.66252C84.2225 4.13743 84.6975 4.73105 85.0536 5.44341C85.2911 6.27448 85.4098 7.10556 85.4098 7.93664V8.41154C85.2911 9.36135 85.0536 10.1924 84.6975 10.9048C84.2225 11.6171 83.6289 12.092 82.9166 12.4482C82.2042 12.8044 81.3731 12.9231 80.5421 12.9231L77.099 12.6857ZM81.2544 8.53027L79.8297 8.41154L79.5923 10.9048L80.5421 11.0235C81.2544 11.0235 81.848 10.9048 82.2042 10.4299C82.5604 9.95497 82.7978 9.24262 82.9166 8.29282V7.81792C82.9166 6.86811 82.7978 6.15576 82.4417 5.56213C82.0855 5.08723 81.6106 4.73105 80.8982 4.73105H80.0672L79.8297 7.22429L81.2544 7.34301V8.53027Z" fill="white" fill-opacity="0.5"/>
<path d="M95.0266 13.6351L91.821 12.6853L90.7524 14.3475L88.2592 13.6351L94.5517 4.84941L96.8074 5.56177L97.7573 16.3658L95.264 15.6534L95.0266 13.6351ZM92.8895 11.1419L95.0266 11.7355L94.9078 8.055L92.8895 11.1419ZM98.9445 3.42471C98.7071 4.01833 98.3509 4.37451 97.7573 4.73069C97.1636 5.08686 96.57 4.96814 95.7389 4.84941C94.9078 4.73069 94.4329 4.25578 94.0768 3.78088C93.7206 3.30598 93.7206 2.59363 93.958 2L95.5015 2.4749C95.3827 2.71235 95.5015 2.9498 95.6202 3.18726C95.7389 3.42471 95.9764 3.54343 96.2138 3.66216C96.4513 3.78088 96.8075 3.78088 96.9262 3.66216C97.1636 3.42471 97.2824 3.18726 97.2824 2.9498L98.9445 3.42471Z" fill="white" fill-opacity="0.5"/>
<path d="M108.561 21.7081L106.424 20.6396L106.068 13.3973L103.219 18.9774L101.082 17.9089L105.712 8.88574L107.849 9.95427L108.086 17.1965L111.055 11.4977L113.192 12.685L108.561 21.7081Z" fill="white" fill-opacity="0.5"/>
<path d="M119.603 28.3567C119.009 28.4754 118.415 28.3567 117.703 28.1192C116.991 27.8818 116.278 27.4069 115.566 26.932C114.497 26.1009 114.023 25.1511 113.904 23.9639C113.785 22.7766 114.141 21.7081 115.091 20.5208L115.685 19.8085C116.278 18.9774 116.991 18.5025 117.703 18.1463C118.415 17.7901 119.246 17.6714 119.959 17.7901C120.671 17.9089 121.384 18.265 122.096 18.7399C123.046 19.571 123.639 20.4021 123.877 21.2332C124.114 22.0642 123.877 23.014 123.164 23.9639L121.384 22.5391C121.621 22.0642 121.74 21.5893 121.74 21.2332C121.621 20.877 121.502 20.5208 121.027 20.1646C120.552 19.8085 120.078 19.6897 119.484 19.9272C118.89 20.1646 118.297 20.6395 117.703 21.3519L117.347 21.8268C116.753 22.6579 116.397 23.2515 116.278 23.9639C116.278 24.5575 116.516 25.1511 117.109 25.626C117.584 25.9822 118.059 26.2196 118.534 26.2196L119.484 25.0324L118.178 23.9639L119.246 22.6579L122.452 25.2698L119.603 28.3567Z" fill="white" fill-opacity="0.5"/>
<path d="M131.238 38.4488L129.813 38.2113L127.557 39.636L126.251 37.6177L134.681 32.0376L135.987 34.0559L132.306 36.5492H133.85L137.649 36.6679L139.311 39.1611L133.731 38.805L130.882 44.7412L129.338 42.3667L131.238 38.4488Z" fill="white" fill-opacity="0.5"/>
<path d="M139.192 49.1333H143.941L145.01 51.6265L137.768 51.1516L134.443 52.5763L133.494 50.3205L136.818 48.8958L141.567 43.4344L142.517 45.809L139.192 49.1333ZM145.841 46.64L146.791 48.8958L144.06 47.946L143.348 46.1651L145.841 46.64Z" fill="white" fill-opacity="0.5"/>
<path d="M138.718 74.0667L138.48 71.6922L144.416 67.5368L138.124 68.0117L137.886 65.6372L147.978 64.8062L148.216 67.1807L142.279 71.3361L148.572 70.8611L148.809 73.2357L138.718 74.0667Z" fill="white" fill-opacity="0.5"/>
<path d="M137.649 87.0077L137.887 84.6332L142.042 85.1081L142.517 81.5463L138.361 81.0714L138.599 78.6969L148.691 79.8842L148.453 82.2587L144.416 81.7838L143.942 85.3455L147.978 85.8204L147.741 88.1949L137.649 87.0077Z" fill="white" fill-opacity="0.5"/>
<path d="M134.325 93.656C134.562 93.7747 134.8 93.8935 134.918 94.2496C135.037 94.6058 135.037 94.8433 134.918 95.1994C134.8 95.5556 134.562 95.7931 134.325 96.0305C134.087 96.268 133.731 96.268 133.494 96.1492C133.256 96.0305 133.019 95.9118 132.9 95.5556C132.781 95.1994 132.781 94.962 132.9 94.6058C133.019 94.2496 133.256 94.0122 133.494 93.7747C133.731 93.5373 133.968 93.5373 134.325 93.656ZM136.58 97.5739L137.649 94.3684L135.987 93.1811L136.818 90.6879L145.247 97.4552L144.535 99.5923L133.731 99.8297L134.562 97.3365L136.58 97.5739ZM139.311 95.5556L138.599 97.5739L142.279 97.6927L139.311 95.5556ZM144.654 101.611L145.129 99.8297L146.435 99.1174L145.841 97.8114L146.435 96.1492H146.553L147.622 98.8799L147.147 100.186L144.654 101.611Z" fill="white" fill-opacity="0.5"/>
<path d="M127.795 110.515L128.982 108.378L136.224 108.497L130.763 105.291L131.95 103.154L140.617 108.259L139.43 110.397L132.188 110.278L137.649 113.483L136.462 115.62L127.795 110.515Z" fill="white" fill-opacity="0.5"/>
<path d="M120.671 130.342L122.927 128.324L117.347 122.269L119.128 120.606L124.708 126.661L126.964 124.643L128.27 126.068L121.977 131.767L120.671 130.342Z" fill="white" fill-opacity="0.5"/>
<path d="M110.223 139.366L109.392 137.941C109.155 138.178 108.917 138.297 108.799 138.534C108.68 138.772 108.68 139.009 108.799 139.247C108.799 139.484 109.036 139.959 109.392 140.553L108.205 141.265C107.611 140.315 107.374 139.484 107.493 138.772C107.611 138.06 108.086 137.585 108.917 136.991L106.899 133.667C106.543 133.073 106.305 132.361 106.305 131.767C106.305 131.173 106.424 130.58 106.899 129.986C107.374 129.393 107.849 128.918 108.561 128.561C109.63 127.968 110.58 127.73 111.529 127.849C112.479 128.087 113.192 128.561 113.785 129.511L117.228 135.21L115.091 136.516L111.648 130.699C111.055 129.749 110.342 129.511 109.511 130.105C109.036 130.342 108.799 130.699 108.68 131.055C108.561 131.411 108.68 131.886 109.036 132.361L112.479 138.06L110.223 139.366Z" fill="white" fill-opacity="0.5"/>
<path d="M90.7526 138.772L90.3964 146.371L87.7844 146.964L88.853 136.279L91.4649 135.685L97.045 144.827L94.433 145.421L90.7526 138.772Z" fill="white" fill-opacity="0.5"/>
<path d="M76.6241 139.484L79.9484 139.365L80.4233 137.465L83.0353 137.347L79.5923 147.557L77.3365 147.676L73.2998 137.703L75.9118 137.584L76.6241 139.484ZM75.4369 151H73.7747L75.4369 148.982H76.6241L75.4369 151ZM79.1174 149.694H77.9301L75.9118 148.269H77.4552L78.5237 149.1L79.4735 148.269H81.017L79.1174 149.694ZM79.3548 141.383L77.2177 141.502L78.405 144.945L79.3548 141.383Z" fill="white" fill-opacity="0.5"/>
<path d="M61.3085 135.923L63.683 136.398L66.1763 143.165L67.2448 136.991L69.6193 137.466L67.8384 147.439L65.4639 146.964L62.9707 140.197L61.9022 146.371L59.5276 145.896L61.3085 135.923Z" fill="white" fill-opacity="0.5"/>
<path d="M43.2623 128.324L45.3994 129.511L45.6368 136.753L48.605 131.173L50.742 132.36L45.993 141.265L43.856 140.077L43.6185 132.835L40.6504 138.415L38.5133 137.228L43.2623 128.324Z" fill="white" fill-opacity="0.5"/>
<path d="M32.3394 121.557C32.933 121.438 33.5266 121.557 34.239 121.795C34.9513 122.032 35.6637 122.507 36.2573 122.982C37.3259 123.813 37.8008 124.763 37.9195 125.95C38.0382 127.137 37.5633 128.206 36.7322 129.393L36.1386 130.105C35.545 130.818 34.8326 131.411 34.1203 131.768C33.4079 132.124 32.5768 132.242 31.8645 132.124C31.1521 132.005 30.4398 131.649 29.7274 131.174C28.7776 130.343 28.184 129.512 28.0653 128.681C27.9465 127.85 28.184 126.9 28.7776 125.95L30.5585 127.493C30.2023 127.968 30.0836 128.443 30.2023 128.799C30.3211 129.156 30.4398 129.512 30.9147 129.868C31.3896 130.224 31.8645 130.343 32.4581 130.224C33.0517 130.105 33.6454 129.631 34.239 128.799L34.5952 128.325C35.1888 127.493 35.545 126.9 35.6637 126.187C35.6637 125.594 35.4262 125 34.9513 124.525C34.4764 124.169 34.0015 123.932 33.6454 123.932L32.6956 125.119L34.0015 126.187L32.933 127.493L29.7274 124.882L32.3394 121.557Z" fill="white" fill-opacity="0.5"/>
<path d="M24.9785 114.077L27.1155 116.689L29.0151 115.977L30.6773 117.995L20.4669 121.438L19.0422 119.657L24.6223 110.396L26.2844 112.415L24.9785 114.077ZM25.2159 117.401L23.9099 115.739L21.8916 118.826L25.2159 117.401Z" fill="white" fill-opacity="0.5"/>
<path d="M16.3115 107.547L11.5625 108.022L10.2565 105.647L17.4988 105.41L20.7044 103.629L21.8916 105.766L18.686 107.666L14.5306 113.602L13.3434 111.346L16.3115 107.547Z" fill="white" fill-opacity="0.5"/>
<path d="M14.1745 82.7332L14.6494 85.1077L10.494 85.9387L11.2063 89.5005L15.243 88.6694L15.7179 91.0439L5.74497 92.9435L5.27007 90.569L9.30673 89.738L8.59438 86.1762L4.67644 86.8885L4.20154 84.514L14.1745 82.7332Z" fill="white" fill-opacity="0.5"/>
<path d="M3.01431 70.979L3.13303 72.8786L2.18323 73.9472L3.13303 75.0157V76.7966H3.01431L0.995972 74.5408V73.2348L3.01431 70.979ZM9.06931 69.5543C10.0191 69.5543 10.9689 69.7918 11.6813 70.1479C12.3936 70.5041 12.9872 71.0978 13.4621 71.6914C13.8183 72.4037 14.0558 73.1161 14.0558 74.0659C14.0558 74.897 13.8183 75.728 13.4621 76.3217C13.106 76.9153 12.5123 77.5089 11.6813 77.8651C10.9689 78.2213 10.1378 78.4587 9.18803 78.4587H8.5944C7.6446 78.4587 6.6948 78.2213 5.98244 77.8651C5.27009 77.5089 4.67646 76.9153 4.20156 76.3217C3.84538 75.6093 3.60793 74.897 3.60793 73.9472C3.60793 73.1161 3.84538 72.285 4.20156 71.6914C4.55774 71.0978 5.27009 70.5041 5.98244 70.1479C6.6948 69.7918 7.6446 69.5543 8.5944 69.673L9.06931 69.5543ZM8.5944 72.0476C7.6446 72.0476 6.81352 72.1663 6.33862 72.5225C5.86372 72.8786 5.50754 73.3535 5.50754 73.9472C5.50754 75.1344 6.33862 75.8468 8.23823 75.9655H8.95058C9.90038 75.9655 10.7315 75.8468 11.2064 75.4906C11.8 75.1344 12.0374 74.6595 12.0374 74.0659C12.0374 73.4723 11.8 72.9974 11.3251 72.6412C10.8502 72.285 10.0191 72.0476 9.06931 72.0476H8.5944Z" fill="white" fill-opacity="0.5"/>
<path d="M5.27017 59.9371L12.6311 59.4622L6.33869 55.5443L7.05105 52.4574L16.9053 54.8319L16.3116 57.2064L14.0559 56.7315L9.42556 55.3068L15.8367 59.4622L15.4806 61.0056L7.88213 61.5993L12.6311 62.5491L14.8869 63.1427L14.2933 65.5172L4.43909 63.1427L5.27017 59.9371Z" fill="white" fill-opacity="0.5"/>
<path d="M26.2844 37.6179L24.9784 39.6362L17.6175 39.28L22.8414 42.7231L21.6541 44.7414L13.2246 39.1613L14.5306 37.143L21.7728 37.6179L16.4302 34.1748L17.7362 32.1565L26.2844 37.6179Z" fill="white" fill-opacity="0.5"/>
<path d="M31.8645 28.5947L29.49 30.9692L30.4398 32.7501L28.5402 34.6497L24.0286 24.9142L25.6908 23.2521L35.545 27.7636L33.6454 29.6633L31.8645 28.5947ZM28.6589 29.3071L30.2024 27.7636L26.9968 26.1015L28.6589 29.3071Z" fill="white" fill-opacity="0.5"/>
<path d="M37.4447 19.2152L36.4949 14.5849L38.6319 13.0415L39.7004 20.2838L41.7188 23.2519L39.7004 24.6766L37.6821 21.7085L31.2709 18.2654L33.408 16.722L37.4447 19.2152Z" fill="white" fill-opacity="0.5"/>
<path d="M59.1715 9.59815C59.0527 9.12325 59.1715 8.64835 59.4089 8.29217C59.6464 7.93599 60.0025 7.69854 60.5962 7.57982C61.0711 7.46109 61.546 7.46109 61.9021 7.69854C62.2583 7.93599 62.4958 8.29217 62.6145 8.76707L62.7332 9.12325C62.8519 9.59815 62.7332 10.0731 62.4958 10.4292C62.2583 10.7854 61.9021 11.0229 61.3085 11.1416C60.8336 11.2603 60.3587 11.2603 60.0025 11.0229C59.6464 10.7854 59.4089 10.4292 59.2902 9.95433L59.1715 9.59815Z" fill="white" fill-opacity="0.5"/>
</svg>
